<svg xmlns="http://www.w3.org/2000/svg" viewBox="0 0 512 512"><defs><style>.cls-1{fill:#dc7da7;}.cls-2{fill:#629c64;}.cls-3{fill:#6bac6f;}.cls-4{fill:#76c27d;}.cls-5{fill:#e8bb7f;}.cls-6{fill:#f0c788;}.cls-7{fill:#eaac6c;}.cls-8{fill:#b8d5e3;}.cls-9{fill:#c5e4f7;}.cls-10{fill:#619fd8;}.cls-11{fill:#5c95bd;}.cls-12{fill:#578ca9;}.cls-13{fill:#d1982b;}.cls-14{fill:#eaac2e;}.cls-15{fill:#ad7d55;}.cls-16{fill:#966f4d;}.cls-17{fill:#8fc1d8;}.cls-18{fill:#98cfef;}.cls-19{fill:#f1ce34;}.cls-20{fill:#67a76b;}.cls-21{fill:#af3340;}.cls-22{fill:#db3a46;}.cls-23{fill:#69aa6d;}.cls-24{fill:#68a76c;}.cls-25{fill:#c36b25;}.cls-26{fill:#e27c25;}.cls-27{fill:#a93341;}.cls-28{fill:#c5a278;}.cls-29{fill:#d6b17e;}.cls-30{fill:#adb8d0;}.cls-31{fill:#bcc8e5;}.cls-32{fill:#a0a9bc;}.cls-33{fill:#9ea7b9;}.cls-34{fill:#b0bad0;}.cls-35{fill:#d6d6d6;}.cls-36{fill:#fff;}.cls-37{fill:#783e35;}.cls-38{fill:#854538;}.cls-39{fill:#dac1a0;}.cls-40{fill:#eed4ae;}.cls-41{fill:#af3542;}</style></defs><title>Charity</title><g id="BULINE"><circle class="cls-1" cx="256" cy="262" r="250"/></g><g id="Icons"><path class="cls-2" d="M424.1,132.37l-20.5,8.44a6.85,6.85,0,0,1-9-8.77h0a6.86,6.86,0,0,0-4-8.85l-11.53-4.38a6.86,6.86,0,0,0-8.85,4l-1.4,3.71a6.86,6.86,0,0,1-12.63.46L346,105.17a6.85,6.85,0,0,0-9.11-3.31l-11.17,5.21a6.86,6.86,0,0,0-3.32,9.12l22.74,48.69,3.77,8.08a6.85,6.85,0,0,1,.19,5.33l-5.73,15.08-5.5,14.46a6.87,6.87,0,0,0,4,8.85l11.53,4.38a6.86,6.86,0,0,0,8.85-4l5.31-14L375.2,183a6.83,6.83,0,0,1,3.79-3.9l1.32-.54L434,156.45a6.85,6.85,0,0,0,3.72-8.95l-4.69-11.4A6.86,6.86,0,0,0,424.1,132.37Z"/><path class="cls-3" d="M384,96.37a18.48,18.48,0,0,1-22.66,11.11v0a18.49,18.49,0,0,1-23.84,10.71L337,118a18.47,18.47,0,0,1-32.93-4.81,18.06,18.06,0,0,1-.85-5.33,18.47,18.47,0,1,1-10.17-35.32,18.49,18.49,0,0,1,21.1-28.7,18.72,18.72,0,0,1,5.16,3c.1-.3.2-.61.32-.91a18.47,18.47,0,0,1,35.45,3.25,12.45,12.45,0,0,1,8.57.11,11.47,11.47,0,0,1,2,1A12.37,12.37,0,0,1,368.84,53a12.48,12.48,0,0,1-2.57,18.3,18.53,18.53,0,0,1,12,4,4.47,4.47,0,0,1,.41.35h0A18.47,18.47,0,0,1,384,96.37Z"/><path class="cls-4" d="M384,96.37a18.48,18.48,0,0,1-22.66,11.11v0a18.49,18.49,0,0,1-23.84,10.71L337,118a18.51,18.51,0,0,1-15.74,8.14,18.54,18.54,0,0,1-6.53-13.9,18.39,18.39,0,0,1-10.66,1,19,19,0,0,1-2.8-.82A18.48,18.48,0,0,1,304.57,77a18.48,18.48,0,0,1,26.26-25.7c.1-.3.21-.6.32-.9a18.49,18.49,0,0,1,17.72-11.91,18.59,18.59,0,0,1,6.22,10.78,12.45,12.45,0,0,1,8.57.11,11.47,11.47,0,0,1,2,1,18.7,18.7,0,0,1,.92,3.27,13.32,13.32,0,0,1,2.24-.55,12.48,12.48,0,0,1-2.57,18.3,18.53,18.53,0,0,1,12,4c-.15.13-.3.23-.46.35q.44,0,.87,0h0A18.47,18.47,0,0,1,384,96.37Z"/><path class="cls-3" d="M509.6,160.6A18.47,18.47,0,0,1,487,171.71l0,0a18.49,18.49,0,0,1-23.84,10.71l-.45-.19a18.49,18.49,0,0,1-33.79-10.14,18.73,18.73,0,0,1-7.32,1.34,18.48,18.48,0,0,1-2.85-36.67,18.47,18.47,0,0,1,26.26-25.69c.1-.31.21-.61.32-.91a18.48,18.48,0,0,1,35.45,3.24,12.54,12.54,0,0,1,8.58.12,11.83,11.83,0,0,1,2,1,12.49,12.49,0,0,1,.58,21,18.51,18.51,0,0,1,7,1.19,18.21,18.21,0,0,1,5,2.84c.14.11.28.22.42.35h0A18.46,18.46,0,0,1,509.6,160.6Z"/><path class="cls-4" d="M509.6,160.6A18.47,18.47,0,0,1,487,171.71l0,0a18.49,18.49,0,0,1-23.84,10.71l-.45-.19a18.54,18.54,0,0,1-15.75,8.14,18.54,18.54,0,0,1-6.52-13.9,18.43,18.43,0,0,1-10.67.94,17.7,17.7,0,0,1-2.79-.81,18.48,18.48,0,0,1,3.29-35.46,18.48,18.48,0,0,1,26.26-25.7c.09-.3.2-.6.32-.91a18.46,18.46,0,0,1,17.71-11.9,18.49,18.49,0,0,1,6.22,10.77,12.54,12.54,0,0,1,8.58.12,11.83,11.83,0,0,1,2,1,19.35,19.35,0,0,1,.92,3.27,14.11,14.11,0,0,1,2.24-.56,12.5,12.5,0,0,1-2.58,18.31,18.51,18.51,0,0,1,7,1.19,18.21,18.21,0,0,1,5,2.84,5.48,5.48,0,0,1-.46.34c.29,0,.58,0,.88,0h0A18.46,18.46,0,0,1,509.6,160.6Z"/><path class="cls-3" d="M464.78,104.88a21.54,21.54,0,0,1-26.41,13l0,0a21.55,21.55,0,0,1-27.79,12.48l-.54-.21a21.52,21.52,0,0,1-38.39-5.62,21.33,21.33,0,0,1-1-6.21,21.55,21.55,0,0,1-8.54,1.56,21.19,21.19,0,0,1-7.15-1.41,21.53,21.53,0,0,1,3.83-41.33,21.55,21.55,0,0,1,30.62-30c.11-.35.24-.71.37-1.06a21.54,21.54,0,0,1,27.79-12.48,21.26,21.26,0,0,1,6.28,3.7A21.62,21.62,0,0,1,431.1,49.9a14.55,14.55,0,0,1,10,.13,14.77,14.77,0,0,1,6,4.33,14.55,14.55,0,0,1-3,21.33,21.68,21.68,0,0,1,8.17,1.4,21.28,21.28,0,0,1,5.79,3.31,5.65,5.65,0,0,1,.48.4h0A21.53,21.53,0,0,1,464.78,104.88Z"/><path class="cls-4" d="M464.78,104.88a21.54,21.54,0,0,1-26.41,13l0,0a21.55,21.55,0,0,1-27.79,12.48l-.54-.21a21.57,21.57,0,0,1-18.35,9.48,21.63,21.63,0,0,1-7.61-16.2,21.51,21.51,0,0,1-12.43,1.1,21.24,21.24,0,0,1-3.26-1,21.54,21.54,0,0,1,3.84-41.34A21.54,21.54,0,0,1,396.8,48.79a21.24,21.24,0,0,1,6,3.49c.11-.35.24-.71.37-1.06a21.54,21.54,0,0,1,20.65-13.88A21.62,21.62,0,0,1,431.1,49.9a14.55,14.55,0,0,1,10,.13,14.37,14.37,0,0,1,2.36,1.16A21.63,21.63,0,0,1,444.52,55a14.65,14.65,0,0,1,2.61-.65,14.55,14.55,0,0,1-3,21.33,21.68,21.68,0,0,1,8.17,1.4,21.28,21.28,0,0,1,5.79,3.31c-.17.14-.35.26-.54.4.34,0,.68,0,1,0h0A21.53,21.53,0,0,1,464.78,104.88Z"/><path class="cls-5" d="M91.48,35.57l87.39,239.85a41,41,0,0,1-77,28.08L14.43,63.64A41,41,0,0,1,38.92,11.08a40.11,40.11,0,0,1,4.31-1.3A41,41,0,0,1,91.48,35.57Z"/><path class="cls-6" d="M91.48,35.57l87.39,239.85a41,41,0,0,1-20.34,50.79,41,41,0,0,1-48.25-25.79L22.89,60.56A41,41,0,0,1,43.23,9.78,41,41,0,0,1,91.48,35.57Z"/><rect class="cls-7" x="24.76" y="49.39" width="63" height="21.5" rx="10.75" transform="matrix(0.94, -0.34, 0.34, 0.94, -17.19, 22.9)"/><rect class="cls-7" x="41.28" y="94.73" width="63" height="21.5" rx="10.75" transform="translate(-31.71 31.29) rotate(-20.02)"/><rect class="cls-7" x="57.71" y="139.82" width="63" height="21.5" rx="10.75" transform="translate(-46.16 39.64) rotate(-20.02)"/><rect class="cls-7" x="74.4" y="185.63" width="63" height="21.5" rx="10.75" transform="translate(-60.83 48.12) rotate(-20.02)"/><rect class="cls-7" x="90.92" y="230.96" width="63" height="21.5" rx="10.75" transform="translate(-75.35 56.52) rotate(-20.02)"/><rect class="cls-7" x="107.35" y="276.06" width="63" height="21.5" rx="10.75" transform="translate(-89.8 64.87) rotate(-20.02)"/><path class="cls-8" d="M218.35,147.24l15.29,143.83-82.86,8.81-15.3-143.83a21.39,21.39,0,0,1,14.1-22.39,6.2,6.2,0,0,0,4.21-6.47l-2.5-23.46,40.52-4.31,2.49,23.44a6.2,6.2,0,0,0,5.5,5.44A21.39,21.39,0,0,1,218.35,147.24Z"/><path class="cls-9" d="M218.35,147.24l15.29,143.83-72.78,7.74L145.57,155a21.37,21.37,0,0,1,14.09-22.39,6.19,6.19,0,0,0,4.21-6.47l-2.5-23.47,30.44-3.23,2.49,23.44a6.2,6.2,0,0,0,5.5,5.44A21.39,21.39,0,0,1,218.35,147.24Z"/><path class="cls-10" d="M198.9,84.08l1.94,18.24a4.84,4.84,0,0,1-4.3,5.31l-48.06,5.11a4.81,4.81,0,0,1-5.31-4.29l-1.94-18.24a4.83,4.83,0,0,1,4.29-5.31l48.06-5.11A4.84,4.84,0,0,1,198.9,84.08Z"/><path class="cls-11" d="M155.31,101.48l1.1,10.42-7.28.77L148,102.25a3.67,3.67,0,0,1,7.29-.77Z"/><path class="cls-11" d="M168.56,100.07l1.11,10.42-7.29.78-1.11-10.43a3.68,3.68,0,0,1,3.26-4,3.58,3.58,0,0,1,2.69.8A3.65,3.65,0,0,1,168.56,100.07Z"/><path class="cls-11" d="M181.49,98.69l1.11,10.43-7.29.77L174.2,99.47a3.67,3.67,0,0,1,7.29-.78Z"/><path class="cls-11" d="M194.75,97.28l1.11,10.43-7.3.77-1.11-10.42a3.67,3.67,0,0,1,6-3.24A3.63,3.63,0,0,1,194.75,97.28Z"/><rect class="cls-12" x="141.48" y="171.71" width="83.33" height="77" transform="translate(-21.2 20.54) rotate(-6.07)"/><rect class="cls-11" x="151.59" y="171.17" width="73.19" height="77" transform="translate(-21.11 21.07) rotate(-6.07)"/><path class="cls-9" d="M170.26,215.1a13.33,13.33,0,1,0,26.52-2.82c-.78-7.32-15.41-18.82-15.41-18.82S169.48,207.77,170.26,215.1Z"/><path class="cls-13" d="M302.21,126l-.15,144.64-83.33-.09.15-144.64a21.36,21.36,0,0,1,16.4-20.75,6.21,6.21,0,0,0,4.88-6l0-23.6,40.75,0,0,23.57a6.19,6.19,0,0,0,4.88,6A21.37,21.37,0,0,1,302.21,126Z"/><path class="cls-14" d="M302.21,126l-.15,144.64-73.19-.08L229,125.9a21.37,21.37,0,0,1,16.4-20.75,6.21,6.21,0,0,0,4.88-6l0-23.6,30.61,0,0,23.57a6.19,6.19,0,0,0,4.88,6A21.37,21.37,0,0,1,302.21,126Z"/><path class="cls-15" d="M286.64,62.77l0,18.34a4.6,4.6,0,0,1-4.37,4.82l-43.6,0a4.61,4.61,0,0,1-4.35-4.84l0-18.34a4.61,4.61,0,0,1,4.36-4.82l43.6,0A4.63,4.63,0,0,1,286.64,62.77Z"/><path class="cls-16" d="M245.86,75.42V85.9h-6.61V75.41a3.51,3.51,0,0,1,3.3-3.67,3.16,3.16,0,0,1,2.35,1.08A3.94,3.94,0,0,1,245.86,75.42Z"/><path class="cls-16" d="M257.89,75.43V85.91h-6.62V75.42a3.51,3.51,0,0,1,3.32-3.66,3.1,3.1,0,0,1,2.33,1.08A3.85,3.85,0,0,1,257.89,75.43Z"/><path class="cls-16" d="M269.61,75.44V85.92H263V75.43a3.5,3.5,0,0,1,3.32-3.66,3.1,3.1,0,0,1,2.33,1.08A3.79,3.79,0,0,1,269.61,75.44Z"/><path class="cls-16" d="M281.65,75.45V85.93H275V75.45a3.51,3.51,0,0,1,3.31-3.67,3.14,3.14,0,0,1,2.34,1.08A3.85,3.85,0,0,1,281.65,75.45Z"/><rect class="cls-17" x="221.98" y="143.16" width="77" height="83.33" transform="translate(75.38 445.11) rotate(-89.94)"/><rect class="cls-18" x="227.05" y="148.24" width="77" height="73.19" transform="translate(80.44 450.19) rotate(-89.94)"/><path class="cls-19" d="M247.14,188.32a13.33,13.33,0,1,0,26.66,0c0-7.37-13.31-20.36-13.31-20.36S247.14,181,247.14,188.32Z"/><path class="cls-20" d="M244.39,169.46l-2,27.56-6.33.51-6.37-26.88a2.37,2.37,0,0,1,2.11-2.91l10-.8A2.36,2.36,0,0,1,244.39,169.46Z"/><path class="cls-4" d="M244.39,169.46l-2,27.56-3.48.28-6.35-26.88a2.36,2.36,0,0,1,2.1-2.91l7.14-.57A2.36,2.36,0,0,1,244.39,169.46Z"/><path class="cls-21" d="M296.07,228.39A45.89,45.89,0,0,1,275,281.94a45.21,45.21,0,0,1-9.09,4,45.92,45.92,0,1,1-27.35-87.67,45.17,45.17,0,0,1,9.73-1.92A45.9,45.9,0,0,1,296.07,228.39Z"/><ellipse class="cls-22" cx="261.64" cy="239.13" rx="36.06" ry="44.85" transform="matrix(0.95, -0.3, 0.3, 0.95, -59.34, 88.77)"/><path class="cls-4" d="M279.58,206.88a31.14,31.14,0,0,1-15.21.22c-1.21-.32-2.37-.67-3.5-1a32.8,32.8,0,0,1,5.24,12,3.29,3.29,0,0,1-4.35,3.82A31.28,31.28,0,0,1,249,213.53a44.3,44.3,0,0,1-6.67-9.83,43.18,43.18,0,0,1-1.16,12.13,31.11,31.11,0,0,1-7.22,13.4,3.29,3.29,0,0,1-5.64-1.29,32.55,32.55,0,0,1-1.09-13.14,52.24,52.24,0,0,1-4,4.36,31.53,31.53,0,0,1-13.3,7.39,3.31,3.31,0,0,1-4.08-4.14,31.49,31.49,0,0,1,7.6-13.17c4.35-4.29,8.95-7.37,12.59-8.68a7.55,7.55,0,0,1,5.26-6.5l13.15-4.1a7.57,7.57,0,0,1,8.11,2.43c3.8-.69,9.36-.33,15.31,1.23a31.36,31.36,0,0,1,13.14,7.65A3.3,3.3,0,0,1,279.58,206.88Z"/><path class="cls-23" d="M234.69,193c-3,6.11-6.37,18.13-.73,36.21a3.29,3.29,0,0,1-5.64-1.29,32.55,32.55,0,0,1-1.09-13.14,52.24,52.24,0,0,1-4,4.36,31.53,31.53,0,0,1-13.3,7.39,3.31,3.31,0,0,1-4.08-4.14,31.49,31.49,0,0,1,7.6-13.17c4.35-4.29,8.95-7.37,12.59-8.68a7.55,7.55,0,0,1,5.26-6.5Z"/><path class="cls-24" d="M330.87,154.35a5.45,5.45,0,0,1-2,1.2c-5.83,2-14.13-6.58-18.54-19.24s-3.23-24.56,2.61-26.59a5.82,5.82,0,0,1,3.39-.09c5.34,1.34,11.55,9,15.13,19.33C335.35,140,334.94,150.55,330.87,154.35Z"/><path class="cls-4" d="M330.87,154.35c-5.33-1.33-11.55-9-15.14-19.33-3.85-11.09-3.44-21.59.63-25.39,5.34,1.34,11.55,9,15.13,19.33C335.35,140,334.94,150.55,330.87,154.35Z"/><path class="cls-24" d="M334.44,157.59a5.56,5.56,0,0,1-2-1.12c-4.65-4.06-1.27-15.54,7.54-25.63s19.74-15,24.4-10.91a5.84,5.84,0,0,1,1.75,2.91c1.49,5.3-2.09,14.48-9.3,22.71C349.1,154.39,339.77,159.24,334.44,157.59Z"/><path class="cls-4" d="M334.44,157.59c-1.48-5.3,2.1-14.49,9.3-22.73,7.73-8.83,17.06-13.69,22.37-12,1.49,5.3-2.09,14.48-9.3,22.71C349.1,154.39,339.77,159.24,334.44,157.59Z"/><path class="cls-25" d="M352.29,170.53c-.05.24-.1.48-.16.72l-2.84,12L346.53,195l-2.12,9-2.77,11.68-2,8.41-2.76,11.69L335,243.65l-2.76,11.68-2.13,9L327.37,276l-2,8.41-2.76,11.69-.87,3.69-35.93-7.28,22.05-130.22a22.6,22.6,0,0,1,26.77-18.37,22.26,22.26,0,0,1,4.78,1.54A22.61,22.61,0,0,1,352.29,170.53Z"/><path class="cls-26" d="M352.29,170.53c-.05.24-.1.48-.16.72l-2.84,12L346.53,195l-2.12,9-2.77,11.68-2,8.41-2.76,11.69L335,243.65l-2.76,11.68-2.13,9L327.37,276l-2,8.41-2.76,11.69-.87,3.69-26.13-5.3,22.05-130.21a22.62,22.62,0,0,1,21.75-18.82A22.61,22.61,0,0,1,352.29,170.53Z"/><path class="cls-25" d="M349.29,183.28,346.53,195l-15.48-3.14a6,6,0,0,1-4.69-7.07,6,6,0,0,1,7.07-4.69Z"/><path class="cls-25" d="M344.41,203.94l-2.77,11.68-14.81-3a6,6,0,0,1-4.69-7.07,6,6,0,0,1,7.08-4.69Z"/><path class="cls-25" d="M339.65,224l-2.76,11.69-14.16-2.87a6,6,0,0,1-4.69-7.07,6,6,0,0,1,7.08-4.69Z"/><path class="cls-25" d="M335,243.65l-2.76,11.68-13.53-2.74a6,6,0,0,1-4.69-7.07,6,6,0,0,1,7.07-4.69Z"/><path class="cls-25" d="M330.13,264.31,327.37,276l-12.85-2.6a6,6,0,0,1,2.38-11.77Z"/><path class="cls-25" d="M325.38,284.4l-2.76,11.69-12.2-2.48a6,6,0,0,1-4.69-7.07,6,6,0,0,1,7.07-4.69Z"/><path class="cls-22" d="M431.43,254.22c-7.77,23.41-28.74,37.52-46.82,31.52a28.14,28.14,0,0,1-13.11-9.28,28.27,28.27,0,0,1-16.07-.41c-.37-.12-.74-.25-1.09-.39-17.32-6.58-25.2-29.93-17.58-52.87,7.1-21.4,25.23-35,42.11-32.63a27.65,27.65,0,0,1,4.7,1.11,28.24,28.24,0,0,1,13.13,9.29,28.15,28.15,0,0,1,16.06.4C430.84,207,439.2,230.8,431.43,254.22Z"/><path class="cls-27" d="M354.34,275.66c-17.32-6.58-25.2-29.93-17.58-52.87,7.1-21.4,25.23-35,42.11-32.63C365.52,204.12,348.28,231.33,354.34,275.66Z"/><path class="cls-24" d="M400,200.56a5.75,5.75,0,0,1-2.18,2.39c-5.32,3.14-15.16-3.65-22-15.18s-8-23.43-2.74-26.58a5.33,5.33,0,0,1,1.61-.62c5.53-1.22,14.19,5.35,20.38,15.8C400.67,185.89,402.49,195.67,400,200.56Z"/><path class="cls-4" d="M400,200.56c-5.52,1.22-14.2-5.35-20.39-15.8-5.64-9.53-7.45-19.31-4.91-24.19,5.53-1.22,14.19,5.35,20.38,15.8C400.67,185.89,402.49,195.67,400,200.56Z"/><rect class="cls-28" x="67.69" y="252.85" width="377" height="168.04" rx="8.6"/><path class="cls-29" d="M444.69,261.45V412.3a8.6,8.6,0,0,1-8.59,8.59H129.19v-168H436.1A8.6,8.6,0,0,1,444.69,261.45Z"/><rect class="cls-30" x="127.85" y="322.42" width="84" height="110.66"/><rect class="cls-31" x="143.6" y="322.42" width="68.25" height="110.66"/><path class="cls-32" d="M216.85,318.5a3.93,3.93,0,0,1-3.92,3.92H126.77a3.92,3.92,0,0,1,0-7.84h86.16A3.93,3.93,0,0,1,216.85,318.5Z"/><rect class="cls-33" x="127.85" y="336.58" width="84" height="7.84"/><rect class="cls-33" x="127.85" y="406.08" width="84" height="7.84"/><path class="cls-32" d="M216.85,433.08a4.44,4.44,0,0,1-4.45,4.45H127.3a4.45,4.45,0,1,1,0-8.9h85.1A4.45,4.45,0,0,1,216.85,433.08Z"/><path class="cls-34" d="M216.85,318.5a3.93,3.93,0,0,1-3.92,3.92H143.27a3.92,3.92,0,0,1,0-7.84h69.66A3.93,3.93,0,0,1,216.85,318.5Z"/><path class="cls-34" d="M216.85,433.08a4.44,4.44,0,0,1-4.45,4.45H143.8a4.45,4.45,0,1,1,0-8.9h68.6A4.45,4.45,0,0,1,216.85,433.08Z"/><rect class="cls-35" x="127.85" y="350.58" width="84" height="49.5"/><rect class="cls-36" x="143.6" y="350.58" width="68.25" height="49.5"/><path class="cls-37" d="M181.22,371.11c3.33,9,4.77,17,1.28,20.71a6.24,6.24,0,0,1-2.45,1.59c-6.41,2.39-17.62-3.24-21.56-13.85s.86-22.19,7.27-24.58a6.41,6.41,0,0,1,2.89-.39C173.73,355.13,177.89,362.15,181.22,371.11Z"/><path class="cls-38" d="M181.22,371.11c3.33,9,4.77,17,1.28,20.71-6.42,0-14.94-5.43-18.28-14.39s-.41-18.63,4.43-22.84C173.73,355.13,177.89,362.15,181.22,371.11Z"/><rect class="cls-30" x="226.52" y="322.42" width="84" height="110.66"/><rect class="cls-31" x="242.27" y="322.42" width="68.25" height="110.66"/><path class="cls-32" d="M315.52,318.5a3.93,3.93,0,0,1-3.92,3.92H225.44a3.92,3.92,0,0,1,0-7.84H311.6A3.93,3.93,0,0,1,315.52,318.5Z"/><rect class="cls-33" x="226.52" y="336.58" width="84" height="7.84"/><rect class="cls-33" x="226.52" y="406.08" width="84" height="7.84"/><path class="cls-32" d="M315.52,433.08a4.44,4.44,0,0,1-4.45,4.45H226a4.45,4.45,0,1,1,0-8.9h85.1A4.45,4.45,0,0,1,315.52,433.08Z"/><path class="cls-34" d="M315.52,318.5a3.93,3.93,0,0,1-3.92,3.92H241.94a3.92,3.92,0,0,1,0-7.84H311.6A3.93,3.93,0,0,1,315.52,318.5Z"/><path class="cls-34" d="M315.52,433.08a4.44,4.44,0,0,1-4.45,4.45h-68.6a4.45,4.45,0,1,1,0-8.9h68.6A4.45,4.45,0,0,1,315.52,433.08Z"/><rect class="cls-35" x="226.52" y="350.58" width="84" height="49.5"/><rect class="cls-36" x="242.27" y="350.58" width="68.25" height="49.5"/><path class="cls-20" d="M271,357.83l2.29,8.47-1.85.82-4.71-7.41a.74.74,0,0,1,.33-1.09l2.91-1.28A.74.74,0,0,1,271,357.83Z"/><path class="cls-4" d="M271,357.83l2.29,8.47-1,.45-4.71-7.4a.76.76,0,0,1,.33-1.1l2.08-.91A.74.74,0,0,1,271,357.83Z"/><path class="cls-21" d="M292.69,370.13A14.58,14.58,0,0,1,292,388.4a13.81,13.81,0,0,1-2.31,2.13,14.59,14.59,0,1,1,3.05-20.4Z"/><ellipse class="cls-22" cx="283.48" cy="376.94" rx="11.46" ry="14.25" transform="translate(-168.58 242.45) rotate(-36.49)"/><path class="cls-4" d="M285.5,365.39A9.85,9.85,0,0,1,281,367c-.4,0-.79,0-1.17,0a10.43,10.43,0,0,1,2.83,3.05,1,1,0,0,1-.91,1.6,10.08,10.08,0,0,1-4.69-1.16,14.47,14.47,0,0,1-3-2.26,14,14,0,0,1,.92,3.76,10.1,10.1,0,0,1-.77,4.78,1.05,1.05,0,0,1-1.83.2,10.39,10.39,0,0,1-1.7-3.83c-.2.55-.45,1.14-.73,1.72a9.94,9.94,0,0,1-3.23,3.6,1,1,0,0,1-1.65-.81,10.08,10.08,0,0,1,.9-4.75,12.28,12.28,0,0,1,2.88-3.92,2.39,2.39,0,0,1,.9-2.5l3.52-2.6a2.42,2.42,0,0,1,2.69-.12,12,12,0,0,1,4.72-1.22,9.92,9.92,0,0,1,4.75.92A1,1,0,0,1,285.5,365.39Z"/><path class="cls-23" d="M270.58,365.91c-.26,2.15,0,6.11,3.56,10.95a1.05,1.05,0,0,1-1.83.2,10.39,10.39,0,0,1-1.7-3.83c-.2.55-.45,1.14-.73,1.72a9.94,9.94,0,0,1-3.23,3.6,1,1,0,0,1-1.65-.81,10.08,10.08,0,0,1,.9-4.75,12.28,12.28,0,0,1,2.88-3.92,2.39,2.39,0,0,1,.9-2.5Z"/><path class="cls-20" d="M271.22,361.06,265,367.23,263.35,366l4.12-7.75a.74.74,0,0,1,1.11-.25l2.56,1.9A.76.76,0,0,1,271.22,361.06Z"/><path class="cls-4" d="M271.22,361.06,265,367.23l-.89-.67,4.12-7.74a.75.75,0,0,1,1.11-.26l1.83,1.36A.76.76,0,0,1,271.22,361.06Z"/><path class="cls-21" d="M271.18,386a14.59,14.59,0,1,1-7.39-19.27,14.36,14.36,0,0,1,2.72,1.59A14.58,14.58,0,0,1,271.18,386Z"/><ellipse class="cls-22" cx="260.71" cy="381.31" rx="14.25" ry="11.46" transform="translate(-193.67 464.37) rotate(-66)"/><path class="cls-4" d="M271.76,377.38a10,10,0,0,1-3.68-3.14c-.21-.33-.42-.66-.61-1a10.43,10.43,0,0,1-1.26,4,1,1,0,0,1-1.84,0,10,10,0,0,1-1.3-4.66,14.21,14.21,0,0,1,.47-3.75,13.72,13.72,0,0,1-2.82,2.65,9.8,9.8,0,0,1-4.53,1.68,1,1,0,0,1-1.08-1.49,10.19,10.19,0,0,1,2.5-3.36,17.61,17.61,0,0,1-1.86.21,10.1,10.1,0,0,1-4.73-1,1,1,0,0,1-.1-1.84,10,10,0,0,1,4.57-1.55,12.1,12.1,0,0,1,4.83.57,2.41,2.41,0,0,1,2.62-.45l4,1.79a2.39,2.39,0,0,1,1.42,2.27,12.16,12.16,0,0,1,3.4,3.51,10,10,0,0,1,1.53,4.59A1,1,0,0,1,271.76,377.38Z"/><path class="cls-23" d="M264,364.65c-2,.83-5.33,3-7.77,8.48a1,1,0,0,1-1.08-1.49,10.19,10.19,0,0,1,2.5-3.36,17.61,17.61,0,0,1-1.86.21,10.1,10.1,0,0,1-4.73-1,1,1,0,0,1-.1-1.84,10,10,0,0,1,4.57-1.55,12.1,12.1,0,0,1,4.83.57,2.41,2.41,0,0,1,2.62-.45Z"/><path class="cls-39" d="M349.36,395.29c9,17.12,6.38,36.58-5.33,46.34a25.08,25.08,0,0,1-4.6,3.07c-15.51,8.13-36.23-.82-46.26-20s-5.59-41.29,9.92-49.42a26.25,26.25,0,0,1,5.15-2C322.93,369.21,340.4,378.17,349.36,395.29Z"/><path class="cls-40" d="M349.36,395.29c9,17.12,6.38,36.58-5.33,46.34-14.69,4.07-32.17-4.9-41.13-22s-6.38-36.59,5.34-46.35C322.93,369.21,340.4,378.17,349.36,395.29Z"/><path class="cls-39" d="M413.5,408.51c-1.47,19.26-14,34.39-29.09,36.46a25.39,25.39,0,0,1-5.52.17c-17.47-1.33-30.29-19.9-28.64-41.47s17.14-38,34.61-36.64a25.77,25.77,0,0,1,5.43,1C404.9,372.37,415,389.24,413.5,408.51Z"/><path class="cls-40" d="M413.5,408.51c-1.47,19.26-14,34.39-29.09,36.46-14.61-4.34-24.68-21.2-23.21-40.46s14-34.41,29.09-36.48C404.9,372.37,415,389.24,413.5,408.51Z"/><path class="cls-22" d="M413.57,318.41l-34.7,34.7-28.59-28.59-6.1-6.11a20.21,20.21,0,0,1,28.58-28.59l6.11,6.11,6.11-6.11a20.22,20.22,0,0,1,28.59,28.59Z"/><path class="cls-41" d="M378.87,353.11l-28.59-28.59-6.1-6.11a20.21,20.21,0,0,1,11.9-34.36A89.88,89.88,0,0,0,378.87,353.11Z"/></g></svg>