<svg xmlns="http://www.w3.org/2000/svg" viewBox="0 0 512 512"><defs><style>.cls-1{fill:#5b9c95;}.cls-2{fill:#72392f;}.cls-3{fill:#5e302b;}.cls-4{fill:#7f3e37;}.cls-5{fill:#cc9458;}.cls-6{fill:#f0c788;}.cls-7{fill:#eaac2e;}.cls-8{fill:#da4d5d;}.cls-9{fill:#d63d55;}.cls-10{fill:#f6e0b8;}.cls-11{fill:#76c27d;}.cls-12{fill:#69aa6d;}.cls-13{fill:#c99028;}</style></defs><title>Food</title><g id="BULINE"><circle class="cls-1" cx="256" cy="256" r="256"/></g><g id="Icons"><path class="cls-2" d="M443.82,20.91H65.11A23.63,23.63,0,0,0,41.47,44.55V382.26a23.64,23.64,0,0,0,23.64,23.65H217.18L214.66,452a39.87,39.87,0,1,0,79.62,0l-2.54-46.06H443.82a23.65,23.65,0,0,0,23.65-23.65V44.55A23.64,23.64,0,0,0,443.82,20.91ZM254.47,463.67a15.21,15.21,0,1,1,15.21-15.21A15.21,15.21,0,0,1,254.47,463.67Z"/><path class="cls-3" d="M261.44,461.37a15.2,15.2,0,1,1,.3-25.63l1.64-29.83H216.13L213.6,452A39.87,39.87,0,0,0,277,486.26,39.85,39.85,0,0,1,261.44,461.37ZM111.31,20.91H64.05A23.64,23.64,0,0,0,40.41,44.55V382.27a23.65,23.65,0,0,0,23.64,23.64h47.26a23.65,23.65,0,0,1-23.65-23.64V44.55A23.64,23.64,0,0,1,111.31,20.91Z"/><rect class="cls-4" x="418.25" y="288.95" width="19.92" height="81.13" rx="9.96"/><rect class="cls-4" x="380.09" y="32.81" width="19.92" height="81.13" rx="9.96"/><rect class="cls-4" x="116.67" y="32.81" width="19.92" height="81.13" rx="9.96"/><rect class="cls-4" x="123.78" y="316.66" width="19.92" height="81.13" rx="9.96"/><circle class="cls-5" cx="256.59" cy="218.42" r="196.69"/><circle class="cls-6" cx="256.59" cy="218.42" r="179.54"/><path class="cls-7" d="M88.93,218.42c0,18.66-7.42,38.28-2,55.11,5.67,17.45,23.39,28.92,34,43.44s16.18,35,30.85,45.71,35.53,9.57,53,15.24c16.84,5.47,33.17,18.8,51.83,18.8s35-13.33,51.82-18.8c17.45-5.67,38.46-4.67,53-15.24,14.68-10.68,20.17-31,30.85-45.71s28.29-26,34-43.44c5.47-16.83-1.95-36.45-1.95-55.11s7.42-38.27,1.95-55.11c-5.67-17.45-23.39-28.91-34-43.44s-16.17-35-30.85-45.7c-14.52-10.57-35.53-9.58-53-15.24-16.84-5.47-33.16-18.8-51.82-18.8s-35,13.33-51.83,18.8c-17.45,5.66-38.46,4.67-53,15.24s-20.17,31-30.85,45.7-28.29,26-34,43.44C81.51,180.15,88.93,199.76,88.93,218.42Z"/><path class="cls-8" d="M113.5,218.42c0,15.93-6.33,32.67-1.66,47,4.83,14.89,20,24.67,29,37.07s13.8,29.89,26.32,39,30.33,8.17,45.22,13c14.37,4.67,28.3,16,44.23,16s29.86-11.37,44.22-16c14.9-4.83,32.82-4,45.22-13s17.21-26.48,26.33-39,24.14-22.18,29-37.07c4.66-14.37-1.67-31.11-1.67-47s6.33-32.66,1.67-47c-4.84-14.89-20-24.67-29-37.07s-13.8-29.89-26.32-39-30.32-8.18-45.21-13c-14.37-4.67-28.31-16-44.23-16s-29.86,11.38-44.23,16c-14.89,4.83-32.82,4-45.22,13s-17.21,26.48-26.32,39-24.15,22.18-29,37.07C107.17,185.76,113.5,202.5,113.5,218.42Z"/><path class="cls-9" d="M288.11,354.54c2.12.69,4.24,1.53,6.35,2.45-12.18,5.33-24.31,13.59-37.87,13.59-15.93,0-29.86-11.37-44.23-16-14.89-4.83-32.82-4-45.21-13s-17.22-26.48-26.33-39-24.15-22.17-29-37.06c-4.66-14.37,1.67-31.11,1.67-47s-6.33-32.66-1.67-47c4.84-14.89,20-24.67,29-37.07s13.8-29.9,26.33-39,30.32-8.18,45.21-13c14.37-4.67,28.3-16,44.23-16,13.56,0,25.69,8.26,37.87,13.58a68,68,0,0,1-6.35,2.46c-14.9,4.83-32.82,4-45.22,13s-17.22,26.48-26.33,39-24.14,22.18-29,37.07c-4.68,14.37,1.66,31.11,1.66,47s-6.34,32.67-1.66,47c4.83,14.89,19.95,24.67,29,37.06s13.81,29.9,26.33,39S273.21,349.71,288.11,354.54Z"/><path class="cls-10" d="M336.17,144.05q0-.59,0-1.17a25.85,25.85,0,1,0-25.84,25.84h.07a19.2,19.2,0,0,1,10.89,3.22,15.89,15.89,0,1,0,14.85-27.89Z"/><path class="cls-10" d="M215.4,147q0-.59,0-1.17a25.84,25.84,0,1,0-19,24.94,15.89,15.89,0,1,0,19-23.77Z"/><circle class="cls-10" cx="170.21" cy="232.84" r="24.35"/><circle class="cls-10" cx="339.68" cy="232.84" r="24.35"/><path class="cls-10" d="M285.34,272.76A5.31,5.31,0,0,1,283,268.3v-.18a20.87,20.87,0,0,0-41.57-2.64,20.32,20.32,0,0,0,.32,7.12,5.19,5.19,0,0,1-1.24,4.74,34.79,34.79,0,1,0,44.81-4.58Z"/><circle class="cls-9" cx="265.63" cy="197.09" r="24.01"/><circle class="cls-9" cx="329.12" cy="310.82" r="13.8"/><circle class="cls-9" cx="371.23" cy="192.9" r="13.8"/><circle class="cls-9" cx="257.5" cy="120.02" r="13.8"/><path class="cls-11" d="M288.8,99.66h0a0,0,0,0,1,0,0v21.86a35,35,0,0,1-35,35h0a0,0,0,0,1,0,0V134.67a35,35,0,0,1,35-35Z"/><path class="cls-12" d="M288.8,99.66v2.83a35,35,0,0,0-21.2,32.18v19a34.89,34.89,0,0,1-13.8,2.83V134.67A35,35,0,0,1,288.8,99.66Z"/><path class="cls-11" d="M304,133.82h0a0,0,0,0,1,0,0v21.86a35,35,0,0,1-35,35h0a0,0,0,0,1,0,0V168.82A35,35,0,0,1,304,133.82Z" transform="translate(341.4 -162.39) rotate(70.08)"/><path class="cls-12" d="M319.19,169l-2.66,1a35,35,0,0,0-37.48-9l-17.89,6.48a34.64,34.64,0,0,1-7.36-12L274.35,148A35,35,0,0,1,319.19,169Z"/><path class="cls-11" d="M385.14,237.56h0a0,0,0,0,1,0,0v21.86a35,35,0,0,1-35,35h0a0,0,0,0,1,0,0V272.56a35,35,0,0,1,35-35Z" transform="translate(563.74 -143.22) rotate(79.72)"/><path class="cls-12" d="M398.73,278.14l-2.78.5a35,35,0,0,0-35.45-15.12l-18.72,3.39a34.82,34.82,0,0,1-5.25-13.07l21.51-3.9A35,35,0,0,1,398.73,278.14Z"/><path class="cls-11" d="M198.7,254.17h0a0,0,0,0,1,0,0V276a35,35,0,0,1-35,35h0a0,0,0,0,1,0,0V289.18a35,35,0,0,1,35-35Z" transform="translate(252.71 -45.4) rotate(44.97)"/><path class="cls-12" d="M213.67,274.86l-2,2a35,35,0,0,0-37.75,7.78L160.48,298.1a34.72,34.72,0,0,1-11.76-7.75l15.45-15.46A35,35,0,0,1,213.67,274.86Z"/><path class="cls-11" d="M226.46,164.47h0a0,0,0,0,1,0,0v21.86a35,35,0,0,1-35,35h0a0,0,0,0,1,0,0V199.48A35,35,0,0,1,226.46,164.47Z" transform="translate(470.31 80.76) rotate(114.06)"/><path class="cls-12" d="M227.79,220.48l-2.58-1.15a35,35,0,0,0-20.74-32.49l-17.38-7.76a34.71,34.71,0,0,1,3-13.75l20,8.91A35,35,0,0,1,227.79,220.48Z"/><path class="cls-11" d="M354.24,258.6h0a0,0,0,0,1,0,0v21.86a35,35,0,0,1-35,35h0a0,0,0,0,1,0,0V293.6A35,35,0,0,1,354.24,258.6Z" transform="translate(772.16 365.68) rotate(149.79)"/><path class="cls-12" d="M335.92,320.41,334.49,318a35,35,0,0,0,2.14-38.48L327.06,263a34.7,34.7,0,0,1,10.5-9.38l11,18.89A35,35,0,0,1,335.92,320.41Z"/><circle class="cls-13" cx="98.2" cy="174.69" r="7.11"/><circle class="cls-13" cx="126.63" cy="133.82" r="7.11"/><circle class="cls-13" cx="216.07" cy="66.27" r="7.11"/><circle class="cls-13" cx="307.52" cy="73.37" r="7.11"/><circle class="cls-13" cx="103.21" cy="275.5" r="7.11"/><circle class="cls-13" cx="208.97" cy="364.34" r="7.11"/><circle class="cls-13" cx="103.21" cy="201.69" r="5.02"/><circle class="cls-13" cx="98.2" cy="253.66" r="5.02"/><circle class="cls-13" cx="133.74" cy="308.73" r="5.02"/><circle class="cls-13" cx="158.73" cy="352.21" r="5.02"/><circle class="cls-13" cx="315.33" cy="362.24" r="5.02"/><circle class="cls-13" cx="267.54" cy="382.73" r="5.02"/><circle class="cls-13" cx="380.01" cy="308.73" r="5.02"/><circle class="cls-13" cx="371.23" cy="327.12" r="5.02"/><circle class="cls-13" cx="412.21" cy="181.8" r="5.02"/><circle class="cls-13" cx="390.05" cy="133.82" r="5.02"/><circle class="cls-13" cx="163.74" cy="83.77" r="5.02"/></g></svg>