<?xml version="1.0" encoding="UTF-8"?>
<!DOCTYPE svg PUBLIC "-//W3C//DTD SVG 1.1//EN" "http://www.w3.org/Graphics/SVG/1.1/DTD/svg11.dtd">
<!-- Creator: CorelDRAW -->
<svg xmlns="http://www.w3.org/2000/svg" xml:space="preserve" width="2048px" height="2048px" style="shape-rendering:geometricPrecision; text-rendering:geometricPrecision; image-rendering:optimizeQuality; fill-rule:evenodd; clip-rule:evenodd"
viewBox="0 0 2048 2048"
 xmlns:xlink="http://www.w3.org/1999/xlink">
 <defs>
  <style type="text/css">
   <![CDATA[
    .fil2 {fill:none}
    .fil10 {fill:#6EA53B}
    .fil11 {fill:#7AB242}
    .fil8 {fill:#7CB342}
    .fil9 {fill:#8BC34A}
    .fil4 {fill:#A14A0E}
    .fil6 {fill:#B3520F}
    .fil3 {fill:#E66400}
    .fil1 {fill:#E6CA75}
    .fil5 {fill:#FF6F00}
    .fil0 {fill:#FFE082}
    .fil7 {fill:#8BC34A;fill-rule:nonzero}
   ]]>
  </style>
   <clipPath id="id0">
    <path d="M1024 -0.0011811c565.541,0 1024,458.461 1024,1024 0,565.541 -458.461,1024 -1024,1024 -565.541,0 -1024,-458.461 -1024,-1024 0,-565.541 458.461,-1024 1024,-1024z"/>
   </clipPath>
 </defs>
 <g id="Layer_x0020_1">
  <metadata id="CorelCorpID_0Corel-Layer"/>
  <path class="fil0" d="M1024 -0.0011811c565.541,0 1024,458.461 1024,1024 0,565.541 -458.461,1024 -1024,1024 -565.541,0 -1024,-458.461 -1024,-1024 0,-565.541 458.461,-1024 1024,-1024z"/>
  <g style="clip-path:url(#id0)">
   <g id="_517158064">
    <g>
     <polygon id="_2603253681" class="fil1" points="1367.4,520.067 2503.28,1655.95 2291.26,1860.82 1155.38,724.939 "/>
     <polygon id="_260325920" class="fil1" points="994.201,823.103 2130.08,1958.98 2028.5,1860.82 892.616,724.939 "/>
     <polygon id="_260326160" class="fil1" points="1489.08,1329.21 2624.96,2465.09 2619.85,2472.93 2614.61,2480.67 2609.25,2488.32 2603.76,2495.88 2598.14,2503.33 2592.4,2510.69 2586.54,2517.95 2580.56,2525.11 2574.47,2532.16 2568.25,2539.11 2561.93,2545.95 2555.48,2552.69 2548.93,2559.31 2542.27,2565.83 2535.49,2572.23 2528.61,2578.52 2521.63,2584.69 2514.53,2590.75 2507.34,2596.68 2500.05,2602.5 2492.65,2608.2 2485.16,2613.77 2477.57,2619.22 2469.88,2624.54 2462.1,2629.74 2454.23,2634.81 2446.27,2639.74 2438.22,2644.55 2430.08,2649.22 2421.85,2653.75 2413.54,2658.15 2405.15,2662.42 1269.27,1526.53 1277.66,1522.27 1285.97,1517.87 1294.2,1513.34 1302.34,1508.67 1310.39,1503.86 1318.35,1498.92 1326.22,1493.86 1334,1488.66 1341.69,1483.34 1349.28,1477.89 1356.77,1472.31 1364.16,1466.62 1371.46,1460.8 1378.65,1454.86 1385.74,1448.81 1392.73,1442.63 1399.61,1436.35 1406.38,1429.94 1413.05,1423.43 1419.6,1416.8 1426.04,1410.07 1432.37,1403.23 1438.58,1396.28 1444.68,1389.23 1450.66,1382.07 1456.52,1374.81 1462.26,1367.45 1467.87,1359.99 1473.37,1352.44 1478.73,1344.79 1483.97,1337.04 "/>
     <polygon id="_260326424" class="fil1" points="1269.27,1526.53 2405.15,2662.42 2405.15,2662.44 1269.27,1526.56 "/>
     <polygon id="_260326496" class="fil1" points="1269.27,1526.56 2405.15,2662.44 2405.15,2695.36 1269.27,1559.47 "/>
     <polygon id="_260326808" class="fil1" points="1269.27,1559.47 2405.15,2695.36 2405.03,2697.86 2404.65,2700.3 2404.05,2702.65 2403.22,2704.9 2402.19,2707.05 2400.96,2709.07 2399.55,2710.96 2397.97,2712.7 2396.23,2714.28 2394.34,2715.69 2392.32,2716.92 2390.17,2717.96 2387.92,2718.78 2385.57,2719.39 2383.13,2719.76 2380.62,2719.88 1244.74,1584 1247.25,1583.87 1249.69,1583.5 1252.04,1582.9 1254.29,1582.07 1256.43,1581.04 1258.46,1579.81 1260.34,1578.4 1262.09,1576.82 1263.67,1575.07 1265.08,1573.19 1266.31,1571.16 1267.34,1569.02 1268.17,1566.77 1268.77,1564.42 1269.14,1561.98 "/>
     <polygon id="_260326832" class="fil1" points="1244.74,1584 2380.62,2719.88 2159.88,2719.88 1024,1584 "/>
     <polygon id="_260326328" class="fil1" points="778.73,1526.53 1914.61,2662.42 1906.22,2658.15 1897.91,2653.75 1889.68,2649.22 1881.54,2644.55 1873.49,2639.74 1865.53,2634.81 1857.66,2629.74 1849.88,2624.54 1842.2,2619.22 1834.6,2613.77 1827.11,2608.2 1819.72,2602.5 1812.42,2596.68 1805.23,2590.75 1798.14,2584.69 662.256,1448.81 669.347,1454.86 676.541,1460.8 683.835,1466.62 691.23,1472.31 698.723,1477.89 706.314,1483.34 713.998,1488.66 721.778,1493.86 729.649,1498.92 737.611,1503.86 745.662,1508.67 753.801,1513.34 762.027,1517.87 770.337,1522.27 "/>
     <polygon id="_260326880" class="fil1" points="803.258,1584 1939.14,2719.88 1936.63,2719.76 1934.2,2719.39 1931.85,2718.78 1929.59,2717.96 1927.45,2716.92 1925.43,2715.69 1923.54,2714.28 787.655,1578.4 789.544,1579.81 791.566,1581.04 793.711,1582.07 795.964,1582.9 798.315,1583.5 800.75,1583.87 "/>
     <polygon id="_260326688" class="fil1" points="1024,1584 2159.88,2719.88 1939.14,2719.88 803.258,1584 "/>
     <polygon id="_260327168" class="fil1" points="892.616,724.939 2028.5,1860.82 1816.49,1655.95 680.605,520.067 "/>
     <polygon id="_260327408" class="fil1" points="680.605,520.067 1816.49,1655.95 1809.82,1649.51 673.938,513.625 "/>
     <polygon id="_260327552" class="fil1" points="1155.38,724.939 2291.26,1860.82 2189.68,1958.98 1053.8,823.103 "/>
     <polygon id="_260327288" class="fil1" points="1376.06,474.72 2511.94,1610.6 2512.84,1611.76 2513.67,1612.95 2514.43,1614.18 2515.13,1615.43 2515.76,1616.71 2516.33,1618.01 2516.83,1619.33 2517.26,1620.67 2517.62,1622.03 2517.92,1623.4 2518.16,1624.78 2518.32,1626.16 2518.42,1627.56 2518.46,1628.95 2518.42,1630.35 2518.32,1631.74 2518.16,1633.12 2517.92,1634.5 2517.62,1635.87 2517.26,1637.23 2516.83,1638.57 2516.33,1639.89 2515.76,1641.19 2515.13,1642.47 2514.43,1643.72 2513.67,1644.95 2512.84,1646.14 2511.94,1647.3 2510.97,1648.42 2509.94,1649.51 1374.06,513.625 1375.09,512.541 1376.06,511.418 1376.95,510.259 1377.79,509.066 1378.55,507.841 1379.25,506.589 1379.88,505.311 1380.45,504.01 1380.94,502.687 1381.38,501.346 1381.74,499.991 1382.04,498.622 1382.27,497.242 1382.44,495.855 1382.54,494.463 1382.57,493.068 1382.54,491.674 1382.44,490.282 1382.27,488.895 1382.04,487.516 1381.74,486.147 1381.38,484.791 1380.94,483.45 1380.45,482.128 1379.88,480.826 1379.25,479.548 1378.55,478.296 1377.79,477.071 1376.95,475.878 "/>
     <polygon id="_260327336" class="fil1" points="1374.06,513.625 2509.94,1649.51 2503.28,1655.95 1367.4,520.067 "/>
     <polygon id="_260327624" class="fil1" points="1570.26,1016.54 2706.14,2152.42 2707.55,2154.31 2708.78,2156.34 2709.81,2158.48 2710.63,2160.73 2711.24,2163.08 2711.61,2165.52 2711.74,2168.03 1575.86,1032.14 1575.73,1029.64 1575.36,1027.2 1574.75,1024.85 1573.93,1022.6 1572.9,1020.45 1571.67,1018.43 "/>
     <polygon id="_260327192" class="fil1" points="1575.86,1032.14 2711.74,2168.03 2711.64,2178.25 2711.37,2188.43 2710.9,2198.56 2710.26,2208.65 2709.44,2218.69 2708.44,2228.67 2707.26,2238.61 2705.9,2248.48 2704.38,2258.31 2702.67,2268.07 2700.8,2277.78 2698.76,2287.42 2696.56,2297 2694.19,2306.52 2691.65,2315.98 2688.95,2325.36 2686.09,2334.68 2683.07,2343.93 2679.89,2353.1 2676.56,2362.2 2673.07,2371.23 2669.43,2380.18 2665.64,2389.05 2661.69,2397.84 2657.6,2406.55 2653.37,2415.17 2648.99,2423.71 2644.46,2432.17 2639.8,2440.53 2634.99,2448.81 2630.04,2457 2624.96,2465.09 1489.08,1329.21 1494.16,1321.11 1499.11,1312.93 1503.91,1304.65 1508.58,1296.29 1513.1,1287.83 1517.49,1279.29 1521.72,1270.66 1525.81,1261.95 1529.75,1253.16 1533.55,1244.29 1537.19,1235.34 1540.68,1226.32 1544.01,1217.22 1547.19,1208.04 1550.21,1198.8 1553.07,1189.48 1555.77,1180.09 1558.3,1170.64 1560.68,1161.12 1562.88,1151.54 1564.92,1141.89 1566.79,1132.19 1568.49,1122.42 1570.02,1112.6 1571.38,1102.72 1572.56,1092.79 1573.56,1082.81 1574.38,1072.77 1575.02,1062.68 1575.49,1052.55 1575.76,1042.37 "/>
    </g>
    <path id="_517157392" class="fil1" d="M1053.8 823.103l178.282 184.513 50.0292 0 105.569 0 163.65 0c13.5449,0 24.5268,10.9831 24.5268,24.528 0,109.299 -31.8461,211.24 -86.7757,297.064 -53.8182,84.0851 -129.845,152.61 -219.81,197.326l0 0.0259843 0 32.9138c0,13.5449 -10.9819,24.528 -24.528,24.528l-220.742 0 -220.742 0c-13.5461,0 -24.528,-10.9831 -24.528,-24.528l0 -32.9138 0 -0.0259843c-89.9646,-44.7154 -165.992,-113.241 -219.81,-197.326 -54.9296,-85.8237 -86.7757,-187.765 -86.7757,-297.064 0,-13.5449 10.9819,-24.528 24.5268,-24.528l319.249 0 178.282 -184.513 -101.584 -98.1639 -212.012 -204.872 -6.66733 -6.44174c-11.3492,-11.3492 -11.3492,-29.7638 0,-41.113 11.3504,-11.3492 29.765,-11.3492 41.1142,0l6.44056 6.66497 204.861 212.023 97.6465 101.06 97.6465 -101.06 204.861 -212.023 6.44056 -6.66497c11.3492,-11.3492 29.7638,-11.3492 41.1142,0 11.3492,11.3492 11.3492,29.7638 0,41.113l-6.66733 6.44174 -212.012 204.872 -101.584 98.1639z"/>
   </g>
  </g>
  <path class="fil2" d="M1024 -0.0011811c565.541,0 1024,458.461 1024,1024 0,565.541 -458.461,1024 -1024,1024 -565.541,0 -1024,-458.461 -1024,-1024 0,-565.541 458.461,-1024 1024,-1024z"/>
  <path class="fil3" d="M673.086 1155.44l659.862 -682.932c11.3492,-11.3492 29.7638,-11.3492 41.1142,0 11.3492,11.3504 11.3492,29.765 0,41.1142l-682.865 659.866c-19.6689,17.837 -35.9209,2.16142 -18.111,-18.0484z"/>
  <polygon class="fil4" points="1121.65,691.201 1326.51,479.178 1367.4,520.067 1155.38,724.939 "/>
  <path class="fil5" d="M1374.91 1155.44l-659.862 -682.932c-11.3492,-11.3492 -29.7638,-11.3492 -41.1142,0 -11.3492,11.3504 -11.3492,29.765 0,41.1142l682.865 659.866c19.6689,17.837 35.9209,2.16142 18.111,-18.0484z"/>
  <polygon class="fil6" points="926.355,691.201 721.492,479.178 680.604,520.067 892.616,724.939 "/>
  <path class="fil7" d="M1575.86 1032.14c0,109.299 -31.8473,211.24 -86.778,297.064 -53.817,84.0851 -129.845,152.61 -219.809,197.325l0 32.941c0,13.5449 -10.9819,24.5268 -24.528,24.5268l-220.742 0 -220.742 0c-13.5461,0 -24.528,-10.9819 -24.528,-24.5268l0 -32.941c-89.9646,-44.7142 -165.992,-113.239 -219.809,-197.325 -54.9308,-85.8237 -86.778,-187.765 -86.778,-297.064 0,-13.5461 10.9819,-24.5268 24.528,-24.5268l1054.66 0c13.5461,0 24.528,10.9807 24.528,24.5268z"/>
  <path class="fil8" d="M1024 1584l0 -494.98 0 -81.4028 -18.7665 0 -508.563 0c-13.5461,0 -24.528,10.9807 -24.528,24.5268 0,109.299 31.8473,211.24 86.778,297.064 53.817,84.0851 129.845,152.61 219.809,197.325l0 32.941c0,13.5449 10.9819,24.5268 24.528,24.5268l220.742 0z"/>
  <path class="fil9" d="M1269.27 1526.53c89.9646,-44.7142 165.992,-113.239 219.809,-197.325 54.9308,-85.8237 86.778,-187.765 86.778,-297.064 0,-13.5461 -10.9819,-24.5268 -24.528,-24.5268l-163.65 0 -105.569 0 -119.363 0 -138.747 0 0 81.4028 0 494.98 220.742 0c13.5461,0 24.528,-10.9819 24.528,-24.5268l0 -32.941z"/>
  <path class="fil10" d="M1024 1584l0 -57.4406 -245.27 0 0 32.9138c0,13.5449 10.9819,24.5268 24.528,24.5268l220.742 0z"/>
  <path class="fil11" d="M1024 1526.56l0 57.4406 220.742 0c13.5461,0 24.528,-10.9819 24.528,-24.5268l0 -32.9138 -245.27 0z"/>
 </g>
</svg>
