<svg xmlns="http://www.w3.org/2000/svg" viewBox="0 0 512 512"><defs><style>.cls-1{fill:#7bb9ec;}.cls-2{fill:#313d74;}.cls-3{fill:#fff;}.cls-4{fill:#cacaca;}.cls-5{fill:#c2c4c4;}.cls-6{fill:#e8ac60;}.cls-7{fill:#cf9959;}.cls-8{fill:#bc8029;}.cls-9{fill:#a46f26;}.cls-10{fill:#d49442;}.cls-11{fill:#a05346;}.cls-12{fill:#904942;}.cls-13{fill:#b56056;}.cls-14{fill:#915f23;}.cls-15{fill:#f0c788;}.cls-16{fill:#d3ad7c;}.cls-17{fill:#db3a46;}.cls-18{fill:#9b3041;}.cls-19{fill:#a52f3c;}</style></defs><title>Food</title><g id="BULINE"><circle class="cls-1" cx="256" cy="256" r="256"/></g><g id="Icons"><path class="cls-2" d="M504.69,317C477.33,428.93,376.36,512,256,512S34.67,428.93,7.31,317Z"/><path class="cls-3" d="M465.75,335.45H410.81a27.2,27.2,0,0,1-27.08-24.59l-4.55-47.37a3.76,3.76,0,0,1,3.74-4.12H493.63a3.77,3.77,0,0,1,3.75,4.12l-4.56,47.37A27.19,27.19,0,0,1,465.75,335.45Z"/><path class="cls-4" d="M443,335.45H410.81a27.19,27.19,0,0,1-27.07-24.6l-4.56-47.36a3.77,3.77,0,0,1,3.74-4.12h32.19a3.76,3.76,0,0,0-3.74,4.12l4.56,47.36A27.18,27.18,0,0,0,443,335.45Z"/><path class="cls-5" d="M408.93,335.45h58.69a0,0,0,0,1,0,0v0a9.57,9.57,0,0,1-9.57,9.57H418.5a9.57,9.57,0,0,1-9.57-9.57v0A0,0,0,0,1,408.93,335.45Z"/><rect class="cls-6" x="22.71" y="73.09" width="347.98" height="208.59"/><rect class="cls-7" x="22.71" y="73.09" width="63.89" height="208.6"/><path class="cls-8" d="M280.91,213.37c-2.21,7-11.25,11.2-14.21,17.44-3.2,6.75-.81,16.41-4.67,22-4.32,6.29-14.19,7.3-19,11.84-5.74,5.38-8.05,15.14-14,17.59-7.16,2.94-14.57-2.9-21.21-5s-16.06-1.53-20.26-8c-3.5-5.42.18-14.75-1.46-22.44-1.38-6.5-8.9-13-8.86-20.6,0-6.79,7.51-13.37,8.75-20.73,1.13-6.81-3.9-15.4-1.7-22.43s11.25-11.2,14.21-17.44c3.2-6.75.81-16.42,4.67-22,4.32-6.28,14.19-7.29,19-11.83,5.74-5.38,8.06-15.14,14-17.59,7.16-2.94,14.57,2.9,21.21,5s16.06,1.53,20.26,8c3.5,5.42-.18,14.75,1.46,22.44,1.38,6.49,8.9,13,8.86,20.6,0,6.79-7.51,13.36-8.75,20.73C278.08,197.75,283.11,206.33,280.91,213.37Z"/><path class="cls-9" d="M214.18,277.61a12.61,12.61,0,0,0,6.77,4.94c-4.43-1.21-8.78-3.9-12.86-5.18-6.65-2.08-16.06-1.53-20.26-8-3.5-5.42.18-14.76-1.46-22.44-1.38-6.5-8.9-13-8.86-20.61,0-6.79,7.52-13.35,8.74-20.72,1.14-6.81-3.9-15.4-1.69-22.44s11.25-11.2,14.2-17.43c3.21-6.75.83-16.42,4.68-22,4.32-6.3,14.2-7.3,19-11.85,5.74-5.37,8.05-15.13,14-17.59,7.17-2.93,14.57,2.9,21.22,5,4.08,1.28,9.2,1.57,13.51,3.1a12.59,12.59,0,0,0-8.37.18c-6,2.46-8.29,12.22-14,17.59-4.84,4.55-14.72,5.55-19,11.85-3.87,5.59-1.48,15.26-4.68,22-3,6.23-12,10.4-14.21,17.43s2.84,15.63,1.7,22.44c-1.23,7.37-8.7,13.93-8.74,20.73,0,7.63,7.48,14.1,8.85,20.6C214.37,262.85,210.69,272.19,214.18,277.61Z"/><circle class="cls-10" cx="257.88" cy="164.87" r="7.48"/><circle class="cls-10" cx="226.66" cy="196.34" r="7.48"/><circle class="cls-10" cx="238.06" cy="245.27" r="7.48"/><circle class="cls-10" cx="258.15" cy="206.23" r="10.38"/><path class="cls-11" d="M361.93,233.1c-3.64,5.93-12.87,7.66-17,12.69-4.47,5.45-4.52,14.84-9.33,19.08-5.4,4.76-14.67,3.42-20.14,6.46-6.49,3.6-10.86,12-16.89,12.88-7.22,1-12.66-6-18.26-9.44s-14.36-5.09-16.7-12c-2-5.76,3.55-13.46,3.82-20.88.23-6.26-5.17-13.91-3.38-20.88,1.59-6.21,9.95-10.51,12.77-17,2.6-6,0-15,3.6-20.92s12.87-7.66,17-12.69c4.48-5.45,4.52-14.84,9.33-19.08,5.4-4.76,14.67-3.42,20.15-6.46,6.48-3.6,10.85-12,16.88-12.88,7.22-1,12.67,6,18.27,9.44s14.35,5.09,16.69,12c2,5.76-3.55,13.46-3.82,20.88-.22,6.26,5.17,13.91,3.38,20.88-1.59,6.21-9.95,10.51-12.77,17C362.93,218.15,365.57,227.16,361.93,233.1Z"/><path class="cls-12" d="M286.1,276.56a11.92,11.92,0,0,0,5.06,6.08c-3.77-2.13-7.14-5.59-10.58-7.69-5.6-3.44-14.35-5.09-16.7-12-1.95-5.77,3.56-13.47,3.82-20.88.24-6.26-5.16-13.91-3.37-20.89,1.59-6.21,9.94-10.5,12.76-17,2.61-6,0-15,3.6-20.92s12.88-7.67,17-12.7c4.48-5.44,4.53-14.83,9.34-19.07,5.39-4.77,14.67-3.42,20.14-6.47,6.49-3.59,10.85-12,16.88-12.87,7.23-1,12.67,6,18.28,9.44,3.43,2.1,8.05,3.54,11.65,5.93a12,12,0,0,0-7.71-1.75c-6,.88-10.39,9.28-16.87,12.88-5.48,3-14.76,1.7-20.15,6.47-4.82,4.22-4.85,13.63-9.34,19.07-4.13,5-13.37,6.76-17,12.69s-1,15-3.6,20.92c-2.81,6.47-11.16,10.76-12.76,17-1.79,7,3.61,14.62,3.37,20.89C289.66,263.1,284.15,270.8,286.1,276.56Z"/><circle class="cls-13" cx="351.99" cy="183.42" r="7.06"/><circle class="cls-13" cx="316.19" cy="205.05" r="7.06"/><circle class="cls-13" cx="315.38" cy="252.45" r="7.06"/><circle class="cls-13" cx="342.74" cy="221.33" r="9.8"/><path class="cls-11" d="M105.2,177.62c3.48,5.65,1,14.26,3.48,20,2.7,6.16,10.68,10.25,12.22,16.17,1.72,6.66-3.42,14-3.19,19.95.27,7.08,5.54,14.42,3.68,19.93-2.22,6.61-10.57,8.2-15.91,11.49s-10.53,10-17.43,9c-5.76-.82-9.94-8.83-16.14-12.26-5.23-2.89-14.08-1.6-19.24-6.13-4.61-4-4.66-13-9-18.2-3.95-4.79-12.77-6.43-16.26-12.09s-1-14.27-3.47-20c-2.71-6.16-10.69-10.25-12.22-16.18-1.73-6.65,3.41-14,3.18-19.94-.27-7.08-5.54-14.42-3.68-19.93,2.23-6.61,10.58-8.21,15.92-11.49s10.52-10,17.43-9c5.75.82,9.93,8.83,16.13,12.26,5.24,2.89,14.08,1.59,19.25,6.13,4.6,4,4.65,13,8.94,18.19C92.9,170.32,101.72,172,105.2,177.62Z"/><path class="cls-12" d="M109.51,261a11.34,11.34,0,0,0,7.35-1.69c-3.43,2.3-7.83,3.67-11.11,5.69-5.35,3.29-10.53,10-17.43,9.05-5.76-.83-9.94-8.84-16.13-12.26-5.24-2.91-14.08-1.61-19.25-6.14-4.6-4-4.65-13-8.94-18.19-4-4.8-12.79-6.44-16.27-12.09s-1-14.28-3.47-20c-2.7-6.17-10.68-10.26-12.22-16.19-1.73-6.65,3.42-14,3.18-19.94-.26-7.08-5.54-14.42-3.68-19.93,2.23-6.61,10.58-8.2,15.92-11.49,3.28-2,6.5-5.34,10.09-7.37a11.43,11.43,0,0,0-4.82,5.81c-1.85,5.51,3.42,12.85,3.68,19.93.24,6-4.91,13.3-3.18,19.95,1.53,5.93,9.52,10,12.22,16.18,2.5,5.68,0,14.3,3.47,20s12.31,7.29,16.27,12.09c4.29,5.19,4.34,14.15,8.94,18.19,5.17,4.53,14,3.24,19.25,6.14C99.58,252.11,103.76,260.12,109.51,261Z"/><circle class="cls-13" cx="58.61" cy="164.65" r="6.74"/><circle class="cls-13" cx="61.58" cy="204.47" r="6.74"/><circle class="cls-13" cx="101.6" cy="225.61" r="6.74"/><circle class="cls-13" cx="86.9" cy="188.88" r="9.36"/><path class="cls-9" d="M198.29,197.64c1.53,6.83-3.93,14.54-3.4,21.07.58,7.07,7.12,13.88,6.61,20.32-.57,7.22-8.21,12.73-10,18.77-2.17,7.14.56,16.26-3.19,21.11-4.49,5.82-13.35,4.53-19.8,6s-13.93,6.37-20.47,3c-5.45-2.8-6.86-12.21-11.85-17.76-4.22-4.68-13.48-6.43-17.06-12.72-3.2-5.61-.17-14.56-2.65-21.2-2.3-6.13-10.51-10.8-12-17.64s3.93-14.54,3.4-21.07c-.57-7.07-7.12-13.88-6.61-20.32.58-7.22,8.21-12.73,10-18.77,2.16-7.14-.56-16.26,3.18-21.11,4.49-5.82,13.36-4.53,19.81-6s13.93-6.37,20.47-3c5.45,2.8,6.85,12.21,11.85,17.76,4.22,4.68,13.47,6.43,17.06,12.72,3.19,5.61.16,14.56,2.65,21.2C188.55,186.13,196.77,190.8,198.29,197.64Z"/><path class="cls-14" d="M173.93,282.11a11.93,11.93,0,0,0,7.9.85c-4.21,1.11-9.06,1-13,1.85-6.46,1.44-13.93,6.36-20.47,3-5.45-2.8-6.86-12.22-11.86-17.76-4.21-4.69-13.46-6.44-17-12.73-3.19-5.6-.16-14.55-2.66-21.19-2.29-6.14-10.51-10.81-12-17.64s3.94-14.55,3.41-21.07c-.57-7.07-7.11-13.89-6.6-20.32.56-7.22,8.2-12.74,10-18.77,2.17-7.14-.56-16.27,3.18-21.11,4.5-5.82,13.35-4.54,19.81-6,4-.88,8.3-3.07,12.57-3.86a11.94,11.94,0,0,0-6.79,4.13c-3.74,4.85-1,14-3.18,21.11-1.82,6-9.47,11.55-10,18.77-.52,6.43,6,13.25,6.6,20.32.54,6.52-4.93,14.24-3.4,21.07s9.75,11.5,12,17.65c2.49,6.64-.54,15.58,2.65,21.18,3.59,6.3,12.84,8,17.06,12.74C167.07,269.89,168.48,279.31,173.93,282.11Z"/><circle class="cls-10" cx="156.35" cy="168.7" r="7.1"/><circle class="cls-10" cx="145.62" cy="209.38" r="7.1"/><circle class="cls-10" cx="178.21" cy="244.2" r="7.1"/><circle class="cls-10" cx="176.2" cy="202.56" r="9.86"/><path class="cls-15" d="M370.69,228.48v97.86A18.68,18.68,0,0,1,352,345H41.39a18.68,18.68,0,0,1-18.68-18.68V228.48H148.52a9.33,9.33,0,0,1,9.33,9.33v19.78a12.2,12.2,0,0,0,12.22,12.2h53.28a12.2,12.2,0,0,0,12.2-12.2V237.81a9.33,9.33,0,0,1,9.33-9.33Z"/><path class="cls-16" d="M105.29,345H41.39a18.68,18.68,0,0,1-18.68-18.68V228.48h63.9v97.86A18.68,18.68,0,0,0,105.29,345Z"/><path class="cls-15" d="M358.27,53.67H35.13A12.42,12.42,0,0,0,22.71,66.09V76.55a25.82,25.82,0,0,0,25.82,25.82H149.24v3.31a18,18,0,0,0,18,18h52.86a18,18,0,0,0,18-18v-3.31H344.87a25.82,25.82,0,0,0,25.82-25.82V66.09A12.42,12.42,0,0,0,358.27,53.67Z"/><path class="cls-16" d="M122.82,102.37H48.53A25.82,25.82,0,0,1,22.71,76.54V66.09A12.42,12.42,0,0,1,35.12,53.67h74.29A12.42,12.42,0,0,0,97,66.09V76.54A25.83,25.83,0,0,0,122.82,102.37Z"/><path class="cls-17" d="M370.69,289v37.37A18.68,18.68,0,0,1,352,345H41.39a18.68,18.68,0,0,1-18.68-18.68V289Z"/><path class="cls-18" d="M105.29,345H41.4a18.68,18.68,0,0,1-18.68-18.68V289H86.61v37.37A18.68,18.68,0,0,0,105.29,345Z"/><path class="cls-17" d="M486.12,258.28V254a18.65,18.65,0,0,0-18.66-18.66h.16v-1a16.88,16.88,0,0,0-16.69-16.89A25.28,25.28,0,0,0,447.18,194h0a2.93,2.93,0,0,0-4.1-.58L434.39,200a25.3,25.3,0,0,0-9.93,17.42,16.88,16.88,0,0,0-16.25,16.87v1A18.65,18.65,0,0,0,389.55,254v5.4s4,13.49,15.54,19.14a17.07,17.07,0,0,0,15.29-.22,14.77,14.77,0,0,1,6.46-1.65,13.92,13.92,0,0,1,13.06,9.26,31.41,31.41,0,0,0,5.17,9.27c6.1,7.09,17.76,2.87,18.22-6.46.37-7.38,1.95-17.21,7.92-15.53C471.21,273.18,489.09,273.78,486.12,258.28Z"/><path class="cls-19" d="M447.18,194a2.91,2.91,0,0,0-2.34-1.18,2.94,2.94,0,0,0-1.75.6L434.38,200a25.28,25.28,0,0,0-9.92,17.41,16.88,16.88,0,0,0-16.25,16.87v1A18.67,18.67,0,0,0,389.55,254v5a2.4,2.4,0,0,0,.13.8c.77,2.28,5.05,13.67,15.41,18.74a17.07,17.07,0,0,0,15.29-.22,14.76,14.76,0,0,1,6.45-1.65,13.47,13.47,0,0,1,2.3.17c-9.34-6.42-16.31-17.74-16.31-17.74h-.08V254a18.67,18.67,0,0,1,18.66-18.66v-1a16.88,16.88,0,0,1,16.25-16.87A25.24,25.24,0,0,1,452,205.78,25.3,25.3,0,0,0,447.18,194Z"/><path class="cls-8" d="M357.59,401.85c-4.28,3.15-12.14.61-18.38,2.35-4.9,1.38-9.51,7.12-15.19,8.18a9,9,0,0,1-1.27.16c-5.58.32-11.37-5.48-17.48-6.11-5.66-.59-12.45,4-18.34,2.54s-9.79-8.66-15.07-10.77c-5.71-2.28-13.53.18-18.33-2.7-5.38-3.23-6.73-11.29-10.71-15-4.71-4.43-12.85-5.83-15.17-10.62a10.41,10.41,0,0,1-.58-6.93c.1-.47.21-.94.35-1.41.91-3.2,2.49-6.39,3.23-9.35a1.33,1.33,0,0,1,0-.19l0-.09,0-.15c.74-3.35.75-7.41,1.76-10.9l.05-.14a10.23,10.23,0,0,1,3.64-5.59c4.28-3.15,12.14-.61,18.38-2.35,5.26-1.47,10.19-8,16.46-8.34,5.58-.32,11.37,5.48,17.49,6.11,5.65.59,12.44-4,18.34-2.54s9.78,8.66,15.06,10.77c2.57,1,5.57,1.1,8.52,1.11,3.61,0,7.17,0,9.81,1.59,5.39,3.24,6.73,11.29,10.7,15,4.73,4.43,12.87,5.84,15.18,10.62a10.25,10.25,0,0,1,.64,6.65l-.12.56a1.42,1.42,0,0,1-.05.22c-.75,3.12-2.29,6.26-3.18,9.2-.1.33-.19.65-.26,1l-.06.24c-.69,2.93-.78,6.43-1.45,9.65-.08.36-.17.73-.26,1.09A10.62,10.62,0,0,1,357.59,401.85Z"/><path class="cls-9" d="M357.66,401.56c-4.28,3.15-12.14.62-18.37,2.36-5.06,1.41-9.8,7.46-15.72,8.26l-.75.07c-5.59.32-11.36-5.47-17.48-6.11-5.66-.58-12.46,4-18.35,2.56s-9.78-8.68-15.06-10.77c-5.71-2.29-13.53.16-18.33-2.72-5.39-3.22-6.72-11.29-10.72-15-4.7-4.44-12.84-5.84-15.17-10.62a10.31,10.31,0,0,1-.64-6.65c.1-.47.21-.94.35-1.41.88-3.26,2.51-6.52,3.28-9.54l0-.09,0-.15c.79-3.32.79-7.38,1.76-10.9l.06-.21s0,.05,0,.07a10.29,10.29,0,0,0,.59,6.8c2.32,4.78,10.46,6.18,15.17,10.62,4,3.74,5.33,11.81,10.72,15,4.8,2.89,12.63.42,18.33,2.71,5.27,2.1,9.16,9.32,15.06,10.77s12.69-3.14,18.34-2.55c3.5.35,6.88,2.4,10.19,4,2.47,1.23,4.9,2.21,7.29,2.08,6.28-.35,11.21-6.86,16.48-8.33,6.23-1.74,14.09.79,18.37-2.36a10.36,10.36,0,0,0,3.68-5.73l0-.08c0,.21-.09.43-.15.64a1.42,1.42,0,0,1-.05.22c-.8,3.13-2.34,6.26-3.18,9.2-.08.25-.15.52-.22.77,0,.06,0,.13,0,.19l-.06.24c-.66,3-.74,6.47-1.45,9.65-.08.36-.17.73-.26,1.09A10.59,10.59,0,0,1,357.66,401.56Z"/><circle class="cls-10" cx="268.21" cy="349.39" r="6.16"/><circle class="cls-10" cx="295.68" cy="373.42" r="6.16"/><circle class="cls-10" cx="335.29" cy="361.53" r="6.16"/><circle class="cls-10" cx="302.17" cy="347.03" r="8.55"/><path class="cls-17" d="M357.59,401.85c-4.28,3.15-12.14.61-18.38,2.35-4.9,1.38-9.51,7.12-15.19,8.18l-.45-.2c-15.21-7.18-4.23-22.09-4.23-22.09.59-.66,1.12-1.33,1.62-2,6.53-8.78,5.37-16.91,3.22-22.21a20.14,20.14,0,0,1,.5-16.34,57.84,57.84,0,0,1,5.77-9.69c3.61,0,7.17,0,9.81,1.59,5.39,3.24,6.73,11.29,10.7,15,4.73,4.43,12.87,5.84,15.18,10.62a10.25,10.25,0,0,1,.64,6.65l0-.08c0,.21-.09.43-.15.64a1.42,1.42,0,0,1-.05.22c-.75,3.12-2.29,6.26-3.18,9.2-.1.33-.19.65-.26,1l-.06.24c-.66,3-.74,6.47-1.45,9.65-.08.36-.17.73-.26,1.09A10.62,10.62,0,0,1,357.59,401.85Z"/><path class="cls-17" d="M391.9,426.29a4.17,4.17,0,0,1-1.17-6.1,4.08,4.08,0,0,0,.81-2.36c0-5.52-13.11-10-29.3-10s-29.3,4.48-29.3,10c0,4.39,8.3,8.12,19.83,9.47a3.17,3.17,0,0,1,2.7,3.69,4.38,4.38,0,0,0,0,.51c0,4.83,9.06,8.75,20.23,8.75s20.23-3.92,20.23-8.75C395.89,429.55,394.41,427.74,391.9,426.29Z"/></g></svg>