<?xml version="1.0" encoding="iso-8859-1"?>
<!-- Generator: Adobe Illustrator 22.0.1, SVG Export Plug-In . SVG Version: 6.00 Build 0)  -->
<svg version="1.1" id="Icons" xmlns="http://www.w3.org/2000/svg" xmlns:xlink="http://www.w3.org/1999/xlink" x="0px" y="0px"
	 viewBox="0 0 512 512" style="enable-background:new 0 0 512 512;" xml:space="preserve">
<g>
	<path id="XMLID_337_" style="fill:#EEA8C6;" d="M512,255.904c0,70.692-28.654,134.692-74.981,181.019S326.692,511.904,256,511.904
		S121.308,483.25,74.981,436.924S0,326.597,0,255.904S28.654,121.212,74.981,74.885S185.308-0.096,256-0.096
		s134.692,28.654,181.019,74.981S512,185.212,512,255.904z"/>
	<g id="XMLID_338_">
		<path id="XMLID_906_" style="fill:#FB4755;" d="M476.82,385.484c-22.24,37.82-53.92,69.425-91.802,91.575
			c-37.883,22.15-81.968,34.845-129.018,34.845c-21.13,0-41.66-2.56-61.299-7.388c-19.639-4.827-38.386-11.922-55.951-20.992
			c-7.23-3.73-14.257-7.793-21.064-12.169s-13.391-9.066-19.736-14.051c-6.47-5.085-12.687-10.475-18.631-16.147
			c-5.944-5.672-11.614-11.627-16.989-17.842c-2.9-3.345-5.713-6.768-8.435-10.264S48.54,405.984,46,402.344
			c-1.91-2.735-3.768-5.508-5.571-8.318s-3.554-5.658-5.249-8.543H256H476.82z"/>
		<g id="XMLID_340_">
			<g id="XMLID_518_">
				<path id="XMLID_523_" style="fill:#E5750F;" d="M109.671,46.12c0.612,1.242,0.944,2.553,1.021,3.857
					c0.076,1.304-0.102,2.6-0.511,3.815c-0.413,1.217-1.059,2.353-1.913,3.339c-0.854,0.986-1.916,1.821-3.164,2.435L79.511,72.182
					L53.918,84.798c-2.485,1.225-5.23,1.327-7.661,0.5c-2.431-0.827-4.547-2.582-5.775-5.071c-0.612-1.242-0.945-2.549-1.022-3.85
					s0.103-2.595,0.517-3.812c0.416-1.212,1.061-2.348,1.913-3.334c0.852-0.986,1.911-1.822,3.153-2.435L70.637,54.18L96.23,41.564
					c2.49-1.227,5.237-1.331,7.669-0.506C106.33,41.883,108.446,43.635,109.671,46.12z"/>
				<path id="XMLID_522_" style="fill:#FC840A;" d="M109.671,46.12c0.612,1.242,0.944,2.553,1.021,3.857
					c0.076,1.304-0.102,2.6-0.511,3.815c-0.413,1.217-1.059,2.353-1.913,3.339c-0.854,0.986-1.916,1.821-3.164,2.435l-13.15,6.483
					l-13.15,6.483c-2.49,1.227-5.237,1.33-7.669,0.505c-2.432-0.826-4.549-2.581-5.776-5.071c-0.612-1.242-0.943-2.55-1.018-3.852
					c-0.075-1.301,0.105-2.595,0.513-3.81c0.416-1.212,1.061-2.348,1.914-3.335c0.853-0.987,1.915-1.824,3.162-2.439l13.15-6.483
					l13.15-6.483c2.49-1.227,5.237-1.331,7.669-0.506C106.33,41.883,108.446,43.635,109.671,46.12z"/>
				<polygon id="XMLID_521_" style="fill:#D6D6D6;" points="201.491,236.668 152.041,148.737 102.59,60.805 105.276,65.585 
					107.962,70.364 154.726,153.516 				"/>
				<polygon id="XMLID_520_" style="fill:#FFFFFF;" points="107.962,70.364 93.996,77.249 80.031,84.133 117.505,171.865 
					154.979,259.597 178.235,248.133 201.491,236.668 154.726,153.516 				"/>
				<polygon id="XMLID_519_" style="fill:#D6D6D6;" points="102.59,60.805 89.155,67.428 75.72,74.051 74.615,74.595 73.51,75.14 
					64.971,79.35 56.432,83.559 96.061,176.332 135.691,269.105 145.335,264.351 154.979,259.597 117.505,171.865 80.031,84.133 
					93.996,77.249 107.962,70.364 105.276,65.585 				"/>
			</g>
			<g id="XMLID_512_">
				<path id="XMLID_517_" style="fill:#7BA824;" d="M143.608,219.653c5.507,8.969,8.669,18.39,9.494,26.903
					s-0.686,16.118-4.526,21.456c-0.722,1.012-1.528,1.941-2.416,2.779c-0.888,0.837-1.859,1.583-2.911,2.229
					c-6.643,4.079-15.309,3.453-23.95-0.857c-8.642-4.31-17.259-12.306-23.805-22.966c-5.222-8.505-7.221-20.35-7.736-31.514
					s0.452-21.648,1.162-27.429c0.15-1.218,0.844-2.208,1.79-2.789c0.946-0.581,2.143-0.753,3.297-0.335
					c0.876,0.319,1.861,0.685,2.938,1.097s2.248,0.87,3.494,1.372c6.539,2.662,15.138,6.603,23.198,11.665
					S139.221,212.507,143.608,219.653z"/>
				<path id="XMLID_515_" style="fill:#89C527;" d="M143.608,219.653c5.507,8.969,8.669,18.39,9.494,26.903
					s-0.686,16.118-4.526,21.456c-6.493,1.006-13.957-1.087-21.175-5.675s-14.189-11.669-19.696-20.639
					c-4.388-7.145-6.498-16.651-7.365-26.13s-0.489-18.931,0.1-25.97c6.539,2.662,15.138,6.603,23.198,11.665
					S139.221,212.507,143.608,219.653z"/>
			</g>
			<g id="XMLID_509_">
				<path id="XMLID_511_" style="fill:#7BA824;" d="M315.371,246.545c-5.058,11.553-12.165,21.108-19.977,27.742
					c-7.812,6.634-16.329,10.349-24.207,10.222c-1.49-0.018-2.955-0.175-4.386-0.477s-2.829-0.746-4.185-1.34
					c-8.557-3.746-13.868-12.701-15.538-24.152c-1.669-11.451,0.303-25.399,6.316-39.131c4.796-10.955,15.084-21.024,25.717-29.167
					c10.632-8.143,21.609-14.362,27.783-17.617c1.301-0.686,2.75-0.68,3.969-0.146c1.218,0.533,2.206,1.594,2.585,3.015
					c0.286,1.08,0.599,2.3,0.93,3.642c0.331,1.342,0.681,2.807,1.04,4.377c1.854,8.255,3.857,19.411,4.389,30.804
					S319.401,237.34,315.371,246.545z"/>
				<path id="XMLID_510_" style="fill:#89C527;" d="M315.371,246.545c-5.058,11.553-12.165,21.108-19.977,27.742
					c-7.812,6.634-16.329,10.349-24.207,10.222c-5.431-5.701-8.476-14.477-8.899-24.717c-0.422-10.24,1.777-21.942,6.836-33.496
					c4.03-9.204,11.939-17.783,20.673-25.119s18.292-13.43,25.621-17.665c1.854,8.255,3.857,19.411,4.389,30.804
					S319.401,237.34,315.371,246.545z"/>
			</g>
			<path id="XMLID_508_" style="fill:#088E5D;" d="M216.541,236.416c-1.459,7.855-4.468,14.772-8.333,19.989
				c-3.865,5.217-8.585,8.733-13.463,9.789c-0.922,0.203-1.848,0.317-2.774,0.337c-0.926,0.02-1.853-0.054-2.774-0.225
				c-5.818-1.08-10.383-5.84-13.06-12.665c-2.677-6.824-3.467-15.713-1.733-25.049c1.383-7.448,6.282-15.14,11.67-21.693
				c5.388-6.553,11.265-11.969,14.606-14.865c0.704-0.61,1.599-0.815,2.427-0.661c0.828,0.154,1.59,0.666,2.028,1.488
				c0.332,0.625,0.7,1.333,1.098,2.113c0.398,0.78,0.824,1.633,1.271,2.55c2.331,4.826,5.172,11.42,7.139,18.372
				S217.703,230.158,216.541,236.416z"/>
			<path id="XMLID_507_" style="fill:#0FA46E;" d="M216.541,236.416c-1.459,7.855-4.468,14.772-8.333,19.989
				c-3.865,5.217-8.585,8.733-13.463,9.789c-4.171-2.736-7.312-7.712-9.045-13.968c-1.734-6.256-2.06-13.792-0.601-21.648
				c1.162-6.258,4.807-12.688,9.14-18.47c4.333-5.782,9.353-10.917,13.265-14.583c2.331,4.826,5.172,11.42,7.139,18.372
				S217.703,230.158,216.541,236.416z"/>
			<g id="XMLID_440_">
				<g id="XMLID_444_">
					<path id="XMLID_506_" style="fill:#1F3D5C;" d="M415.958,272.011v11.75v11.75c0,37.955-13.175,72.832-35.2,100.309
						c-22.025,27.476-52.9,47.551-88.3,55.901c-5.94,1.405-12.008,2.478-18.181,3.199c-6.174,0.721-12.454,1.091-18.819,1.091
						c-44.32,0-84.445-17.965-113.49-47.01c-29.045-29.045-47.01-69.17-47.01-113.49v-11.75v-11.75h160.5H415.958z"/>
					<path id="XMLID_505_" style="fill:#214A66;" d="M415.958,272.011v11.75v11.75c0,0.26,0,0.52-0.003,0.78s-0.008,0.52-0.018,0.78
						c-0.35,37.61-13.642,72.125-35.636,99.311s-52.689,47.044-87.844,55.339c-35.155-8.295-65.85-28.152-87.844-55.339
						s-35.286-61.701-35.636-99.311c-0.01-0.26-0.015-0.52-0.018-0.78s-0.003-0.52-0.003-0.78v-11.75v-11.75h123.5H415.958z"/>
					<path id="XMLID_504_" style="fill:#1F3D5C;" d="M431.958,258.511c0,1.865-0.378,3.64-1.06,5.255
						c-0.682,1.615-1.67,3.07-2.89,4.295c-1.22,1.22-2.675,2.207-4.291,2.89c-1.616,0.683-3.394,1.06-5.259,1.06h-163h-163
						c-3.73,0-7.105-1.51-9.548-3.953s-3.952-5.818-3.952-9.547c0-1.865,0.378-3.64,1.06-5.255c0.683-1.615,1.67-3.07,2.89-4.295
						c1.22-1.22,2.675-2.208,4.291-2.89c1.616-0.683,3.394-1.06,5.259-1.06h163h163c3.73,0,7.105,1.51,9.547,3.952
						C430.448,251.406,431.958,254.781,431.958,258.511z"/>
					<path id="XMLID_476_" style="fill:#245073;" d="M431.958,258.511c0,1.865-0.378,3.64-1.06,5.255
						c-0.682,1.615-1.67,3.07-2.89,4.295c-1.22,1.22-2.675,2.207-4.291,2.89c-1.616,0.683-3.394,1.06-5.259,1.06h-118h-118
						c-3.73,0-7.105-1.51-9.548-3.953c-2.443-2.443-3.952-5.818-3.952-9.547c0-1.865,0.378-3.64,1.06-5.255
						c0.682-1.615,1.67-3.07,2.89-4.295c1.22-1.22,2.675-2.208,4.291-2.89c1.616-0.683,3.394-1.06,5.259-1.06h118h118
						c3.73,0,7.105,1.51,9.547,3.952C430.448,251.406,431.958,254.781,431.958,258.511z"/>
					<path id="XMLID_475_" style="fill:#1F3D5C;" d="M415.958,272.011v11.75v11.75c0,0.26,0,0.52-0.003,0.78s-0.008,0.52-0.018,0.78
						H284.323H152.708v-12.53v-12.53h131.625H415.958z"/>
				</g>
				<path id="XMLID_443_" style="fill:#1F3D5C;" d="M330.62,436.841v6.135v6.135c0,2.735-1.108,5.21-2.897,7.001
					c-1.79,1.791-4.263,2.899-6.993,2.899h-65.27h-65.27c-2.735,0-5.21-1.108-7.001-2.899c-1.791-1.791-2.899-4.266-2.899-7.001
					v-6.135v-6.135h75.165H330.62z"/>
				<path id="XMLID_441_" style="fill:#245073;" d="M330.62,436.841v6.135v6.135c0,2.735-1.108,5.21-2.897,7.001
					c-1.79,1.791-4.263,2.899-6.993,2.899h-40.405H239.92c-2.735,0-5.21-1.108-7.001-2.899c-1.791-1.791-2.899-4.266-2.899-7.001
					v-6.135v-6.135h50.3H330.62z"/>
			</g>
			<path id="XMLID_439_" style="fill:#088E5D;" d="M303.55,78.839c0,12.592-2.674,24.177-7.162,33.373
				c-4.488,9.196-10.79,16.004-18.047,19.043c-1.37,0.58-2.773,1.023-4.202,1.321c-1.43,0.298-2.886,0.45-4.364,0.45
				c-9.326,0-17.77-6.063-23.882-15.868C239.781,107.353,236,93.806,236,78.839c0-11.94,5.378-25.268,11.842-36.974
				c6.464-11.705,14.013-21.788,18.356-27.238c0.915-1.149,2.243-1.723,3.571-1.723s2.656,0.574,3.571,1.723
				c0.694,0.873,1.469,1.863,2.309,2.958s1.747,2.294,2.704,3.586c5.001,6.808,11.3,16.209,16.349,26.415
				S303.55,68.807,303.55,78.839z"/>
			<path id="XMLID_352_" style="fill:#0FA46E;" d="M303.55,78.839c0,12.592-2.674,24.177-7.162,33.373
				c-4.488,9.196-10.79,16.004-18.047,19.043c-7.25-3.039-13.549-9.847-18.036-19.043c-4.487-9.196-7.161-20.78-7.161-33.373
				c0-10.032,3.799-21.045,8.849-31.252c5.05-10.207,11.353-19.608,16.36-26.415c5.001,6.808,11.3,16.209,16.349,26.415
				S303.55,68.807,303.55,78.839z"/>
			<polyline id="XMLID_351_" style="fill:none;stroke:#17B872;stroke-width:8;stroke-linecap:round;stroke-miterlimit:10;" points="
				269.775,96.139 269.775,124.006 269.775,151.873 			"/>
			<path id="XMLID_350_" style="fill:#7BA824;" d="M415.99,178.184c-8.512,8.512-18.15,14.535-27.399,17.717
				c-9.25,3.182-18.111,3.524-25.07,0.673c-1.318-0.534-2.566-1.183-3.733-1.948c-1.168-0.765-2.255-1.647-3.254-2.646
				c-6.304-6.304-7.913-16.11-5.417-26.869c2.496-10.759,9.097-22.471,19.214-32.588c8.071-8.071,20.715-13.445,32.997-16.988
				c12.281-3.543,24.2-5.256,30.819-6.004c1.395-0.158,2.681,0.352,3.579,1.249c0.898,0.898,1.407,2.184,1.25,3.579
				c-0.121,1.059-0.267,2.252-0.439,3.56c-0.172,1.308-0.37,2.731-0.596,4.252c-1.221,7.982-3.318,18.594-6.804,28.907
				C427.648,161.391,422.772,171.403,415.99,178.184z"/>
			<path id="XMLID_348_" style="fill:#89C527;" d="M415.99,178.184c-8.512,8.512-18.15,14.535-27.399,17.717
				c-9.25,3.182-18.111,3.524-25.07,0.673c-2.847-6.955-2.503-15.814,0.68-25.063c3.183-9.249,9.206-18.887,17.718-27.398
				c6.781-6.781,16.793-11.658,27.106-15.143c10.313-3.486,20.928-5.58,28.914-6.797c-1.221,7.982-3.318,18.594-6.804,28.907
				C427.648,161.391,422.772,171.403,415.99,178.184z"/>
			<polyline id="XMLID_341_" style="fill:none;stroke:#BEF061;stroke-width:8;stroke-linecap:round;stroke-miterlimit:10;" points="
				381.466,167.048 362.63,185.885 343.793,204.721 			"/>
		</g>
	</g>
</g>
</svg>
