<svg xmlns="http://www.w3.org/2000/svg" viewBox="0 0 512 512"><defs><style>.cls-1{fill:#27273d;}.cls-2{fill:#9e4830;}.cls-3{fill:#db1b1b;}.cls-4{fill:#fff;}.cls-5{fill:#e5e3e3;}.cls-6{fill:#c61a1a;}.cls-7{fill:#f55b4b;}.cls-8{fill:#f6d372;}.cls-9{fill:#f6c752;}.cls-10{fill:#f7bb38;}.cls-11{fill:#3586cb;}.cls-12{fill:#41c0e3;}.cls-13{fill:#366fca;}.cls-14{fill:#4e9dd8;}</style></defs><title>Cinema</title><g id="BULINE"><circle class="cls-1" cx="256" cy="256" r="256"/></g><g id="Icons"><path class="cls-2" d="M483.66,373.17a256.08,256.08,0,0,1-455.32,0Z"/><path class="cls-3" d="M431.84,23.46,406.33,274.62l-19.1-1.94L412.74,21.52a3.83,3.83,0,0,1,4.19-3.43l11.49,1.17A3.84,3.84,0,0,1,431.84,23.46Z"/><polygon class="cls-4" points="428.16 59.67 425.81 82.85 407.65 71.62 410 48.44 428.16 59.67"/><polygon class="cls-4" points="424.07 99.91 421.72 123.09 403.56 111.86 405.91 88.68 424.07 99.91"/><polygon class="cls-4" points="419.99 140.16 417.63 163.33 399.47 152.09 401.83 128.92 419.99 140.16"/><polygon class="cls-4" points="415.9 180.4 413.54 203.57 395.38 192.34 397.74 169.16 415.9 180.4"/><polygon class="cls-4" points="411.81 220.63 409.46 243.81 391.3 232.58 393.65 209.4 411.81 220.63"/><path class="cls-4" d="M322.34,146.94H445.9a8.68,8.68,0,0,1,8.68,8.68v10.12a0,0,0,0,1,0,0H313.66a0,0,0,0,1,0,0V155.62A8.68,8.68,0,0,1,322.34,146.94Z"/><rect class="cls-5" x="313.66" y="158.51" width="140.91" height="7.23"/><path class="cls-3" d="M432.16,421.8H336.07a11,11,0,0,1-11-10.3L310,182.83H458.25L443.16,411.5A11,11,0,0,1,432.16,421.8Z"/><path class="cls-6" d="M456.68,206.75H422.84a83,83,0,0,0-82.77,88.42l8.36,126.63H336.07a11,11,0,0,1-11-10.29L310,182.83H458.25Z"/><rect class="cls-4" x="301.7" y="164.95" width="164.84" height="17.88" rx="8.94"/><path class="cls-4" d="M311.05,199s35,85.52,139.51,100.32l-3.36,51S365,352,316.09,289.69Z"/><path class="cls-4" d="M445.33,378.6S375.24,385.39,320,345.43l2.1,27.87S387,402.43,444.22,395.49Z"/><circle class="cls-7" cx="432.95" cy="256.01" r="12.38"/><circle class="cls-7" cx="432.95" cy="230.2" r="8.77"/><path class="cls-8" d="M152.82,326.49l-37.27-53.21a10.21,10.21,0,0,0-16.72,0L61.56,326.49a10.2,10.2,0,0,0,8.36,16.06h74.54A10.21,10.21,0,0,0,152.82,326.49Z"/><path class="cls-9" d="M77.8,326.5a10.2,10.2,0,0,0,8.36,16.05H69.92a10.2,10.2,0,0,1-8.36-16.05l37.27-53.22a10.2,10.2,0,0,1,16.48-.32,3.81,3.81,0,0,0-.24.32Z"/><circle class="cls-10" cx="116.98" cy="295.89" r="7.99"/><circle class="cls-9" cx="90.73" cy="328.76" r="4.77"/><circle class="cls-9" cx="108.99" cy="313.03" r="4.77"/><circle class="cls-10" cx="132.19" cy="328.76" r="9.15"/><path class="cls-8" d="M217.33,310.69l-37.28-53.21a10.19,10.19,0,0,0-16.71,0l-37.27,53.21a10.2,10.2,0,0,0,8.36,16.06H209A10.21,10.21,0,0,0,217.33,310.69Z"/><path class="cls-9" d="M142.31,310.69a10.2,10.2,0,0,0,8.36,16.06H134.43a10.2,10.2,0,0,1-8.36-16.06l37.27-53.22a10.2,10.2,0,0,1,16.48-.31c-.09.1-.16.21-.24.31Z"/><circle class="cls-10" cx="181.49" cy="280.09" r="7.99"/><circle class="cls-9" cx="155.23" cy="312.96" r="4.77"/><circle class="cls-9" cx="173.5" cy="297.23" r="4.77"/><circle class="cls-10" cx="196.7" cy="312.96" r="9.15"/><path class="cls-8" d="M285.27,310.69,248,257.48a10.2,10.2,0,0,0-16.72,0L194,310.69a10.2,10.2,0,0,0,8.36,16.06h74.54A10.2,10.2,0,0,0,285.27,310.69Z"/><path class="cls-9" d="M210.25,310.69a10.21,10.21,0,0,0,8.36,16.06H202.37A10.21,10.21,0,0,1,194,310.69l37.27-53.22a10.2,10.2,0,0,1,16.48-.31l-.24.31Z"/><circle class="cls-10" cx="249.44" cy="280.09" r="7.99"/><circle class="cls-9" cx="223.18" cy="312.96" r="4.77"/><circle class="cls-9" cx="241.44" cy="297.23" r="4.77"/><circle class="cls-10" cx="264.65" cy="312.96" r="9.15"/><path class="cls-8" d="M337.53,326.49l-37.27-53.21a10.21,10.21,0,0,0-16.72,0l-37.27,53.21a10.21,10.21,0,0,0,8.36,16.06h74.54A10.2,10.2,0,0,0,337.53,326.49Z"/><path class="cls-9" d="M262.51,326.5a10.2,10.2,0,0,0,8.36,16.05H254.63a10.2,10.2,0,0,1-8.36-16.05l37.27-53.22A10.2,10.2,0,0,1,300,273l-.24.32Z"/><circle class="cls-10" cx="301.7" cy="295.89" r="7.99"/><circle class="cls-9" cx="275.44" cy="328.76" r="4.77"/><circle class="cls-9" cx="293.71" cy="313.03" r="4.77"/><circle class="cls-10" cx="316.91" cy="328.76" r="9.15"/><path class="cls-11" d="M324.7,421.9H78.13a22,22,0,0,1-21.95-20.7l-2.67-45.83a21.94,21.94,0,0,1,16.82-22.66,565.38,565.38,0,0,1,262.16,0,22,22,0,0,1,16.83,22.66l-2.68,45.83A22,22,0,0,1,324.7,421.9Z"/><ellipse class="cls-12" cx="201.41" cy="369.6" rx="63.35" ry="34.6"/><path class="cls-13" d="M346.27,404.8a22,22,0,0,1-21.57,17.7H78.13a22,22,0,0,1-21.94-20.7L53.5,356A22,22,0,0,1,70.33,333.3c5.56-1.3,11.14-2.53,16.7-3.67a21.87,21.87,0,0,0-1.23,8.64l2.67,45.83a22,22,0,0,0,22,20.7Z"/><circle class="cls-14" cx="326.06" cy="384.99" r="9.97"/><circle class="cls-14" cx="326.06" cy="364.23" r="7.06"/></g></svg>