<svg xmlns="http://www.w3.org/2000/svg" viewBox="0 0 48 48"><defs><style>.cls-1{fill:#dad7e5;}.cls-2{fill:#c6c3d8;}.cls-3{fill:#edebf2;}.cls-4{fill:#ffba55;}.cls-5{fill:#84b749;}.cls-6{fill:#9dcc6b;}.cls-7{fill:#b5e08c;}.cls-8{fill:#919191;}</style></defs><title>Invoice</title><g id="Invoice"><path class="cls-1" d="M45,6V47l-2.59-2.59a2,2,0,0,0-2.82,0L37,47l-2.59-2.59a2,2,0,0,0-2.82,0L29,47l-2.59-2.59a2,2,0,0,0-2.82,0L21,47l-2.59-2.59a2,2,0,0,0-2.82,0L13,47V6A5,5,0,0,0,8,1H40A5,5,0,0,1,45,6Z"/><path class="cls-2" d="M13,6V17l-2,2L8.41,16.41a2,2,0,0,0-2.82,0L3,19V6A5,5,0,1,1,13,6Z"/><path class="cls-1" d="M11,8V19L8.41,16.41a2,2,0,0,0-2.82,0L3,19C3,5.05,2.79,5.1,3.61,3.61A5,5,0,0,1,11,8Z"/><path class="cls-3" d="M45,6V43A32,32,0,0,1,13,11V6A5,5,0,0,0,8,1H40A5,5,0,0,1,45,6Z"/><path class="cls-4" d="M20,11a1,1,0,0,1,0-2h2a1,1,0,0,0,0-2H21V6a1,1,0,0,0-2,0V7.18A3,3,0,0,0,20,13a1,1,0,0,1,0,2H18a1,1,0,0,0,0,2h1v1a1,1,0,0,0,2,0V16.82A3,3,0,0,0,20,11Z"/><rect class="cls-5" x="18" y="22" width="11" height="4"/><rect class="cls-5" x="29" y="22" width="11" height="4"/><rect class="cls-5" x="18" y="26" width="11" height="4"/><rect class="cls-5" x="29" y="26" width="11" height="4"/><rect class="cls-5" x="18" y="30" width="11" height="4"/><rect class="cls-5" x="29" y="30" width="11" height="4"/><path class="cls-6" d="M40,21H18a1,1,0,0,0-1,1V34a1,1,0,0,0,1,1H40a1,1,0,0,0,1-1V22A1,1,0,0,0,40,21ZM19,27h9v2H19Zm11,0h9v2H30Zm9-2H30V23h9ZM19,23h9v2H19Zm0,8h9v2H19Zm20,2H30V31h9Z"/><path class="cls-7" d="M40,21H18a1,1,0,0,0-1,1v4.5A30.76,30.76,0,0,0,20,31h8v2H21.76c.54.57,1,1.07,2.07,2H40a1,1,0,0,0,1-1V22A1,1,0,0,0,40,21ZM28,29H19V27h9Zm0-4H19V23h9Zm11,8H30V31h9Zm0-4H30V27h9Zm0-4H30V23h9Z"/><path class="cls-8" d="M28,9H40a1,1,0,0,0,0-2H28A1,1,0,0,0,28,9Z"/><path class="cls-8" d="M40,11H28a1,1,0,0,0,0,2H40A1,1,0,0,0,40,11Z"/><path class="cls-8" d="M34,15H28a1,1,0,0,0,0,2h6A1,1,0,0,0,34,15Z"/><path class="cls-8" d="M24,37H18a1,1,0,0,0,0,2h6A1,1,0,0,0,24,37Z"/></g></svg>