<svg xmlns="http://www.w3.org/2000/svg" viewBox="0 0 512 512"><defs><style>.cls-1{fill:#66a0d2;}.cls-2{fill:#313d74;}.cls-3{fill:#9f313d;}.cls-4{fill:#8b2f3e;}.cls-5{fill:#f1ce34;}.cls-6{fill:#ccaf2f;}.cls-7{fill:#db3a46;}.cls-8{fill:#a32f3b;}.cls-9{fill:#fff;}.cls-10{fill:#d4d4d4;}.cls-11{fill:#eaac2e;}.cls-12{fill:#be8028;}.cls-13{fill:#75c07d;}.cls-14{fill:#6aa86e;}.cls-15{fill:#71392f;}.cls-16{fill:#60322c;}.cls-17{fill:#efcc34;}.cls-18{fill:#d3b52f;}.cls-19{fill:#eec586;}</style></defs><title>Food</title><g id="BULINE"><circle class="cls-1" cx="256" cy="256" r="256"/></g><g id="Icons"><path class="cls-2" d="M483.62,373.26a256.09,256.09,0,0,1-455.24,0Z"/><path class="cls-3" d="M487.29,201l-2.67,38H273.4l-2.67-38q0-.89.12-1.77a99,99,0,0,1,98.77-92.31h18.77a99,99,0,0,1,98.78,92.31Q487.25,200.08,487.29,201Z"/><path class="cls-4" d="M312.13,199.19c-.05.59-.09,1.18-.11,1.77l2.66,38H273.52l-2.67-38q0-.89.12-1.77a99,99,0,0,1,98.77-92.31h18.77a98.52,98.52,0,0,1,11.2.63A99,99,0,0,0,312.13,199.19Z"/><rect class="cls-5" x="363.81" y="91.45" width="30.42" height="161.61" rx="9.31" transform="translate(-0.98 2.17) rotate(-0.33)"/><path class="cls-6" d="M387.07,252.86a9.6,9.6,0,0,1-1.7.16l-11.82.07a9.3,9.3,0,0,1-9.35-9.25l-.82-143a9.3,9.3,0,0,1,9.25-9.36l11.81-.06a8.77,8.77,0,0,1,1.71.14,9.3,9.3,0,0,0-7.55,9.19l.81,143A9.32,9.32,0,0,0,387.07,252.86Z"/><rect class="cls-5" x="393.76" y="106.92" width="30.42" height="161.61" rx="9.31" transform="translate(-1.07 2.34) rotate(-0.33)"/><path class="cls-6" d="M417,268.32a8.78,8.78,0,0,1-1.71.17l-11.81.07a9.3,9.3,0,0,1-9.35-9.25l-.82-143a9.3,9.3,0,0,1,9.25-9.36l11.81-.07a9.63,9.63,0,0,1,1.71.15,9.31,9.31,0,0,0-7.56,9.19l.82,143A9.3,9.3,0,0,0,417,268.32Z"/><rect class="cls-5" x="423.71" y="84.84" width="30.42" height="161.61" rx="9.31" transform="translate(-0.94 2.51) rotate(-0.33)"/><path class="cls-6" d="M447,246.25a9.62,9.62,0,0,1-1.71.17l-11.81.07a9.31,9.31,0,0,1-9.36-9.25l-.81-143a9.3,9.3,0,0,1,9.24-9.35l11.82-.07a9.79,9.79,0,0,1,1.71.15,9.3,9.3,0,0,0-7.56,9.19l.82,143A9.29,9.29,0,0,0,447,246.25Z"/><rect class="cls-5" x="303.79" y="72.39" width="30.42" height="161.61" rx="9.31" transform="translate(-0.87 1.83) rotate(-0.33)"/><path class="cls-6" d="M327.05,233.8a8.75,8.75,0,0,1-1.7.17l-11.82.07a9.31,9.31,0,0,1-9.35-9.25l-.82-143a9.3,9.3,0,0,1,9.25-9.35l11.81-.07a9.63,9.63,0,0,1,1.71.15,9.29,9.29,0,0,0-7.55,9.19l.81,143A9.31,9.31,0,0,0,327.05,233.8Z"/><rect class="cls-5" x="333.74" y="106.92" width="30.42" height="161.61" rx="9.31" transform="translate(-1.07 2) rotate(-0.33)"/><path class="cls-6" d="M357,268.32a8.78,8.78,0,0,1-1.71.17l-11.81.07a9.29,9.29,0,0,1-9.35-9.25l-.82-143a9.3,9.3,0,0,1,9.25-9.36l11.81-.07a9.63,9.63,0,0,1,1.71.15,9.31,9.31,0,0,0-7.56,9.19l.82,143A9.3,9.3,0,0,0,357,268.32Z"/><rect class="cls-5" x="282.69" y="111.44" width="30.42" height="161.61" rx="9.31" transform="translate(-39.99 84.87) rotate(-15.21)"/><path class="cls-6" d="M326.37,268.08a8.77,8.77,0,0,1-1.6.6l-11.4,3.1A9.3,9.3,0,0,1,302,265.24l-37.51-138A9.29,9.29,0,0,1,271,115.83l11.4-3.1a10,10,0,0,1,1.69-.3,9.31,9.31,0,0,0-4.95,10.82l37.51,138A9.3,9.3,0,0,0,326.37,268.08Z"/><rect class="cls-5" x="448.42" y="111.44" width="30.42" height="161.61" rx="9.31" transform="translate(860.6 499.37) rotate(-164.79)"/><path class="cls-6" d="M435.15,268.08a8.87,8.87,0,0,0,1.61.6l11.4,3.1a9.3,9.3,0,0,0,11.42-6.54l37.5-138a9.29,9.29,0,0,0-6.53-11.41l-11.4-3.1a10,10,0,0,0-1.69-.3,9.3,9.3,0,0,1,4.94,10.82l-37.51,138A9.3,9.3,0,0,1,435.15,268.08Z"/><path class="cls-7" d="M487.41,199.19l-.12,1.77-2.67,38-2.23,31.84L479.29,315l-2.8,39.79a34.16,34.16,0,0,1-34.08,31.79H315.62a34.18,34.18,0,0,1-34.1-31.79L278.73,315l-3.1-44.24-2.23-31.84-2.67-38-.12-1.77h59.21a12.56,12.56,0,0,1,12.56,12.56v5.3A16.62,16.62,0,0,0,359,233.68h40a16.62,16.62,0,0,0,16.62-16.63v-5.3a12.56,12.56,0,0,1,12.56-12.56Z"/><path class="cls-7" d="M311.9,199.19h.23c-.05.59-.09,1.18-.11,1.77Z"/><path class="cls-8" d="M356.9,386.59H315.73a34.18,34.18,0,0,1-34.09-31.79L278.85,315l-3.1-44.24-2.23-31.84-2.67-38-.12-1.77h41.4c-.05.59-.09,1.18-.11,1.77l2.66,38,2.24,31.84L320,315l2.78,39.79A34.18,34.18,0,0,0,356.9,386.59Z"/><path class="cls-9" d="M482.39,270.77,479.29,315H406.06a34.95,34.95,0,0,1-54.1,0H278.73l-3.1-44.24H352a34.93,34.93,0,0,1,54.1,0Z"/><polygon class="cls-10" points="320.02 315.01 278.85 315.01 275.75 270.77 316.92 270.77 320.02 315.01"/><path class="cls-11" d="M54.65,331.13H308.22A13.82,13.82,0,0,1,322,344.95v21.58A20.05,20.05,0,0,1,302,386.58H60.89a20.05,20.05,0,0,1-20.05-20.05V344.95a13.82,13.82,0,0,1,13.82-13.82Z"/><path class="cls-12" d="M135.6,386.59H60.89a20.06,20.06,0,0,1-20.06-20.06V345a13.82,13.82,0,0,1,13.82-13.82h74.71A13.82,13.82,0,0,0,115.54,345v21.58A20.06,20.06,0,0,0,135.6,386.59Z"/><path class="cls-13" d="M293.27,320.81a116.26,116.26,0,0,0-29.58,3.48,69.26,69.26,0,0,0-22.63-3.48c-10.47,0-19.88,1.93-26.37,5-8.5-3.08-20.79-5-34.48-5-15,0-28.24,2.31-36.73,5.9-5.35-3.59-13.72-5.9-23.15-5.9-9.14,0-17.29,2.17-22.66,5.57-8.51-3.4-21.45-5.57-35.95-5.57-25.63,0-46.41,6.78-46.41,15.15s20.78,15.16,46.41,15.16c14.5,0,27.44-2.17,36-5.58,5.37,3.41,13.52,5.58,22.66,5.58,9.43,0,17.8-2.31,23.15-5.9,8.49,3.59,21.78,5.9,36.73,5.9,13.69,0,26-1.93,34.48-5,6.49,3.08,15.9,5,26.37,5a69.26,69.26,0,0,0,22.63-3.48,116.26,116.26,0,0,0,29.58,3.48c25.63,0,46.4-6.78,46.4-15.16S318.9,320.81,293.27,320.81Z"/><path class="cls-14" d="M339.67,336c0,8.37-20.78,15.15-46.4,15.15a116.26,116.26,0,0,1-29.58-3.48,69.26,69.26,0,0,1-22.63,3.48c-10.46,0-19.87-1.93-26.37-5-8.49,3.08-20.79,5-34.48,5-15,0-28.24-2.31-36.73-5.9-5.35,3.59-13.73,5.9-23.15,5.9-9.14,0-17.3-2.17-22.66-5.57-8.5,3.4-21.45,5.57-35.95,5.57-25.63,0-46.41-6.78-46.41-15.15,0-2.42,1.74-4.71,4.82-6.73,7.59,5,23.36,8.43,41.59,8.43,14.5,0,27.45-2.18,36-5.58,5.36,3.4,13.52,5.58,22.66,5.58,9.42,0,17.8-2.31,23.15-5.91,8.49,3.6,21.78,5.91,36.73,5.91,13.69,0,26-1.93,34.48-5,6.5,3.09,15.91,5,26.37,5a69.26,69.26,0,0,0,22.63-3.48,116.26,116.26,0,0,0,29.58,3.48c18.23,0,34-3.44,41.58-8.43C337.94,331.26,339.67,333.55,339.67,336Z"/><rect class="cls-15" x="32.95" y="283.73" width="296.98" height="46.51" rx="18.28"/><path class="cls-16" d="M127.33,330.24H51.23A18.27,18.27,0,0,1,33,312V302a18.27,18.27,0,0,1,18.28-18.28h76.1A18.27,18.27,0,0,0,109.05,302V312A18.27,18.27,0,0,0,127.33,330.24Z"/><circle class="cls-16" cx="198.42" cy="316.14" r="9.15"/><circle class="cls-16" cx="243.95" cy="316.14" r="9.15"/><circle class="cls-16" cx="293.27" cy="313.17" r="12.12"/><rect class="cls-15" x="32.95" y="237.8" width="296.98" height="46.51" rx="18.28"/><path class="cls-16" d="M127.33,284.31H51.23A18.27,18.27,0,0,1,33,266v-9.95A18.27,18.27,0,0,1,51.23,237.8h76.1a18.27,18.27,0,0,0-18.28,18.28V266A18.27,18.27,0,0,0,127.33,284.31Z"/><circle class="cls-16" cx="198.42" cy="270.21" r="9.15"/><circle class="cls-16" cx="243.95" cy="270.21" r="9.15"/><circle class="cls-16" cx="293.27" cy="267.24" r="12.12"/><path class="cls-17" d="M74.63,236H193l-37.21,46.54a9.42,9.42,0,0,1-12.82,1.81Z"/><path class="cls-18" d="M192.38,236l-37.22,46.54a9.42,9.42,0,0,1-12.82,1.81l-8.54-6L167.63,236Z"/><path class="cls-17" d="M152.67,236H287.83l-37,41a9.27,9.27,0,0,1-11,2.1Z"/><path class="cls-18" d="M257.42,269.7,250.8,277a9.27,9.27,0,0,1-11,2.1L152.67,236h36.65Z"/><path class="cls-17" d="M74.63,281.94H193l-37.21,46.54a9.42,9.42,0,0,1-12.82,1.81Z"/><path class="cls-18" d="M192.38,281.94l-37.22,46.54a9.42,9.42,0,0,1-12.82,1.81l-8.54-6,33.83-42.31Z"/><path class="cls-17" d="M152.67,281.94H287.83l-37,41a9.27,9.27,0,0,1-11,2.1Z"/><path class="cls-18" d="M257.42,315.63,250.8,323a9.27,9.27,0,0,1-11,2.1l-87.13-43.11h36.65Z"/><path class="cls-11" d="M128.07,125.93H234.8A87.24,87.24,0,0,1,322,213.17v10.9a12.76,12.76,0,0,1-12.76,12.76H53.6a12.76,12.76,0,0,1-12.76-12.76v-10.9A87.24,87.24,0,0,1,128.07,125.93Z"/><path class="cls-12" d="M114.15,213.17v10.91a12.77,12.77,0,0,0,12.76,12.76H53.6a12.77,12.77,0,0,1-12.77-12.76V213.17a87.25,87.25,0,0,1,87.24-87.24h73.32A87.25,87.25,0,0,0,114.15,213.17Z"/><path class="cls-12" d="M229.23,207.14h0a8.35,8.35,0,0,1,8.35,8.35v21.35a0,0,0,0,1,0,0H220.88a0,0,0,0,1,0,0V215.49A8.35,8.35,0,0,1,229.23,207.14Z"/><path class="cls-12" d="M164.73,207.14h0a8.35,8.35,0,0,1,8.35,8.35v21.35a0,0,0,0,1,0,0H156.38a0,0,0,0,1,0,0V215.49A8.35,8.35,0,0,1,164.73,207.14Z"/><path class="cls-12" d="M284.92,207.14h0a8.35,8.35,0,0,1,8.35,8.35v21.35a0,0,0,0,1,0,0H276.56a0,0,0,0,1,0,0V215.49A8.35,8.35,0,0,1,284.92,207.14Z"/><ellipse class="cls-19" cx="85.93" cy="177.7" rx="6.96" ry="12.61" transform="translate(-110.19 155.42) rotate(-57.71)"/><ellipse class="cls-19" cx="234.8" cy="146.35" rx="6.96" ry="12.61" transform="translate(-14.35 266.67) rotate(-57.71)"/><ellipse class="cls-19" cx="278.88" cy="181.39" rx="12.61" ry="6.96" transform="translate(-23.43 320.26) rotate(-57.71)"/><ellipse class="cls-19" cx="126.22" cy="146.35" rx="12.61" ry="6.96" transform="translate(-59.95 198.23) rotate(-64.8)"/><ellipse class="cls-19" cx="184.68" cy="181.39" rx="12.61" ry="6.96" transform="translate(-58.08 271.25) rotate(-64.8)"/></g></svg>