<?xml version="1.0" encoding="UTF-8"?>
<!DOCTYPE svg PUBLIC "-//W3C//DTD SVG 1.1//EN" "http://www.w3.org/Graphics/SVG/1.1/DTD/svg11.dtd">
<!-- Creator: CorelDRAW -->
<svg xmlns="http://www.w3.org/2000/svg" xml:space="preserve" width="2048px" height="2048px" style="shape-rendering:geometricPrecision; text-rendering:geometricPrecision; image-rendering:optimizeQuality; fill-rule:evenodd; clip-rule:evenodd"
viewBox="0 0 2048 2048"
 xmlns:xlink="http://www.w3.org/1999/xlink">
 <defs>
  <style type="text/css">
   <![CDATA[
    .fil2 {fill:none}
    .fil1 {fill:#78909C}
    .fil0 {fill:#90A4AE}
    .fil7 {fill:#B71C1C}
    .fil6 {fill:#D32F2F}
    .fil3 {fill:#1565C0;fill-rule:nonzero}
    .fil4 {fill:#ECEFF1;fill-rule:nonzero}
    .fil5 {fill:#FFD54F;fill-rule:nonzero}
   ]]>
  </style>
   <clipPath id="id0">
    <path d="M1024 0c565.539,0 1024,458.461 1024,1024 0,565.539 -458.461,1024 -1024,1024 -565.539,0 -1024,-458.461 -1024,-1024 0,-565.539 458.461,-1024 1024,-1024z"/>
   </clipPath>
 </defs>
 <g id="Layer_x0020_1">
  <metadata id="CorelCorpID_0Corel-Layer"/>
  <path class="fil0" d="M1024 0c565.539,0 1024,458.461 1024,1024 0,565.539 -458.461,1024 -1024,1024 -565.539,0 -1024,-458.461 -1024,-1024 0,-565.539 458.461,-1024 1024,-1024z"/>
  <g style="clip-path:url(#id0)">
   <g id="_341191240">
    <g>
     <polygon id="_4558307681" class="fil1" points="1579.25,577.301 2715.13,1713.18 2715.13,1759.86 1579.25,623.973 "/>
     <polygon id="_455830984" class="fil1" points="1579.25,623.973 2715.13,1759.86 2645.04,1759.86 1509.16,623.973 "/>
     <polygon id="_455830792" class="fil1" points="1509.16,623.973 2645.04,1759.86 2594.28,1983.58 1458.39,847.7 "/>
     <polygon id="_455830504" class="fil1" points="1584,847.7 2719.88,1983.58 2714.67,2011.2 1578.79,875.32 "/>
     <polygon id="_455830744" class="fil1" points="851.963,769.517 1987.84,1905.4 1989.6,1907.27 1991.16,1909.3 1992.52,1911.47 1993.67,1913.77 1994.6,1916.17 1995.29,1918.66 1995.74,1921.23 1995.94,1923.87 1995.87,1926.55 1995.52,1929.26 859.64,793.374 859.986,790.665 860.056,787.985 859.86,785.352 859.409,782.78 858.714,780.285 857.786,777.884 856.636,775.59 855.276,773.421 853.714,771.392 "/>
     <polygon id="_455831296" class="fil1" points="773.151,770.431 1909.03,1906.31 1910.69,1908.27 1912.15,1910.37 1913.41,1912.61 1914.45,1914.96 1915.27,1917.42 1915.84,1919.97 1916.16,1922.6 1916.22,1925.28 1916,1928 780.122,792.119 780.338,789.394 780.281,786.713 779.959,784.091 779.385,781.542 778.573,779.082 777.531,776.725 776.273,774.488 774.81,772.385 "/>
     <polygon id="_455831344" class="fil1" points="652.702,769.158 1788.58,1905.04 1790.37,1906.88 1791.99,1908.89 1793.4,1911.06 1794.61,1913.38 1795.59,1915.83 1796.34,1918.4 1796.83,1921.09 660.945,785.212 660.455,782.522 659.711,779.945 658.728,777.493 657.52,775.177 656.104,773.007 654.493,770.998 "/>
     <polygon id="_455831440" class="fil1" points="600.421,891.505 1736.3,2027.39 1741.28,2046.11 605.396,910.228 "/>
     <polygon id="_455831272" class="fil1" points="660.945,785.212 1796.83,1921.09 1822.91,2121.18 687.027,985.294 "/>
     <polygon id="_455831752" class="fil1" points="780.122,792.119 1916,1928 1890.85,2120.98 754.967,985.098 "/>
     <polygon id="_455831776" class="fil1" points="859.64,793.374 1995.52,1929.26 1977.89,2027.39 842.013,891.505 "/>
     <polygon id="_455831536" class="fil1" points="930.243,796.541 2066.12,1932.42 2049.02,2027.39 913.137,891.505 "/>
     <polygon id="_455831368" class="fil1" points="605.396,910.228 1741.28,2046.11 1741.67,2047.55 1742.09,2048.97 1742.53,2050.39 1742.99,2051.81 1743.48,2053.21 1743.99,2054.61 1744.52,2055.99 1745.08,2057.37 1745.66,2058.74 1746.26,2060.1 1746.88,2061.46 1747.52,2062.8 1748.19,2064.13 1748.87,2065.45 1749.58,2066.77 1750.31,2068.07 1751.06,2069.37 1751.83,2070.65 1752.62,2071.92 1753.43,2073.18 1754.26,2074.44 1755.11,2075.68 1755.98,2076.91 1756.87,2078.12 1757.77,2079.33 1758.7,2080.53 1759.65,2081.71 1760.61,2082.88 1761.6,2084.04 1762.6,2085.19 1763.62,2086.32 1764.66,2087.45 628.774,951.563 627.736,950.441 626.717,949.306 625.714,948.159 624.732,946.999 623.767,945.827 622.821,944.644 621.892,943.449 620.984,942.242 620.096,941.024 619.225,939.794 618.376,938.554 617.546,937.302 616.736,936.04 615.945,934.766 615.176,933.484 614.428,932.189 613.699,930.885 612.991,929.572 612.305,928.248 611.641,926.916 610.998,925.573 610.376,924.22 609.776,922.86 609.199,921.49 608.644,920.111 608.111,918.724 607.601,917.327 607.113,915.924 606.649,914.512 606.207,913.091 605.79,911.663 "/>
     <polygon id="_455831656" class="fil1" points="922.567,772.682 2058.45,1908.56 2060.2,1910.44 2061.76,1912.47 2063.12,1914.64 2064.27,1916.93 2065.2,1919.33 2065.89,1921.83 2066.34,1924.4 2066.54,1927.03 2066.47,1929.71 2066.12,1932.42 930.243,796.541 930.589,793.831 930.659,791.151 930.463,788.518 930.011,785.946 929.317,783.452 928.39,781.051 927.239,778.757 925.879,776.587 924.317,774.557 "/>
     <polygon id="_455831176" class="fil1" points="999.278,933.478 2135.16,2069.36 2135.15,2069.8 2135.14,2070.27 2135.12,2070.76 2135.09,2071.27 2135.05,2071.82 2135,2072.38 2134.95,2072.97 2134.88,2073.59 998.998,937.71 999.065,937.092 999.121,936.5 999.168,935.933 999.209,935.391 999.239,934.874 999.261,934.384 999.274,933.917 "/>
     <polygon id="_455832376" class="fil1" points="986.987,905.125 2122.87,2041.01 2124.34,2042.53 2125.74,2044.11 2127.05,2045.75 2128.28,2047.45 2129.42,2049.2 2130.47,2051.01 2131.42,2052.87 2132.27,2054.78 2133.01,2056.74 2133.66,2058.74 2134.19,2060.78 2134.61,2062.87 2134.91,2065 2135.1,2067.16 2135.16,2069.36 999.278,933.478 999.216,931.277 999.031,929.114 998.727,926.988 998.307,924.901 997.775,922.855 997.133,920.853 996.385,918.897 995.534,916.987 994.585,915.128 993.539,913.321 992.401,911.567 991.174,909.869 989.859,908.227 988.463,906.646 "/>
     <polygon id="_455832232" class="fil1" points="998.998,937.71 2134.88,2073.59 2079.78,2565.87 943.894,1429.98 "/>
     <polygon id="_455831944" class="fil1" points="1578.79,875.32 2714.67,2011.2 2613.46,2547.92 1477.58,1412.04 "/>
     <polygon id="_455832328" class="fil1" points="1477.58,1412.04 2613.46,2547.92 2609.86,2566.97 1473.98,1431.09 "/>
     <polygon id="_455832040" class="fil1" points="1203.67,1431.09 2339.55,2566.97 2320.26,2566.97 1184.38,1431.09 "/>
     <polygon id="_455832496" class="fil1" points="943.894,1429.98 2079.78,2565.87 2079.49,2567.99 2079.11,2570.08 2078.63,2572.15 2078.06,2574.19 2077.41,2576.19 2076.66,2578.15 2075.83,2580.07 2074.92,2581.95 2073.92,2583.78 2072.84,2585.56 2071.68,2587.3 2070.44,2588.97 2069.13,2590.59 2067.74,2592.15 2066.28,2593.64 2064.75,2595.07 928.869,1459.18 930.401,1457.76 931.861,1456.26 933.249,1454.71 934.562,1453.09 935.799,1451.41 936.959,1449.68 938.038,1447.9 939.036,1446.07 939.952,1444.19 940.783,1442.27 941.527,1440.3 942.184,1438.3 942.75,1436.27 943.226,1434.2 943.607,1432.11 "/>
     <polygon id="_455832064" class="fil1" points="928.869,1459.18 2064.75,2595.07 2063.22,2596.37 2061.63,2597.6 2059.99,2598.77 2058.29,2599.87 2056.54,2600.89 2054.74,2601.83 2052.89,2602.7 2050.99,2603.49 2049.04,2604.19 2047.05,2604.81 2045.01,2605.34 2042.93,2605.78 2040.81,2606.13 2038.65,2606.38 2036.45,2606.53 2034.21,2606.58 898.333,1470.7 900.568,1470.65 902.766,1470.5 904.926,1470.25 907.047,1469.9 909.127,1469.46 911.164,1468.93 913.158,1468.31 915.106,1467.61 917.006,1466.82 918.859,1465.95 920.662,1465.01 922.412,1463.98 924.109,1462.89 925.752,1461.72 927.34,1460.48 "/>
     <polygon id="_455832112" class="fil1" points="898.333,1470.7 2034.21,2606.58 1700.83,2606.58 564.944,1470.7 "/>
     <polygon id="_455832184" class="fil1" points="564.944,1470.7 1700.83,2606.58 1698.59,2606.53 1696.39,2606.38 1694.23,2606.13 1692.11,2605.78 1690.03,2605.34 1687.99,2604.81 1686,2604.19 1684.05,2603.49 1682.15,2602.7 1680.3,2601.83 1678.5,2600.89 1676.75,2599.87 1675.05,2598.77 1673.4,2597.6 1671.82,2596.37 535.937,1460.48 537.524,1461.72 539.167,1462.89 540.865,1463.98 542.615,1465.01 544.418,1465.95 546.27,1466.82 548.17,1467.61 550.119,1468.31 552.111,1468.93 554.149,1469.46 556.229,1469.9 558.35,1470.25 560.51,1470.5 562.709,1470.65 "/>
     <polygon id="_455832208" class="fil1" points="1454.7,1431.09 2590.58,2566.97 2339.55,2566.97 1203.67,1431.09 "/>
     <polygon id="_455833240" class="fil1" points="1473.98,1431.09 2609.86,2566.97 2590.58,2566.97 1454.7,1431.09 "/>
    </g>
    <path id="_341192392" class="fil1" d="M1579.25 577.301l0 46.6725 -70.0926 0 -50.7626 223.727 97.519 0 28.0878 0 -5.20748 27.6201 -101.218 536.719 -3.5941 19.0512 -19.2862 0 -251.028 0 -19.2874 0 -3.59292 -19.0512 -101.217 -536.719 -5.20867 -27.6201 28.089 0 308.233 0 57.2162 -252.168 4.13504 -18.2315 18.5622 0 88.6536 0zm-948.235 184.886c14.6209,-1.9063 28.024,8.40119 29.9303,23.0244l26.0811 200.082c4.46103,1.14095 9.03544,2.05984 13.7032,2.74252l26.439 -202.825c1.9063,-14.6232 15.3083,-24.9307 29.9303,-23.0244 14.6221,1.90748 24.9307,15.3095 23.0232,29.9315l-25.1551 192.979c5.89016,-1.5437 11.5831,-3.47481 17.041,-5.76142l35.0953 -195.382c2.60079,-14.5063 16.4717,-24.1595 30.978,-21.5575 14.5051,2.60079 24.1595,16.4705 21.5587,30.9768l-17.6268 98.1308 16.891 0 18.8032 -104.384c2.60079,-14.5075 16.4717,-24.1595 30.978,-21.5587 14.5051,2.60079 24.1583,16.4717 21.5575,30.978l-17.1059 94.9642 40.3016 0c1.54134,0 3.3378,0.11811 5.36103,0.343701 10.0276,1.12205 19.5284,5.45079 26.6351,11.8205 8.4756,7.59568 13.8437,17.9847 13.8437,29.8087 0,1.13858 -0.0933072,2.55236 -0.279921,4.23189l-55.1044 492.274c-1.27441,11.3799 -6.67087,21.7736 -15.0248,29.1992 -8.00079,7.1126 -18.5232,11.5158 -30.5362,11.5158l-333.389 0c-12.0142,0 -22.5366,-4.40315 -30.5362,-11.5158 -8.35512,-7.42442 -13.7504,-17.8158 -15.0236,-29.1992l-55.1044 -492.274c-0.186614,-1.67953 -0.279921,-3.09213 -0.279921,-4.23307 0,-11.824 5.36811,-22.2118 13.8425,-29.8087 7.1067,-6.36733 16.6087,-10.6973 26.6351,-11.8193 2.02205,-0.225591 3.81969,-0.343701 5.36103,-0.343701l71.3469 0 19.2354 0 4.97481 18.7228c4.07835,15.3532 12.2126,29.4331 23.3788,41.3351l-20.7851 -159.444c-1.9063,-14.6221 8.40119,-28.024 23.0256,-29.9315z"/>
   </g>
  </g>
  <path class="fil2" d="M1024 0c565.539,0 1024,458.461 1024,1024 0,565.539 -458.461,1024 -1024,1024 -565.539,0 -1024,-458.461 -1024,-1024 0,-565.539 458.461,-1024 1024,-1024z"/>
  <polygon class="fil3" points="1408.78,856.072 1467.9,595.532 1472.03,577.301 1490.6,577.301 1579.25,577.301 1579.25,623.973 1509.16,623.973 1456.5,856.072 "/>
  <polygon class="fil4" points="1102.45,847.7 1555.91,847.7 1584,847.7 1578.79,875.32 1477.58,1412.04 1473.98,1431.09 1454.7,1431.09 1203.67,1431.09 1184.38,1431.09 1180.79,1412.04 1079.57,875.32 1074.36,847.7 "/>
  <path class="fil5" d="M660.945 785.212c-1.90748,-14.6232 -15.3095,-24.9319 -29.9315,-23.0244 -14.6221,1.90748 -24.9307,15.3095 -23.0232,29.9315l22.6063 173.431c5.62205,6.95788 12.3177,13.0937 19.6595,18.2528 11.7272,8.2382 24.965,13.9288 38.8134,17.165l-28.1244 -215.756z"/>
  <path class="fil5" d="M780.122 792.119c1.90748,-14.6221 -8.40119,-28.024 -23.0232,-29.9315 -14.6221,-1.90748 -28.024,8.40119 -29.9315,23.0244l-28.3654 217.615c6.13347,0.914174 12.3425,1.3689 18.5551,1.3689 12.1299,0 24.2457,-1.73032 35.804,-5.24528l26.961 -206.831z"/>
  <path class="fil5" d="M859.639 793.374c2.60079,-14.5063 -7.05119,-28.376 -21.5575,-30.9768 -14.5063,-2.60197 -28.3772,7.05119 -30.978,21.5575l-37.4611 208.552c5.1437,-2.49331 10.1008,-5.39292 14.8158,-8.70473 16.3902,-11.5158 29.5571,-27.8953 34.754,-47.452l11.1189 -41.8406 11.1425 0 18.1654 -101.136z"/>
  <path class="fil5" d="M930.243 796.541c2.60079,-14.5063 -7.05237,-28.3772 -21.5575,-30.978 -14.5063,-2.59961 -28.3784,7.05119 -30.978,21.5587l-19.3441 107.388 54.2327 0 17.6469 -97.969z"/>
  <path class="fil6" d="M509.839 891.505l71.3469 0 19.2354 0 4.97481 18.7228c5.97993,22.5095 20.6776,42.2835 40.8662,56.4674 20.2973,14.2618 46.1162,22.7764 74.3552,22.7764 28.2378,0 54.0567,-8.51457 74.3552,-22.7764 20.1886,-14.1839 34.8839,-33.9591 40.8662,-56.4674l4.97363 -18.7228 19.2354 0 93.391 0c1.54134,0 3.3378,0.11811 5.36103,0.343701 10.0276,1.12205 19.5284,5.45079 26.6351,11.8205 8.4756,7.59568 13.8437,17.9847 13.8437,29.8087 0,1.13858 -0.0933072,2.55236 -0.279921,4.23189l-55.1044 492.274c-1.27441,11.3799 -6.67087,21.7736 -15.0248,29.1992 -8.00079,7.1126 -18.5232,11.5158 -30.5362,11.5158l-333.389 0c-12.0142,0 -22.5366,-4.40315 -30.5362,-11.5158 -8.35512,-7.42442 -13.7504,-17.8158 -15.0236,-29.1992l-55.1044 -492.274c-0.186614,-1.67953 -0.279921,-3.09213 -0.279921,-4.23307 0,-11.824 5.36811,-22.2118 13.8425,-29.8087 7.1067,-6.36733 16.6087,-10.6973 26.6351,-11.8193 2.02205,-0.225591 3.81969,-0.343701 5.36103,-0.343701z"/>
  <path class="fil7" d="M731.639 1144.19c25.4055,0 48.4111,10.3016 65.0611,26.9528 16.6512,16.65 26.9528,39.6544 26.9528,65.0611 0,25.4067 -10.3016,48.4111 -26.9528,65.0611 -16.6524,16.65 -39.6567,26.9528 -65.0611,26.9528 -25.4067,0 -48.4111,-10.3028 -65.0623,-26.9528 -16.65,-16.65 -26.9516,-39.6544 -26.9516,-65.0611 0,-25.4067 10.2992,-48.4111 26.9516,-65.0611 16.6512,-16.6512 39.6555,-26.9528 65.0623,-26.9528z"/>
 </g>
</svg>
