<svg xmlns="http://www.w3.org/2000/svg" viewBox="0 0 512 512"><defs><style>.cls-1{fill:#fcc8bc;}.cls-2{fill:#41c0e3;}.cls-3{fill:#fff;}.cls-4{fill:#ddd7d7;}.cls-5{fill:#9e4830;}.cls-6{fill:#873b29;}.cls-7{fill:#a65c3b;}.cls-8{fill:#e88032;}.cls-9{fill:#c46627;}.cls-10{fill:#d3702d;}.cls-11{fill:#ad5a21;}.cls-12{fill:#00b564;}.cls-13{fill:#38c487;}.cls-14{fill:#d16a24;}.cls-15{fill:#f7bb38;}.cls-16{fill:#e2a52b;}.cls-17{fill:#a01818;}</style></defs><title>English Food</title><g id="BULINE"><circle class="cls-1" cx="256" cy="256" r="256"/></g><g id="Icons"><circle class="cls-2" cx="255.9" cy="256.14" r="230.14"/><circle class="cls-3" cx="255.9" cy="256.14" r="208.92"/><circle class="cls-4" cx="247.52" cy="256.14" r="156.82"/><path class="cls-5" d="M113.73,274.23c30.33,7.25,111.69,19.09,245.55-15.05a24.68,24.68,0,0,1,29.56,16.42c7.45,23.12,8.94,59.12-41.42,79A232,232,0,0,0,310.74,373c-32.1,19.75-100.57,51.49-155,5.39A248.55,248.55,0,0,0,122,354c-22.43-13.29-54-38.74-34.75-69.13A24.55,24.55,0,0,1,113.73,274.23Z"/><path class="cls-6" d="M346.3,354.56A234.24,234.24,0,0,0,309.61,373c-32.09,19.76-100.57,51.5-155,5.4A249.17,249.17,0,0,0,120.87,354c-21.55-12.77-51.48-36.74-36.8-65.54,7.33,14.72,23.63,26.7,36.8,34.51a248.31,248.31,0,0,1,33.71,24.34c54.46,46.09,122.94,14.36,155-5.39a231.71,231.71,0,0,1,36.69-18.4c26.88-10.6,39-25.8,43.29-41.18C395,305.26,392,336.56,346.3,354.56Z"/><path class="cls-7" d="M185.12,353.6c28.31-.66,102.49-9.1,212.14-70.09A22.41,22.41,0,0,1,427,291.08c11.9,18.58,21.55,49.85-18.08,78.93A211.88,211.88,0,0,0,381,394.67c-23.6,24.78-76.38,68.51-134.89,40.64a226.24,226.24,0,0,0-35.24-13.56c-22.78-6.48-56.36-21.52-46.53-52.66A22.33,22.33,0,0,1,185.12,353.6Z"/><path class="cls-5" d="M408.93,370A212.6,212.6,0,0,0,381,394.67c-23.61,24.77-76.38,68.51-134.89,40.64a225.47,225.47,0,0,0-35.24-13.56c-22.38-6.36-55.2-21-47-51.05,7.77,15.74,29.23,24.58,45.3,29.15a225.24,225.24,0,0,1,35.24,13.56c58.5,27.86,111.28-15.87,134.89-40.65a211.89,211.89,0,0,1,27.95-24.65c18.06-13.26,25.89-27,27.92-39.72C440.55,326.19,438,348.69,408.93,370Z"/><path class="cls-8" d="M81.41,138.51c-10.18,11.4-24.8,20.72-27.69,34.67-3,14.4,7,28.88,11.54,42.85,4.45,13.54,4.8,31.11,16.2,41.29s28.9,8.54,42.86,11.43c14.4,3,29.9,11.23,43.87,6.64,13.54-4.45,21.15-20,31.32-31.43s24.8-20.71,27.69-34.67c3-14.4-6.95-28.87-11.54-42.84-4.45-13.54-4.8-31.12-16.2-41.29s-28.9-8.54-42.86-11.44c-14.4-3-29.9-11.22-43.87-6.63C99.19,111.54,91.58,127.12,81.41,138.51Z"/><path class="cls-9" d="M95.15,150.79c-7.81,8.74-19,15.89-21.25,26.6-2.29,11,5.34,22.15,8.86,32.87,3.42,10.39,3.68,23.87,12.43,31.68s22.17,6.55,32.88,8.77c11.05,2.29,22.94,8.61,33.66,5.09,10.39-3.41,16.22-15.37,24-24.11s19-15.89,21.25-26.6c2.29-11.05-5.34-22.15-8.86-32.87-3.42-10.39-3.68-23.87-12.43-31.68s-22.17-6.55-32.88-8.77c-11.05-2.29-22.94-8.62-33.66-5.09C108.79,130.09,103,142,95.15,150.79Z"/><path class="cls-10" d="M177.11,270.41a28.52,28.52,0,0,1-8.92,5c-14,4.59-29.48-3.65-43.88-6.64-14-2.89-31.45-1.25-42.85-11.43S69.71,229.57,65.26,216c-4.59-14-14.53-28.44-11.54-42.84,2.89-14,17.51-23.27,27.69-34.66s17.78-27,31.31-31.43c11.86-3.89,24.82,1.44,37.27,5-5,4-9.24,9.53-13.46,15.15-2.9,3.87-5.81,7.78-9,11.31-10.17,11.39-24.79,20.7-27.68,34.66-3,14.4,6.95,28.88,11.54,42.84,3.48,10.59,4.45,23.64,10.15,33.7a29.94,29.94,0,0,0,6,7.6c11.39,10.18,28.9,8.54,42.85,11.43C172.68,269.21,174.88,269.78,177.11,270.41Z"/><path class="cls-11" d="M136.53,127.21c-2.9,3.87-5.81,7.78-9,11.31-10.17,11.39-24.79,20.7-27.68,34.66-3,14.4,6.95,28.88,11.54,42.84,3.48,10.59,4.45,23.64,10.15,33.7-9.25-1.09-19.35-1.49-26.4-7.78-8.74-7.81-9-21.29-12.43-31.68-3.51-10.72-11.15-21.82-8.86-32.88,2.23-10.7,13.44-17.85,21.26-26.59s13.63-20.7,24-24.12C124.74,124.85,130.62,125.67,136.53,127.21Z"/><path class="cls-12" d="M371.69,125.18c-.57,0-1.12.13-1.67.23a53.13,53.13,0,0,0-72-57.47,34.64,34.64,0,0,0-58.37,19.6,24.51,24.51,0,1,0-11.83,44.72,53.13,53.13,0,0,0,80,58.19,34.63,34.63,0,0,0,61.52-16.85,24.83,24.83,0,0,0,7.33.36,24.51,24.51,0,1,0-4.92-48.78Z"/><circle class="cls-13" cx="289.58" cy="91.43" r="10.52"/><circle class="cls-13" cx="236.99" cy="110.55" r="10.52"/><circle class="cls-13" cx="255.9" cy="149.14" r="10.52"/><circle class="cls-13" cx="268.53" cy="177.15" r="10.52"/><circle class="cls-13" cx="341.21" cy="177.15" r="10.52"/><circle class="cls-13" cx="272.74" cy="125.63" r="10.52"/><circle class="cls-13" cx="330.69" cy="86.69" r="10.52"/><circle class="cls-13" cx="310.78" cy="115.11" r="10.52"/><circle class="cls-13" cx="371.67" cy="149.14" r="10.52"/><circle class="cls-13" cx="300" cy="149.14" r="10.52"/><circle class="cls-13" cx="346.41" cy="121.07" r="10.52"/><circle class="cls-13" cx="330.69" cy="149.84" r="10.52"/><circle class="cls-13" cx="258" cy="86.69" r="10.52"/><circle class="cls-13" cx="310.52" cy="177.15" r="10.52"/><rect class="cls-8" x="356.48" y="120.63" width="30.37" height="141.21" rx="3.77" transform="translate(186.34 -183.41) rotate(36.45)"/><path class="cls-14" d="M328.16,246.87l-7.62-5.63a3.76,3.76,0,0,1-.79-5.26l79.41-107.52a3.78,3.78,0,0,1,5.28-.8l7.62,5.63a3.78,3.78,0,0,0-5.28.8L327.36,241.6A3.78,3.78,0,0,0,328.16,246.87Z"/><rect class="cls-8" x="367.01" y="133.03" width="30.37" height="141.21" rx="3.77" transform="translate(489.26 -215.98) rotate(76.27)"/><path class="cls-14" d="M313.15,218.51l-2.25-9.21a3.77,3.77,0,0,1,2.77-4.55L443.51,173a3.78,3.78,0,0,1,4.56,2.77l2.25,9.2a3.77,3.77,0,0,0-4.56-2.76L315.91,214A3.78,3.78,0,0,0,313.15,218.51Z"/><rect class="cls-8" x="375.22" y="176.27" width="30.37" height="141.21" rx="3.77" transform="translate(653.3 -132.94) rotate(92.38)"/><path class="cls-14" d="M320,242l.39-9.46a3.77,3.77,0,0,1,3.92-3.61l133.55,5.56a3.77,3.77,0,0,1,3.62,3.92l-.39,9.46a3.79,3.79,0,0,0-3.62-3.92l-133.55-5.56A3.78,3.78,0,0,0,320,242Z"/><ellipse class="cls-15" cx="226.21" cy="250.25" rx="61.84" ry="48.35"/><path class="cls-16" d="M268.8,286.37c-11.09,8-25.9,12.86-42.17,12.86-34.38,0-62.26-21.79-62.26-48.68,0-19.52,14.7-36.36,35.93-44.12-12.36,8.9-20.1,21.64-20.1,35.82,0,26.88,27.88,48.68,62.26,48.68A76.9,76.9,0,0,0,268.8,286.37Z"/><ellipse class="cls-15" cx="293.91" cy="232.98" rx="48.35" ry="61.84" transform="translate(-64.93 342.03) rotate(-55.31)"/><path class="cls-16" d="M308.38,286.91c-13.67.26-28.63-4.17-42-13.42-28.27-19.57-38.79-53.36-23.48-75.47C254,182,275.68,176.49,297.55,182.19c-15.23.28-28.84,6.36-36.91,18-15.3,22.1-4.78,55.89,23.48,75.46A76.85,76.85,0,0,0,308.38,286.91Z"/><path class="cls-17" d="M311.28,321.5v1.7a13.12,13.12,0,0,1-13.12,13.12h-4.08A13.11,13.11,0,0,0,281,349.44h0a13.12,13.12,0,0,0,13.12,13.12H343a13.11,13.11,0,0,1,13.12,13.12v4.16A13.11,13.11,0,0,1,343,393H225.89a13.11,13.11,0,0,1-13.12-13.12v-2.25a13.11,13.11,0,0,1,13.12-13.12H227a13.11,13.11,0,0,0,13.12-13.12v-1.91A13.11,13.11,0,0,0,227,336.32H201.56a13.12,13.12,0,0,1-13.12-13.12v-1.7a13.12,13.12,0,0,1,13.12-13.11h96.6A13.12,13.12,0,0,1,311.28,321.5Z"/></g></svg>