<?xml version="1.0" encoding="iso-8859-1"?>
<!-- Generator: Adobe Illustrator 22.0.1, SVG Export Plug-In . SVG Version: 6.00 Build 0)  -->
<svg version="1.1" id="Icons" xmlns="http://www.w3.org/2000/svg" xmlns:xlink="http://www.w3.org/1999/xlink" x="0px" y="0px"
	 viewBox="0 0 512 512" style="enable-background:new 0 0 512 512;" xml:space="preserve">
<g>
	<path id="XMLID_2107_" style="fill:#A3C2EC;" d="M512,255.904c0,70.692-28.654,134.692-74.981,181.019S326.692,511.904,256,511.904
		S121.308,483.25,74.981,436.924S0,326.597,0,255.904S28.654,121.212,74.981,74.885S185.308-0.096,256-0.096
		s134.692,28.654,181.019,74.981S512,185.212,512,255.904z"/>
	<g id="XMLID_2959_">
		<path id="XMLID_3068_" style="fill:#FB4755;" d="M470.69,395.395c-22.83,35.07-54.02,64.197-90.744,84.557
			S300.965,511.904,256,511.904s-87.223-11.593-123.946-31.953S64.14,430.464,41.31,395.395H256H470.69z"/>
		<g id="XMLID_2960_">
			<path id="XMLID_3038_" style="fill:#0FA46E;" d="M213.94,173.189c0.108-0.547,0.21-1.091,0.306-1.633s0.185-1.081,0.269-1.617
				c0.074,0.032,0.148,0.064,0.221,0.096s0.147,0.064,0.222,0.095c7.318,3.024,14.723,3.878,20.778,2.812
				c6.055-1.065,10.761-4.049,12.683-8.699c1.922-4.65,0.695-10.085-2.842-15.114c-3.537-5.029-9.383-9.652-16.701-12.676
				c-0.041-0.017-0.082-0.033-0.123-0.049c-0.041-0.016-0.082-0.032-0.123-0.048c0.399-0.741,0.783-1.499,1.151-2.272
				c0.368-0.773,0.719-1.563,1.052-2.368c3.719-8.998,4.528-18.202,2.831-25.807c-1.697-7.605-5.902-13.613-12.211-16.22
				c-6.309-2.607-13.528-1.32-20.099,2.868c-6.571,4.188-12.495,11.278-16.214,20.276c-0.346,0.837-0.666,1.675-0.962,2.513
				c-0.296,0.839-0.566,1.678-0.813,2.515c-0.614-0.324-1.241-0.637-1.881-0.938c-0.64-0.301-1.292-0.589-1.958-0.864
				c-7.318-3.024-14.723-3.878-20.778-2.812s-10.761,4.049-12.683,8.699c-1.922,4.65-0.695,10.085,2.842,15.114
				c3.537,5.029,9.383,9.652,16.701,12.676c0.706,0.292,1.412,0.563,2.119,0.814c0.706,0.251,1.412,0.482,2.116,0.694
				c-0.357,0.488-0.711,0.983-1.061,1.485c-0.351,0.503-0.698,1.013-1.043,1.531c-0.541-0.277-1.09-0.546-1.65-0.806
				s-1.128-0.51-1.707-0.75c-7.318-3.024-14.723-3.878-20.778-2.812c-6.055,1.065-10.761,4.049-12.683,8.699
				c-1.922,4.65-0.695,10.085,2.842,15.114s9.383,9.652,16.701,12.676c0.579,0.239,1.159,0.464,1.739,0.674
				c0.58,0.211,1.159,0.408,1.738,0.594c-1.929,9.657-1.954,18.592-0.178,25.657c1.776,7.066,5.354,12.263,10.633,14.444
				c5.265,2.176,11.449,1.032,17.678-2.695c6.229-3.727,12.504-10.038,17.95-18.198c7.285,2.968,14.641,3.79,20.654,2.712
				c6.013-1.078,10.683-4.054,12.595-8.681c1.912-4.627,0.706-10.032-2.792-15.041C226.985,180.841,221.195,176.23,213.94,173.189z"
				/>
			<path id="XMLID_3037_" style="fill:#0FA46E;" d="M371.723,227.27c-0.329-0.45-0.66-0.893-0.994-1.331
				c-0.334-0.437-0.669-0.869-1.007-1.294c0.074-0.033,0.147-0.065,0.221-0.098c0.074-0.032,0.147-0.065,0.221-0.099
				c7.182-3.334,12.826-8.203,16.144-13.378c3.318-5.176,4.312-10.658,2.193-15.222c-2.118-4.563-6.948-7.343-13.043-8.149
				c-6.095-0.805-13.456,0.364-20.638,3.698c-0.04,0.019-0.079,0.038-0.119,0.057s-0.079,0.039-0.118,0.058
				c-0.275-0.796-0.572-1.592-0.892-2.386c-0.32-0.794-0.663-1.588-1.03-2.378c-4.1-8.831-10.321-15.661-17.066-19.565
				c-6.744-3.904-14.012-4.881-20.203-2.006s-10.135,9.056-11.506,16.727s-0.169,16.831,3.931,25.663
				c0.381,0.821,0.781,1.625,1.197,2.41c0.417,0.786,0.85,1.553,1.3,2.302c-0.654,0.232-1.309,0.481-1.964,0.748
				c-0.655,0.267-1.309,0.552-1.962,0.855c-7.182,3.334-12.826,8.203-16.144,13.378c-3.318,5.176-4.312,10.658-2.193,15.222
				c2.119,4.563,6.948,7.343,13.043,8.149c6.095,0.805,13.456-0.364,20.638-3.698c0.693-0.322,1.371-0.658,2.034-1.007
				c0.663-0.349,1.311-0.712,1.944-1.086c0.117,0.593,0.242,1.188,0.374,1.787c0.132,0.599,0.272,1.2,0.42,1.804
				c-0.57,0.21-1.141,0.432-1.711,0.667c-0.57,0.235-1.14,0.484-1.708,0.748c-7.182,3.334-12.826,8.203-16.144,13.378
				c-3.318,5.176-4.312,10.658-2.193,15.222c2.119,4.563,6.948,7.343,13.043,8.149c6.095,0.805,13.456-0.364,20.638-3.698
				c0.569-0.264,1.126-0.538,1.674-0.822c0.548-0.284,1.085-0.576,1.614-0.876c5.797,7.961,12.352,14.032,18.753,17.512
				c6.401,3.48,12.647,4.369,17.828,1.964c5.167-2.399,8.515-7.722,9.994-14.829s1.087-15.998-1.226-25.531
				c7.118-3.348,12.706-8.202,15.987-13.355c3.281-5.153,4.255-10.605,2.147-15.146c-2.108-4.541-6.901-7.316-12.955-8.135
				S378.874,223.993,371.723,227.27z"/>
			<path id="XMLID_3036_" style="fill:#0FA46E;" d="M327.603,90.849c-0.236-0.322-0.473-0.64-0.712-0.954s-0.48-0.623-0.722-0.927
				c0.053-0.024,0.105-0.047,0.158-0.07s0.105-0.046,0.158-0.071c5.148-2.39,9.193-5.879,11.571-9.589s3.09-7.639,1.572-10.91
				c-1.518-3.271-4.98-5.263-9.348-5.84s-9.645,0.261-14.792,2.65c-0.029,0.013-0.057,0.027-0.085,0.041
				c-0.028,0.014-0.056,0.028-0.085,0.041c-0.197-0.57-0.41-1.141-0.639-1.71c-0.229-0.569-0.475-1.138-0.738-1.704
				c-2.939-6.33-7.398-11.225-12.232-14.023c-4.834-2.798-10.043-3.498-14.481-1.438c-4.438,2.06-7.264,6.491-8.247,11.989
				s-0.121,12.064,2.818,18.393c0.273,0.588,0.56,1.164,0.858,1.727s0.61,1.113,0.932,1.65c-0.469,0.166-0.939,0.345-1.408,0.536
				c-0.469,0.191-0.938,0.395-1.406,0.613c-5.148,2.39-9.193,5.879-11.571,9.589s-3.09,7.639-1.572,10.91
				c1.518,3.271,4.98,5.263,9.348,5.84c4.369,0.577,9.645-0.261,14.792-2.651c0.497-0.23,0.982-0.471,1.458-0.722
				c0.475-0.25,0.94-0.51,1.393-0.778c0.084,0.425,0.173,0.852,0.268,1.281c0.095,0.429,0.195,0.86,0.301,1.293
				c-0.409,0.151-0.818,0.31-1.226,0.478c-0.409,0.169-0.817,0.347-1.224,0.536c-5.148,2.39-9.193,5.879-11.571,9.589
				s-3.09,7.639-1.572,10.91s4.98,5.263,9.348,5.84s9.645-0.261,14.792-2.65c0.407-0.189,0.807-0.386,1.2-0.589
				c0.393-0.203,0.778-0.413,1.157-0.628c4.155,5.706,8.853,10.057,13.441,12.552s9.065,3.131,12.778,1.407
				c3.703-1.719,6.103-5.535,7.163-10.629c1.06-5.094,0.779-11.466-0.879-18.299c5.102-2.399,9.107-5.879,11.458-9.572
				c2.352-3.693,3.05-7.601,1.539-10.856c-1.511-3.255-4.946-5.243-9.285-5.831C337.971,87.687,332.729,88.5,327.603,90.849z"/>
			<g id="XMLID_3027_">
				<g id="XMLID_3030_">
					<path id="XMLID_3035_" style="fill:#1F3D5C;" d="M425.507,290.682V303.3v12.618c0,40.759-14.148,78.214-37.801,107.72
						s-56.808,51.064-94.824,60.031c-6.379,1.509-12.895,2.661-19.525,3.435c-6.63,0.775-13.374,1.172-20.209,1.172
						c-47.594,0-90.684-19.292-121.875-50.483s-50.483-74.28-50.483-121.875V303.3v-12.618h172.358H425.507z"/>
					<path id="XMLID_3034_" style="fill:#214A66;" d="M425.507,290.682V303.3v12.618c0,0.279,0,0.558-0.003,0.838
						s-0.008,0.558-0.019,0.838c-0.376,40.389-14.65,77.454-38.269,106.649s-56.582,50.519-94.334,59.427
						c-37.752-8.908-70.715-30.232-94.334-59.427s-37.893-66.26-38.269-106.649c-0.011-0.279-0.016-0.558-0.019-0.838
						c-0.003-0.279-0.003-0.558-0.003-0.838V303.3v-12.618h132.624H425.507z"/>
					<path id="XMLID_3033_" style="fill:#1F3D5C;" d="M442.689,276.184c0,2.003-0.405,3.909-1.138,5.643
						c-0.733,1.734-1.793,3.297-3.104,4.612c-1.31,1.31-2.873,2.371-4.608,3.104s-3.644,1.138-5.647,1.138H253.149H78.106
						c-4.006,0-7.63-1.622-10.253-4.245c-2.623-2.623-4.245-6.247-4.245-10.253c0-2.003,0.405-3.909,1.138-5.643
						c0.733-1.734,1.793-3.297,3.104-4.612c1.31-1.31,2.873-2.371,4.608-3.104c1.736-0.733,3.644-1.138,5.647-1.138h175.043h175.043
						c4.006,0,7.63,1.622,10.253,4.245S442.689,272.179,442.689,276.184z"/>
					<path id="XMLID_3032_" style="fill:#245073;" d="M442.689,276.184c0,2.003-0.405,3.909-1.138,5.643
						c-0.733,1.734-1.793,3.297-3.104,4.612c-1.31,1.31-2.873,2.371-4.608,3.104s-3.644,1.138-5.647,1.138H301.473H174.755
						c-4.006,0-7.63-1.622-10.253-4.245c-2.623-2.623-4.245-6.247-4.245-10.253c0-2.003,0.405-3.909,1.138-5.643
						c0.733-1.734,1.793-3.297,3.104-4.612c1.31-1.31,2.873-2.371,4.608-3.104c1.736-0.733,3.644-1.138,5.647-1.138h126.718h126.718
						c4.006,0,7.63,1.622,10.253,4.245S442.689,272.179,442.689,276.184z"/>
					<path id="XMLID_3031_" style="fill:#1F3D5C;" d="M425.507,290.682V303.3v12.618c0,0.279,0,0.558-0.003,0.838
						s-0.008,0.558-0.019,0.838H284.146H142.807v-13.456v-13.456h141.35H425.507z"/>
				</g>
				<path id="XMLID_3029_" style="fill:#1F3D5C;" d="M333.863,467.69v6.588v6.588c0,2.937-1.189,5.595-3.112,7.519
					c-1.922,1.924-4.577,3.113-7.509,3.113H253.15h-70.092c-2.937,0-5.595-1.189-7.519-3.113s-3.113-4.581-3.113-7.519v-6.588
					v-6.588h80.718H333.863z"/>
				<path id="XMLID_3028_" style="fill:#245073;" d="M333.863,467.69v6.588v6.588c0,2.937-1.189,5.595-3.112,7.519
					c-1.922,1.924-4.577,3.113-7.509,3.113h-43.39h-43.39c-2.937,0-5.595-1.189-7.518-3.113s-3.113-4.581-3.113-7.519v-6.588v-6.588
					h54.016H333.863z"/>
			</g>
			<g id="XMLID_3017_">
				<path id="XMLID_3026_" style="fill:#0B915B;" d="M106.474,210.566c0-7.658,2.905-14.637,7.674-19.895s11.4-8.796,18.853-9.571
					c2.042-1.755,4.269-3.302,6.646-4.607s4.906-2.368,7.555-3.157c-1.759-0.524-3.569-0.928-5.422-1.202
					c-1.853-0.274-3.748-0.416-5.677-0.416c-10.728,0-20.439,4.348-27.47,11.378c-7.03,7.03-11.378,16.742-11.378,27.47
					c0,10.727,4.348,20.439,11.378,27.469c7.03,7.03,16.742,11.378,27.47,11.378c1.929,0,3.824-0.143,5.677-0.416
					c1.853-0.274,3.663-0.678,5.422-1.202c-2.648-0.788-5.177-1.852-7.555-3.157c-2.377-1.305-4.604-2.852-6.646-4.607
					c-7.453-0.775-14.085-4.313-18.853-9.571C109.38,225.203,106.474,218.224,106.474,210.566z"/>
				<path id="XMLID_3025_" style="fill:#0FA46E;" d="M174.951,210.566c0-8.798-2.926-16.912-7.857-23.422
					c-4.931-6.511-11.869-11.419-19.891-13.807c-2.648,0.788-5.177,1.852-7.555,3.157s-4.604,2.852-6.646,4.607
					c0.51-0.053,1.023-0.094,1.54-0.121c0.517-0.027,1.037-0.041,1.561-0.041c8.182,0,15.589,3.316,20.95,8.678
					s8.678,12.769,8.678,20.95c0,8.182-3.316,15.589-8.678,20.95c-5.362,5.362-12.769,8.678-20.95,8.678
					c-0.524,0-1.044-0.014-1.561-0.041s-1.03-0.068-1.54-0.121c2.042,1.755,4.269,3.302,6.646,4.607
					c2.378,1.305,4.906,2.368,7.555,3.157c8.023-2.388,14.96-7.297,19.891-13.807C172.025,227.478,174.951,219.364,174.951,210.566z
					"/>
				<path id="XMLID_3024_" style="fill:#99D130;" d="M106.474,210.566c0,7.658,2.905,14.637,7.674,19.895
					c4.769,5.258,11.4,8.796,18.853,9.571c-4.145-3.562-7.532-7.982-9.883-12.984s-3.665-10.588-3.665-16.482
					c0-5.894,1.314-11.48,3.665-16.482s5.738-9.422,9.883-12.984c-7.453,0.775-14.085,4.313-18.853,9.571
					S106.474,202.908,106.474,210.566z"/>
				<path id="XMLID_3023_" style="fill:#A0E42E;" d="M119.454,210.566c0,5.894,1.314,11.48,3.665,16.482s5.738,9.422,9.883,12.984
					c0.51,0.053,1.023,0.094,1.54,0.121s1.037,0.041,1.561,0.041c8.182,0,15.589-3.316,20.95-8.678
					c5.362-5.362,8.678-12.769,8.678-20.95c0-8.182-3.316-15.589-8.678-20.95s-12.769-8.678-20.95-8.678
					c-0.524,0-1.044,0.014-1.561,0.041c-0.517,0.027-1.03,0.068-1.54,0.121c-4.145,3.562-7.532,7.982-9.883,12.984
					S119.454,204.672,119.454,210.566z"/>
				<path id="XMLID_3022_" style="fill:#FFFFFF;" d="M140.812,199.13c0,1.022,0.414,1.947,1.084,2.616
					c0.67,0.67,1.594,1.084,2.616,1.084s1.947-0.414,2.616-1.084c0.67-0.67,1.084-1.594,1.084-2.616s-0.414-1.947-1.084-2.616
					c-0.67-0.67-1.594-1.084-2.616-1.084s-1.947,0.414-2.616,1.084C141.226,197.184,140.812,198.109,140.812,199.13z"/>
				<path id="XMLID_3021_" style="fill:#FFFFFF;" d="M145.562,214.266c0,1.022,0.414,1.947,1.084,2.616
					c0.67,0.67,1.594,1.084,2.616,1.084s1.947-0.414,2.616-1.084c0.67-0.67,1.084-1.594,1.084-2.616s-0.414-1.947-1.084-2.616
					c-0.67-0.67-1.594-1.084-2.616-1.084s-1.947,0.414-2.616,1.084C145.976,212.319,145.562,213.244,145.562,214.266z"/>
				<path id="XMLID_3020_" style="fill:#FFFFFF;" d="M133.001,226.988c0,1.022,0.414,1.947,1.084,2.616
					c0.67,0.67,1.594,1.084,2.616,1.084s1.947-0.414,2.616-1.084c0.67-0.67,1.084-1.594,1.084-2.616s-0.414-1.947-1.084-2.616
					c-0.67-0.67-1.594-1.084-2.616-1.084s-1.947,0.414-2.616,1.084C133.416,225.042,133.001,225.967,133.001,226.988z"/>
				<path id="XMLID_3019_" style="fill:#FFFFFF;" d="M118.529,217.966c0,1.022,0.414,1.947,1.084,2.616
					c0.67,0.67,1.594,1.084,2.616,1.084s1.947-0.414,2.616-1.084c0.67-0.67,1.084-1.594,1.084-2.616s-0.414-1.947-1.084-2.616
					c-0.67-0.67-1.594-1.084-2.616-1.084s-1.947,0.414-2.616,1.084C118.943,216.019,118.529,216.944,118.529,217.966z"/>
				<path id="XMLID_3018_" style="fill:#FFFFFF;" d="M122.229,201.148c0,1.022,0.414,1.947,1.084,2.616
					c0.67,0.67,1.594,1.084,2.616,1.084s1.947-0.414,2.616-1.084c0.67-0.67,1.084-1.594,1.084-2.616s-0.414-1.947-1.084-2.616
					c-0.67-0.67-1.594-1.084-2.616-1.084s-1.947,0.414-2.616,1.084C122.643,199.202,122.229,200.127,122.229,201.148z"/>
			</g>
			<g id="XMLID_3007_">
				<path id="XMLID_3016_" style="fill:#0B915B;" d="M329.84,212.131c0-6.222,2.361-11.893,6.235-16.165
					c3.875-4.273,9.263-7.147,15.319-7.777c1.66-1.426,3.468-2.683,5.4-3.743s3.987-1.924,6.138-2.565
					c-1.429-0.425-2.9-0.754-4.406-0.976s-3.046-0.338-4.613-0.338c-8.716,0-16.608,3.533-22.32,9.245
					c-5.712,5.712-9.245,13.603-9.245,22.32c0,8.716,3.533,16.608,9.245,22.32c5.712,5.712,13.603,9.245,22.32,9.245
					c1.567,0,3.107-0.116,4.613-0.338s2.976-0.551,4.406-0.976c-2.152-0.641-4.207-1.505-6.138-2.565s-3.741-2.317-5.4-3.743
					c-6.056-0.63-11.444-3.504-15.319-7.777C332.201,224.024,329.84,218.353,329.84,212.131z"/>
				<path id="XMLID_3015_" style="fill:#0FA46E;" d="M385.48,212.131c0-7.149-2.377-13.741-6.384-19.031
					c-4.007-5.29-9.644-9.278-16.162-11.219c-2.152,0.641-4.207,1.505-6.138,2.565s-3.741,2.317-5.4,3.743
					c0.414-0.043,0.831-0.076,1.251-0.098c0.42-0.022,0.843-0.034,1.269-0.034c6.648,0,12.666,2.695,17.023,7.051
					c4.357,4.357,7.051,10.375,7.051,17.023c0,6.648-2.695,12.666-7.051,17.023c-4.357,4.357-10.375,7.051-17.023,7.051
					c-0.426,0-0.848-0.011-1.269-0.034c-0.42-0.022-0.837-0.055-1.251-0.098c1.66,1.426,3.468,2.683,5.4,3.743
					s3.987,1.924,6.138,2.565c6.519-1.941,12.155-5.929,16.162-11.219C383.102,225.872,385.48,219.28,385.48,212.131z"/>
				<path id="XMLID_3014_" style="fill:#99D130;" d="M329.84,212.131c0,6.222,2.361,11.893,6.235,16.165
					c3.875,4.273,9.263,7.147,15.319,7.777c-3.368-2.894-6.12-6.485-8.03-10.55s-2.978-8.603-2.978-13.392s1.068-9.327,2.978-13.392
					c1.91-4.065,4.662-7.656,8.03-10.55c-6.056,0.63-11.444,3.504-15.319,7.777C332.201,200.238,329.84,205.909,329.84,212.131z"/>
				<path id="XMLID_3013_" style="fill:#A0E42E;" d="M340.387,212.131c0,4.789,1.068,9.327,2.978,13.392s4.662,7.656,8.03,10.55
					c0.414,0.043,0.831,0.076,1.251,0.098c0.42,0.022,0.843,0.034,1.269,0.034c6.648,0,12.666-2.695,17.023-7.051
					c4.357-4.357,7.051-10.375,7.051-17.023c0-6.648-2.695-12.666-7.051-17.023c-4.357-4.357-10.375-7.051-17.023-7.051
					c-0.426,0-0.848,0.011-1.269,0.034c-0.42,0.022-0.837,0.055-1.251,0.098c-3.368,2.894-6.12,6.485-8.03,10.55
					C341.455,202.803,340.387,207.342,340.387,212.131z"/>
				<path id="XMLID_3012_" style="fill:#FFFFFF;" d="M357.741,202.839c0,0.83,0.336,1.582,0.88,2.126
					c0.544,0.544,1.296,0.881,2.126,0.881s1.582-0.336,2.126-0.881c0.544-0.544,0.88-1.296,0.88-2.126
					c0-0.83-0.336-1.582-0.88-2.126c-0.544-0.544-1.296-0.88-2.126-0.88s-1.582,0.336-2.126,0.88
					C358.077,201.257,357.741,202.009,357.741,202.839z"/>
				<path id="XMLID_3011_" style="fill:#FFFFFF;" d="M361.6,215.137c0,0.83,0.336,1.582,0.88,2.126
					c0.544,0.544,1.296,0.88,2.126,0.88s1.582-0.336,2.126-0.88c0.544-0.544,0.88-1.296,0.88-2.126s-0.336-1.582-0.88-2.126
					c-0.544-0.544-1.296-0.88-2.126-0.88s-1.582,0.336-2.126,0.88C361.937,213.555,361.6,214.307,361.6,215.137z"/>
				<path id="XMLID_3010_" style="fill:#FFFFFF;" d="M351.394,225.474c0,0.83,0.336,1.582,0.88,2.126
					c0.544,0.544,1.296,0.88,2.126,0.88s1.582-0.336,2.126-0.88c0.544-0.544,0.88-1.296,0.88-2.126c0-0.83-0.336-1.582-0.88-2.126
					c-0.544-0.544-1.296-0.881-2.126-0.881s-1.582,0.336-2.126,0.881C351.731,223.893,351.394,224.644,351.394,225.474z"/>
				<path id="XMLID_3009_" style="fill:#FFFFFF;" d="M339.635,218.143c0,0.83,0.336,1.582,0.88,2.126
					c0.544,0.544,1.296,0.88,2.126,0.88s1.582-0.336,2.126-0.88c0.544-0.544,0.88-1.296,0.88-2.126s-0.336-1.582-0.88-2.126
					c-0.544-0.544-1.296-0.88-2.126-0.88s-1.582,0.336-2.126,0.88C339.972,216.562,339.635,217.313,339.635,218.143z"/>
				<path id="XMLID_3008_" style="fill:#FFFFFF;" d="M342.641,204.479c0,0.83,0.336,1.582,0.88,2.126
					c0.544,0.544,1.296,0.88,2.126,0.88s1.582-0.336,2.126-0.88c0.544-0.544,0.88-1.296,0.88-2.126s-0.336-1.582-0.88-2.126
					c-0.544-0.544-1.296-0.88-2.126-0.88s-1.582,0.336-2.126,0.88C342.978,202.897,342.641,203.649,342.641,204.479z"/>
			</g>
			<g id="XMLID_2997_">
				<path id="XMLID_3006_" style="fill:#0B915B;" d="M195.907,63.333c0-8.131,3.085-15.541,8.148-21.125s12.105-9.34,20.018-10.163
					c2.169-1.864,4.532-3.506,7.057-4.892s5.21-2.515,8.022-3.352c-1.868-0.556-3.79-0.986-5.757-1.276
					c-1.967-0.29-3.98-0.442-6.028-0.442c-11.391,0-21.703,4.617-29.167,12.081s-12.081,17.777-12.081,29.167
					c0,11.39,4.617,21.703,12.081,29.167c7.465,7.465,17.777,12.081,29.167,12.081c2.048,0,4.061-0.151,6.028-0.442
					c1.967-0.29,3.89-0.72,5.757-1.276c-2.812-0.837-5.497-1.966-8.022-3.352c-2.524-1.386-4.888-3.028-7.057-4.892
					c-7.913-0.823-14.955-4.58-20.018-10.163C198.992,78.875,195.907,71.464,195.907,63.333z"/>
				<path id="XMLID_3005_" style="fill:#0FA46E;" d="M268.616,63.333c0-9.342-3.107-17.957-8.343-24.87
					c-5.236-6.913-12.602-12.125-21.12-14.661c-2.812,0.837-5.497,1.966-8.022,3.352s-4.888,3.028-7.057,4.892
					c0.541-0.056,1.086-0.099,1.635-0.128c0.549-0.029,1.102-0.044,1.658-0.044c8.687,0,16.552,3.521,22.245,9.214
					s9.214,13.558,9.214,22.245c0,8.687-3.521,16.552-9.214,22.245c-5.693,5.693-13.558,9.214-22.245,9.214
					c-0.556,0-1.109-0.015-1.658-0.044c-0.549-0.029-1.094-0.072-1.635-0.128c2.169,1.864,4.532,3.506,7.057,4.892
					c2.524,1.386,5.21,2.515,8.022,3.352c8.518-2.536,15.884-7.748,21.12-14.661C265.509,81.29,268.616,72.675,268.616,63.333z"/>
				<path id="XMLID_3004_" style="fill:#99D130;" d="M195.907,63.333c0,8.131,3.085,15.541,8.148,21.125
					c5.063,5.583,12.105,9.34,20.018,10.163c-4.401-3.782-7.997-8.475-10.493-13.787c-2.496-5.312-3.892-11.242-3.892-17.501
					s1.396-12.189,3.892-17.501s6.092-10.004,10.493-13.787c-7.913,0.823-14.955,4.58-20.018,10.163S195.907,55.202,195.907,63.333z
					"/>
				<path id="XMLID_3003_" style="fill:#A0E42E;" d="M209.689,63.333c0,6.258,1.396,12.189,3.892,17.501
					c2.496,5.312,6.092,10.004,10.493,13.787c0.541,0.056,1.086,0.099,1.635,0.128c0.549,0.029,1.102,0.044,1.658,0.044
					c8.687,0,16.552-3.521,22.245-9.214c5.693-5.693,9.214-13.558,9.214-22.245c0-8.687-3.521-16.552-9.214-22.245
					s-13.558-9.214-22.245-9.214c-0.556,0-1.109,0.015-1.658,0.044c-0.549,0.029-1.094,0.072-1.635,0.128
					c-4.401,3.782-7.997,8.475-10.493,13.787S209.689,57.075,209.689,63.333z"/>
				<path id="XMLID_3002_" style="fill:#FFFFFF;" d="M232.367,51.191c0,1.085,0.44,2.067,1.151,2.778
					c0.711,0.711,1.693,1.151,2.778,1.151s2.067-0.44,2.778-1.151c0.711-0.711,1.151-1.693,1.151-2.778
					c0-1.085-0.44-2.067-1.151-2.778c-0.711-0.711-1.693-1.151-2.778-1.151s-2.067,0.44-2.778,1.151
					C232.807,49.124,232.367,50.106,232.367,51.191z"/>
				<path id="XMLID_3001_" style="fill:#FFFFFF;" d="M237.411,67.262c0,1.085,0.44,2.067,1.151,2.778
					c0.711,0.711,1.693,1.151,2.778,1.151s2.067-0.44,2.778-1.151s1.151-1.693,1.151-2.778s-0.44-2.067-1.151-2.778
					c-0.711-0.711-1.693-1.151-2.778-1.151s-2.067,0.44-2.778,1.151C237.85,65.195,237.411,66.177,237.411,67.262z"/>
				<path id="XMLID_3000_" style="fill:#FFFFFF;" d="M224.074,80.77c0,1.085,0.44,2.067,1.151,2.778s1.693,1.151,2.778,1.151
					c1.085,0,2.067-0.44,2.778-1.151c0.711-0.711,1.151-1.693,1.151-2.778s-0.44-2.067-1.151-2.778
					c-0.711-0.711-1.693-1.151-2.778-1.151c-1.085,0-2.067,0.44-2.778,1.151S224.074,79.686,224.074,80.77z"/>
				<path id="XMLID_2999_" style="fill:#FFFFFF;" d="M208.707,71.19c0,1.085,0.44,2.067,1.151,2.778s1.693,1.151,2.778,1.151
					s2.067-0.44,2.778-1.151s1.151-1.693,1.151-2.778c0-1.085-0.44-2.067-1.151-2.778c-0.711-0.711-1.693-1.151-2.778-1.151
					s-2.067,0.44-2.778,1.151C209.147,69.123,208.707,70.105,208.707,71.19z"/>
				<path id="XMLID_2998_" style="fill:#FFFFFF;" d="M212.635,53.334c0,1.085,0.44,2.067,1.151,2.778
					c0.711,0.711,1.693,1.151,2.778,1.151s2.067-0.44,2.778-1.151c0.711-0.711,1.151-1.693,1.151-2.778
					c0-1.085-0.44-2.067-1.151-2.778c-0.711-0.711-1.693-1.151-2.778-1.151s-2.067,0.44-2.778,1.151
					C213.075,51.267,212.635,52.249,212.635,53.334z"/>
			</g>
			<g id="XMLID_2989_">
				<path id="XMLID_2996_" style="fill:#C73F50;" d="M250.086,142.055l-3.411,4.147l-3.411,4.147
					c9.619,7.912,21.534,11.177,33.022,10.059c11.489-1.118,22.551-6.619,30.463-16.238c1.125-1.368,2.153-2.783,3.088-4.237
					c0.935-1.454,1.776-2.947,2.528-4.469c-3.222,2.465-6.716,4.445-10.378,5.931c-3.662,1.486-7.491,2.478-11.382,2.966
					c-6.115,3.964-13.281,5.826-20.4,5.477C263.086,149.49,256.013,146.932,250.086,142.055z"/>
				<path id="XMLID_2995_" style="fill:#FB4755;" d="M300.57,80.685l-3.411,4.147l-3.411,4.147
					c7.328,6.028,11.52,14.457,12.371,23.21c0.852,8.753-1.635,17.831-7.664,25.16c-1.152,1.401-2.392,2.686-3.706,3.855
					c-1.313,1.169-2.7,2.222-4.145,3.159c3.891-0.487,7.72-1.479,11.382-2.966c3.662-1.486,7.156-3.467,10.378-5.931
					c4.538-9.182,5.714-19.484,3.694-29.186S308.821,87.472,300.57,80.685z"/>
				<path id="XMLID_2994_" style="fill:#E06479;" d="M290.605,144.361c-5.934,0.743-12.009,0.316-17.846-1.322
					c-5.837-1.638-11.436-4.487-16.419-8.586l-3.127,3.801l-3.127,3.801c5.928,4.876,13,7.435,20.119,7.783
					C277.324,150.187,284.49,148.325,290.605,144.361z"/>
				<path id="XMLID_2993_" style="fill:#F96D7E;" d="M290.605,144.361c1.445-0.937,2.831-1.99,4.145-3.159
					c1.313-1.169,2.554-2.454,3.706-3.855c6.029-7.328,8.516-16.407,7.664-25.16c-0.852-8.753-5.043-17.181-12.371-23.21
					l-18.704,22.738l-18.704,22.738c4.983,4.099,10.582,6.948,16.419,8.586C278.596,144.677,284.67,145.104,290.605,144.361z"/>
				<path id="XMLID_2992_" style="fill:#FCCAD4;" d="M284.314,122.702c1.107,0.911,1.944,1.936,2.401,2.858
					c0.458,0.922,0.537,1.74,0.129,2.236c-0.408,0.496-1.226,0.576-2.219,0.305c-0.993-0.272-2.16-0.895-3.267-1.805
					s-1.944-1.936-2.401-2.858c-0.458-0.922-0.537-1.74-0.129-2.236c0.408-0.496,1.226-0.576,2.219-0.305
					C282.04,121.169,283.207,121.792,284.314,122.702z"/>
				<path id="XMLID_2991_" style="fill:#FCCAD4;" d="M272.041,134.578c0.139,1.427,0.005,2.743-0.323,3.719
					c-0.328,0.976-0.851,1.61-1.49,1.672c-0.639,0.062-1.275-0.46-1.785-1.354c-0.51-0.894-0.895-2.16-1.034-3.587
					c-0.139-1.427-0.005-2.743,0.323-3.719s0.851-1.61,1.49-1.672c0.639-0.062,1.275,0.46,1.785,1.354
					S271.902,133.152,272.041,134.578z"/>
				<path id="XMLID_2990_" style="fill:#FCCAD4;" d="M289.848,112.93c1.427-0.139,2.693-0.524,3.587-1.034
					c0.894-0.51,1.416-1.145,1.354-1.785c-0.062-0.639-0.697-1.162-1.672-1.49c-0.976-0.328-2.292-0.462-3.719-0.323
					c-1.427,0.139-2.693,0.524-3.587,1.034c-0.894,0.51-1.416,1.145-1.354,1.785c0.062,0.639,0.697,1.162,1.672,1.49
					C287.105,112.936,288.422,113.069,289.848,112.93z"/>
			</g>
			<g id="XMLID_2981_">
				<path id="XMLID_2988_" style="fill:#C73F50;" d="M141.331,80.486l-2.777-4.596l-2.777-4.596
					c-10.66,6.441-17.7,16.593-20.464,27.8c-2.765,11.207-1.254,23.468,5.187,34.128c0.916,1.516,1.909,2.956,2.97,4.321
					c1.061,1.365,2.189,2.655,3.374,3.87c-1.253-3.858-1.96-7.812-2.144-11.76c-0.184-3.948,0.153-7.889,0.987-11.721
					c-1.706-7.085-1.079-14.462,1.616-21.061C129.998,90.275,134.762,84.456,141.331,80.486z"/>
				<path id="XMLID_2987_" style="fill:#FB4755;" d="M182.429,148.501l-2.777-4.596l-2.777-4.596
					c-8.122,4.908-17.464,6.059-26.003,3.952c-8.539-2.106-16.274-7.47-21.181-15.592c-0.938-1.552-1.738-3.149-2.403-4.776
					c-0.666-1.627-1.198-3.285-1.601-4.959c-0.834,3.832-1.171,7.773-0.987,11.721c0.184,3.948,0.891,7.902,2.144,11.76
					c7.152,7.332,16.476,11.866,26.298,13.186C162.965,155.921,173.285,154.026,182.429,148.501z"/>
				<path id="XMLID_2986_" style="fill:#E06479;" d="M125.687,117.934c1.272-5.844,3.694-11.431,7.179-16.392
					c3.485-4.961,8.033-9.294,13.556-12.631l-2.545-4.213l-2.545-4.213c-6.57,3.97-11.334,9.789-14.029,16.388
					C124.607,103.472,123.981,110.849,125.687,117.934z"/>
				<path id="XMLID_2985_" style="fill:#F96D7E;" d="M125.687,117.934c0.403,1.674,0.935,3.332,1.601,4.959
					c0.666,1.627,1.466,3.224,2.403,4.776c4.908,8.122,12.643,13.486,21.181,15.592c8.539,2.106,17.881,0.955,26.003-3.952
					l-15.227-25.199l-15.227-25.199c-5.523,3.337-10.071,7.671-13.556,12.631C129.381,106.503,126.958,112.09,125.687,117.934z"/>
				<path id="XMLID_2984_" style="fill:#FCCAD4;" d="M148.205,119.202c-1.227,0.741-2.472,1.189-3.494,1.315
					c-1.022,0.125-1.82-0.072-2.152-0.622c-0.332-0.55-0.136-1.348,0.45-2.194c0.586-0.846,1.562-1.74,2.789-2.481
					c1.227-0.741,2.472-1.189,3.494-1.315c1.022-0.125,1.82,0.072,2.152,0.622c0.332,0.55,0.136,1.348-0.45,2.194
					C150.407,117.567,149.432,118.46,148.205,119.202z"/>
				<path id="XMLID_2983_" style="fill:#FCCAD4;" d="M141.085,103.678c-1.392-0.343-2.589-0.907-3.4-1.541
					c-0.811-0.634-1.236-1.338-1.082-1.961s0.857-1.049,1.87-1.233s2.335-0.126,3.727,0.217c1.392,0.343,2.589,0.907,3.4,1.541
					s1.236,1.338,1.082,1.961c-0.154,0.624-0.857,1.049-1.87,1.233S142.476,104.021,141.085,103.678z"/>
				<path id="XMLID_2982_" style="fill:#FCCAD4;" d="M155.581,127.669c-0.343,1.392-0.401,2.714-0.217,3.727s0.609,1.716,1.233,1.87
					c0.624,0.154,1.328-0.271,1.961-1.082c0.634-0.811,1.197-2.009,1.541-3.4c0.343-1.392,0.401-2.714,0.217-3.727
					c-0.184-1.013-0.609-1.716-1.233-1.87c-0.624-0.154-1.328,0.271-1.961,1.082S155.925,126.278,155.581,127.669z"/>
			</g>
			<g id="XMLID_2973_">
				<path id="XMLID_2980_" style="fill:#C73F50;" d="M208.186,191.582l-3.052-3.347l-3.052-3.347
					c-7.763,7.079-11.922,16.635-12.37,26.361c-0.448,9.727,2.814,19.624,9.893,27.387c1.007,1.104,2.065,2.132,3.166,3.088
					c1.102,0.955,2.247,1.837,3.427,2.649c-1.67-2.986-2.904-6.142-3.704-9.378c-0.801-3.236-1.168-6.553-1.107-9.86
					c-2.574-5.582-3.267-11.789-2.12-17.691S203.401,195.945,208.186,191.582z"/>
				<path id="XMLID_2979_" style="fill:#FB4755;" d="M253.353,241.115l-3.052-3.347l-3.052-3.347
					c-5.915,5.394-13.456,7.879-20.867,7.538c-7.411-0.342-14.691-3.51-20.085-9.425c-1.031-1.13-1.955-2.32-2.773-3.558
					s-1.53-2.522-2.139-3.841c-0.061,3.307,0.307,6.624,1.107,9.86c0.801,3.236,2.034,6.392,3.704,9.378
					c7.121,4.893,15.58,7.115,23.924,6.595C238.466,250.448,246.694,247.187,253.353,241.115z"/>
				<path id="XMLID_2978_" style="fill:#E06479;" d="M201.387,225.135c0.093-5.044,1.181-10.065,3.25-14.741
					c2.07-4.676,5.122-9.009,9.143-12.676l-2.798-3.068l-2.798-3.068c-4.784,4.363-7.771,9.96-8.918,15.862
					S198.813,219.553,201.387,225.135z"/>
				<path id="XMLID_2977_" style="fill:#F96D7E;" d="M201.387,225.135c0.608,1.319,1.321,2.603,2.139,3.841s1.742,2.427,2.773,3.558
					c5.394,5.915,12.674,9.083,20.085,9.425c7.411,0.342,14.952-2.144,20.867-7.538l-16.735-18.351l-16.734-18.351
					c-4.022,3.668-7.074,8-9.143,12.676C202.568,215.071,201.48,220.091,201.387,225.135z"/>
				<path id="XMLID_2976_" style="fill:#FCCAD4;" d="M220.227,222.489c-0.893,0.815-1.85,1.39-2.675,1.661s-1.518,0.239-1.883-0.161
					c-0.365-0.4-0.334-1.093,0.012-1.89c0.346-0.796,1.007-1.696,1.9-2.511c0.893-0.815,1.85-1.39,2.675-1.661
					s1.518-0.239,1.883,0.161c0.365,0.4,0.334,1.093-0.012,1.89C221.781,220.774,221.12,221.674,220.227,222.489z"/>
				<path id="XMLID_2975_" style="fill:#FCCAD4;" d="M211.788,210.812c-1.208-0.056-2.291-0.326-3.066-0.717
					c-0.775-0.391-1.242-0.904-1.217-1.445s0.537-1.009,1.345-1.327s1.911-0.487,3.119-0.432c1.208,0.056,2.291,0.326,3.066,0.717
					c0.775,0.391,1.242,0.904,1.217,1.445s-0.537,1.009-1.345,1.327C214.099,210.699,212.996,210.868,211.788,210.812z"/>
				<path id="XMLID_2974_" style="fill:#FCCAD4;" d="M227.72,228.284c-0.056,1.208,0.113,2.311,0.432,3.119
					c0.318,0.808,0.786,1.32,1.327,1.345c0.541,0.025,1.054-0.442,1.445-1.217s0.661-1.858,0.717-3.066s-0.113-2.311-0.432-3.119
					c-0.318-0.808-0.786-1.32-1.327-1.345s-1.054,0.442-1.445,1.217C228.046,225.993,227.776,227.077,227.72,228.284z"/>
			</g>
			<g id="XMLID_2967_">
				<path id="XMLID_2972_" style="fill:#FDC2D1;" d="M268.99,181.294l25.277,25.277l25.277,25.277
					c-6.981,6.981-16.13,10.472-25.279,10.472c-9.149,0-18.298-3.491-25.279-10.472c-6.979-6.979-10.468-16.126-10.467-25.275
					C258.519,197.424,262.009,188.275,268.99,181.294z"/>
				<path id="XMLID_2971_" style="fill:#FFFFFF;" d="M274.061,186.364l20.207,20.207l20.207,20.207
					c-5.582,5.582-12.896,8.373-20.209,8.373c-7.314,0-14.627-2.791-20.209-8.373c-5.579-5.579-8.369-12.892-8.368-20.205
					C265.688,199.26,268.479,191.946,274.061,186.364z"/>
				<path id="XMLID_2970_" style="fill:#FDC2D1;" d="M278.921,191.225l15.346,15.346l15.346,15.346
					c-4.239,4.239-9.794,6.358-15.349,6.358s-11.11-2.119-15.349-6.358c-4.236-4.236-6.354-9.79-6.354-15.344
					C272.563,201.019,274.682,195.464,278.921,191.225z"/>
				<path id="XMLID_2969_" style="fill:#FFFFFF;" d="M284.201,196.505l10.066,10.066l10.066,10.066
					c-2.781,2.781-6.425,4.171-10.069,4.171c-3.644,0-7.288-1.39-10.069-4.171c-2.778-2.778-4.167-6.421-4.167-10.064
					S281.42,199.285,284.201,196.505z"/>
				<path id="XMLID_2968_" style="fill:#FDC2D1;" d="M288.263,200.567l6.004,6.004l6.004,6.004c-1.66,1.66-3.833,2.49-6.007,2.49
					s-4.346-0.83-6.006-2.49c-1.658-1.658-2.487-3.83-2.486-6.002C285.773,204.4,286.603,202.227,288.263,200.567z"/>
			</g>
			<g id="XMLID_2961_">
				<path id="XMLID_2966_" style="fill:#FDC2D1;" d="M327.503,153.654l18.122-30.813l18.122-30.813
					c8.51,5.005,14.186,12.985,16.482,21.841c2.297,8.856,1.215,18.589-3.791,27.099c-5.003,8.507-12.982,14.181-21.838,16.477
					C345.746,159.741,336.013,158.659,327.503,153.654z"/>
				<path id="XMLID_2965_" style="fill:#FFFFFF;" d="M331.138,147.473l14.487-24.632l14.487-24.632
					c6.804,4.002,11.342,10.381,13.178,17.46c1.836,7.08,0.97,14.86-3.032,21.664c-4,6.801-10.378,11.337-17.457,13.172
					C345.723,152.341,337.943,151.475,331.138,147.473z"/>
				<path id="XMLID_2964_" style="fill:#FDC2D1;" d="M334.623,141.548l11.003-18.707l11.003-18.707
					c5.167,3.039,8.613,7.884,10.008,13.261c1.394,5.377,0.737,11.286-2.302,16.453c-3.037,5.164-7.881,8.608-13.258,10.002
					C345.699,145.244,339.79,144.587,334.623,141.548z"/>
				<path id="XMLID_2963_" style="fill:#FFFFFF;" d="M338.409,135.112l7.217-12.271l7.217-12.271c3.39,1.994,5.65,5.172,6.565,8.699
					c0.915,3.527,0.484,7.404-1.51,10.793c-1.992,3.387-5.169,5.646-8.696,6.56C345.675,137.537,341.798,137.105,338.409,135.112z"
					/>
				<path id="XMLID_2962_" style="fill:#FDC2D1;" d="M341.321,130.16l4.305-7.319l4.305-7.319c2.024,1.19,3.373,3.085,3.918,5.189
					c0.546,2.104,0.288,4.415-0.903,6.439c-1.188,2.021-3.083,3.368-5.186,3.913C345.657,131.608,343.345,131.35,341.321,130.16z"/>
			</g>
		</g>
	</g>
</g>
</svg>
