<svg xmlns="http://www.w3.org/2000/svg" viewBox="0 0 512 512"><defs><style>.cls-1{fill:#db3a46;}.cls-2{fill:#854538;}.cls-3{fill:#773d35;}.cls-4{fill:#fff;}.cls-5{fill:#f0c788;}.cls-6{fill:#cfcfcf;}.cls-7{fill:#d9b380;}.cls-8{fill:#72392f;}.cls-9{fill:#60302a;}.cls-10{fill:#5e302b;}.cls-11{fill:#f2d17f;}.cls-12{fill:#e9c068;}.cls-13{fill:#dc7da7;}.cls-14{fill:#7bb9ec;}.cls-15{fill:#313d74;}.cls-16{fill:#d4e85e;}</style></defs><title>Food</title><g id="BULINE"><circle class="cls-1" cx="256" cy="256" r="256"/></g><g id="Icons"><path class="cls-2" d="M448.26,96H300a10.3,10.3,0,0,0-10.09,8.21l-4.63,22.19H463l-4.62-22.19A10.32,10.32,0,0,0,448.26,96Z"/><path class="cls-3" d="M355.24,96a10.31,10.31,0,0,0-10.1,8.2l-4.62,22.19H285.63l4.63-22.19A10.32,10.32,0,0,1,300.35,96Z"/><path class="cls-4" d="M429.81,380.48H316.55a23.28,23.28,0,0,1-23.19-21.27L276.2,161H472L453,359.42A23.28,23.28,0,0,1,429.81,380.48Z"/><path class="cls-5" d="M452.37,345.1H295.86c-6.38,0-11.71-5.32-12.28-12.26l-10.14-122.3c-.65-7.89,5-14.7,12.28-14.7H462.51c7.25,0,12.93,6.81,12.28,14.7l-10.14,122.3C464.07,339.78,458.75,345.1,452.37,345.1Z"/><path class="cls-6" d="M364.67,380.49H316.55a23.3,23.3,0,0,1-23.2-21.28l-1.28-14.75-12.69-146.7L276.2,161h48.12l3,34.81L340.25,345.1l1.22,14.11A23.3,23.3,0,0,0,364.67,380.49Z"/><path class="cls-7" d="M340.25,345.1h-44.4a11.67,11.67,0,0,1-3.78-.64,13.33,13.33,0,0,1-8.5-11.63L273.44,210.55a13.88,13.88,0,0,1,5.94-12.79,11.43,11.43,0,0,1,6.33-1.92h41.63Z"/><rect class="cls-8" x="258.45" y="126.44" width="231.33" height="34.59" rx="10.5"/><path class="cls-9" d="M328.9,161H269a10.52,10.52,0,0,1-10.51-10.51V136.94A10.52,10.52,0,0,1,269,126.43H328.9a10.51,10.51,0,0,0-10.5,10.51v13.58A10.51,10.51,0,0,0,328.9,161Z"/><circle class="cls-8" cx="374.11" cy="270.47" r="48.46"/><path class="cls-10" d="M389.73,316.37a48.47,48.47,0,1,1,0-91.79,48.49,48.49,0,0,0,0,91.79Z"/><path class="cls-11" d="M170.06,119.92c-.45-.11-.9-.2-1.35-.29l-1.61-.32q-.81-.16-1.62-.3l-1.62-.28-1.56-.25-1.72-.25c-.45-.07-.9-.13-1.36-.18l-1.14-.14-1.74-.2-1.75-.18c-1.17-.11-2.34-.2-3.52-.28-1.77-.12-3.54-.2-5.33-.25-.48,0-1,0-1.45,0l-2.13,0a131.77,131.77,0,0,0,0,263.54l2.13,0c.49,0,1,0,1.45,0,1.79-.05,3.56-.13,5.33-.25,1.18-.08,2.35-.17,3.52-.28l1.75-.18,1.74-.2,1.14-.14c.46-.05.91-.11,1.36-.18l1.72-.25,1.56-.25c1.08-.18,2.16-.37,3.24-.58l1.61-.32c.45-.09.9-.18,1.35-.29a131.79,131.79,0,0,0,0-257.6ZM97.32,248.72a44.84,44.84,0,1,1,44.84,44.83A44.83,44.83,0,0,1,97.32,248.72Z"/><path class="cls-12" d="M115.93,351.79a131.71,131.71,0,0,1-45.41-69.73q-1.33-5.08-2.25-10.33A132.69,132.69,0,0,1,67,235.11a127.56,127.56,0,0,1,2.59-15.76,131.91,131.91,0,0,1,100.51-99.43h0c-.46-.1-.92-.2-1.38-.28l-1.61-.32q-.81-.16-1.62-.3l-1.62-.28-1.56-.25-1.72-.25c-.45-.07-.9-.13-1.36-.18l-1.14-.14-1.74-.2-1.75-.18c-1.17-.11-2.34-.2-3.52-.28-1.77-.12-3.54-.2-5.33-.25-.48,0-1,0-1.45,0l-2.13,0a131.77,131.77,0,0,0,0,263.54l2.13,0c.49,0,1,0,1.45,0,1.79-.05,3.56-.13,5.33-.25,1.18-.08,2.35-.17,3.52-.28l1.75-.18,1.74-.2,1.14-.14c.46-.05.91-.11,1.36-.18l1.72-.25,1.56-.25c1.08-.18,2.16-.37,3.24-.58l1.61-.32c.46-.08.92-.18,1.38-.28h0A131.11,131.11,0,0,1,115.93,351.79Z"/><path class="cls-13" d="M244.48,206.34c-5.3-12.77-23.27-17.43-32.89-27.05s-14.28-27.59-27.05-32.89c-12.31-5.11-28.22,4.13-42.38,4.13-8.5,0-17.63-3.33-26.24-4.88-5.73-1-11.23-1.29-16.15.75-12.77,5.3-17.42,23.26-27,32.89s-27.59,14.28-32.89,27.05C34.73,218.65,44,234.55,44,248.72s-9.24,30.07-4.14,42.38c5.3,12.77,23.28,17.43,32.89,27S87,345.74,99.77,351c4.92,2,10.42,1.79,16.16.75,8.6-1.56,17.73-4.89,26.23-4.89,14.16,0,30.07,9.25,42.38,4.14,12.77-5.3,17.42-23.27,27.05-32.89s27.59-14.28,32.89-27c5.1-12.31-4.13-28.22-4.13-42.38S249.58,218.65,244.48,206.34ZM142.16,293.55A44.83,44.83,0,1,1,187,248.72,44.84,44.84,0,0,1,142.16,293.55Z"/><rect class="cls-14" x="57.23" y="214.87" width="12.59" height="21.27" rx="6.29"/><rect class="cls-15" x="129.57" y="163.01" width="12.59" height="21.27" rx="6.29" transform="translate(-69.5 93.41) rotate(-30.62)"/><rect class="cls-15" x="99.98" y="306.22" width="12.59" height="21.27" rx="6.29"/><rect class="cls-14" x="168.85" y="163.01" width="12.59" height="21.27" rx="6.29"/><rect class="cls-14" x="203.48" y="269.33" width="12.59" height="21.27" rx="6.29" transform="translate(-136.9 326.92) rotate(-60.87)"/><rect class="cls-4" x="69.81" y="262.82" width="12.59" height="21.27" rx="6.29" transform="translate(241.66 42.89) rotate(51.23)"/><rect class="cls-4" x="178.53" y="306.22" width="12.59" height="21.27" rx="6.29" transform="translate(316.14 -25.65) rotate(51.23)"/><rect class="cls-16" x="93.68" y="182.65" width="12.59" height="21.27" rx="6.29" transform="translate(188.07 -5.7) rotate(51.23)"/><rect class="cls-15" x="211.08" y="231.58" width="12.59" height="21.27" rx="6.29" transform="translate(82.69 -54.06) rotate(17.46)"/><rect class="cls-16" x="140.77" y="311.43" width="12.59" height="21.27" rx="6.29" transform="translate(103.41 -29.29) rotate(17.46)"/><rect class="cls-16" x="192.85" y="195.55" width="12.59" height="21.27" rx="6.29" transform="translate(301.02 -61.75) rotate(64.82)"/><path class="cls-15" d="M479.74,380.49a256.08,256.08,0,0,1-447.48,0Z"/></g></svg>