<?xml version="1.0" encoding="UTF-8"?>
<!DOCTYPE svg PUBLIC "-//W3C//DTD SVG 1.1//EN" "http://www.w3.org/Graphics/SVG/1.1/DTD/svg11.dtd">
<!-- Creator: CorelDRAW -->
<svg xmlns="http://www.w3.org/2000/svg" xml:space="preserve" width="2048px" height="2048px" style="shape-rendering:geometricPrecision; text-rendering:geometricPrecision; image-rendering:optimizeQuality; fill-rule:evenodd; clip-rule:evenodd"
viewBox="0 0 2048 2048"
 xmlns:xlink="http://www.w3.org/1999/xlink">
 <defs>
  <style type="text/css">
   <![CDATA[
    .fil2 {fill:none}
    .fil3 {fill:#2D77E7}
    .fil4 {fill:#34383D}
    .fil5 {fill:#5D98F0}
    .fil1 {fill:#F4511E}
    .fil0 {fill:#FF8A65}
    .fil6 {fill:#474C53;fill-rule:nonzero}
   ]]>
  </style>
   <clipPath id="id0">
    <path d="M1024 -0.0011811c565.539,0 1024,458.462 1024,1024 0,565.539 -458.462,1024 -1024,1024 -565.539,0 -1024,-458.462 -1024,-1024 0,-565.539 458.462,-1024 1024,-1024z"/>
   </clipPath>
 </defs>
 <g id="Layer_x0020_1">
  <metadata id="CorelCorpID_0Corel-Layer"/>
  <path class="fil0" d="M1024 -0.0011811c565.539,0 1024,458.462 1024,1024 0,565.539 -458.462,1024 -1024,1024 -565.539,0 -1024,-458.462 -1024,-1024 0,-565.539 458.462,-1024 1024,-1024z"/>
  <g style="clip-path:url(#id0)">
   <g id="_300481880">
    <g>
     <polygon id="_3070990001" class="fil1" points="1366.92,958.941 2502.8,2094.82 2499.39,2096.73 2495.95,2098.61 2492.48,2100.47 2488.97,2102.32 2485.43,2104.14 2481.87,2105.95 2478.27,2107.73 2474.64,2109.5 2470.97,2111.25 2467.28,2112.97 2463.56,2114.68 2459.81,2116.37 2456.03,2118.03 2452.22,2119.68 2448.38,2121.3 2444.51,2122.9 2440.62,2124.49 2436.69,2126.05 2432.74,2127.59 2428.76,2129.1 2424.75,2130.6 2420.71,2132.07 2416.65,2133.53 2412.57,2134.96 2408.45,2136.36 2404.31,2137.75 2400.14,2139.11 2395.95,2140.45 2391.73,2141.77 2387.49,2143.06 2383.22,2144.34 2378.93,2145.58 1243.05,1009.7 1247.34,1008.45 1251.61,1007.18 1255.85,1005.89 1260.07,1004.57 1264.26,1003.23 1268.43,1001.87 1272.57,1000.48 1276.68,999.074 1280.77,997.644 1284.83,996.192 1288.87,994.717 1292.88,993.222 1296.86,991.703 1300.81,990.164 1304.73,988.604 1308.63,987.021 1312.5,985.418 1316.34,983.794 1320.15,982.149 1323.93,980.483 1327.68,978.797 1331.4,977.091 1335.09,975.365 1338.75,973.618 1342.39,971.851 1345.99,970.065 1349.55,968.259 1353.09,966.434 1356.6,964.589 1360.07,962.726 1363.51,960.843 "/>
     <polygon id="_307099240" class="fil1" points="804.95,1009.7 1940.83,2145.58 1936.54,2144.34 1932.27,2143.06 1928.03,2141.77 1923.81,2140.45 1919.62,2139.11 1915.45,2137.75 1911.31,2136.36 1907.2,2134.96 1903.11,2133.53 1899.05,2132.07 1895.01,2130.6 1891.01,2129.1 1887.03,2127.59 1883.07,2126.05 1879.15,2124.49 1875.25,2122.9 1871.38,2121.3 1867.55,2119.68 1863.73,2118.03 1859.95,2116.37 1856.2,2114.68 1852.48,2112.97 1848.79,2111.25 1845.13,2109.5 1841.5,2107.73 1837.9,2105.95 1834.33,2104.14 1830.79,2102.32 1827.29,2100.47 1823.81,2098.61 1820.37,2096.73 1816.96,2094.82 681.081,958.941 684.49,960.843 687.931,962.726 691.405,964.589 694.91,966.434 698.448,968.259 702.016,970.065 705.616,971.851 709.247,973.618 712.908,975.365 716.599,977.091 720.321,978.797 724.073,980.483 727.854,982.149 731.664,983.794 735.503,985.418 739.371,987.021 743.267,988.604 747.192,990.164 751.144,991.703 755.124,993.222 759.133,994.717 763.168,996.192 767.229,997.644 771.317,999.074 775.432,1000.48 779.573,1001.87 783.739,1003.23 787.932,1004.57 792.148,1005.89 796.391,1007.18 800.658,1008.45 "/>
     <polygon id="_307099936" class="fil1" points="681.081,958.941 1816.96,2094.82 1808.41,2089.89 1800.07,2084.83 1791.95,2079.65 1784.04,2074.36 1776.36,2068.95 1768.9,2063.43 1761.68,2057.79 1754.68,2052.05 1747.93,2046.2 1741.42,2040.25 605.535,904.365 612.047,910.318 618.801,916.166 625.795,921.909 633.022,927.543 640.479,933.066 648.162,938.476 656.069,943.771 664.193,948.948 672.532,954.005 "/>
     <polygon id="_307099864" class="fil1" points="1024,1584 2159.88,2719.88 2148.6,2719.84 2137.38,2719.69 2126.23,2719.46 2115.14,2719.14 2104.13,2718.72 2093.19,2718.22 2082.33,2717.64 2071.54,2716.97 2060.85,2716.23 2050.23,2715.4 2039.71,2714.49 2029.28,2713.51 2018.94,2712.46 2008.7,2711.34 1998.56,2710.14 1988.53,2708.88 1978.6,2707.55 1968.78,2706.16 1959.08,2704.7 1949.49,2703.19 1940.01,2701.61 1930.66,2699.98 1921.43,2698.3 1912.33,2696.56 1903.36,2694.77 1894.52,2692.93 1885.81,2691.04 1877.25,2689.11 1868.83,2687.13 1860.55,2685.11 1852.41,2683.06 1844.43,2680.96 708.55,1545.08 716.532,1547.17 724.665,1549.23 732.944,1551.25 741.368,1553.23 749.933,1555.16 758.637,1557.04 767.476,1558.88 776.448,1560.67 785.549,1562.41 794.779,1564.1 804.131,1565.73 813.604,1567.3 823.196,1568.82 832.902,1570.27 842.721,1571.67 852.649,1573 862.684,1574.26 872.822,1575.45 883.061,1576.58 893.398,1577.63 903.829,1578.61 914.352,1579.52 924.964,1580.34 935.663,1581.09 946.445,1581.76 957.307,1582.34 968.246,1582.84 979.26,1583.25 990.346,1583.58 1001.5,1583.81 1012.72,1583.95 "/>
     <polygon id="_307099672" class="fil1" points="708.55,1545.08 1844.43,2680.96 1834.38,2678.2 1824.58,2675.36 1815.01,2672.43 1805.7,2669.44 1796.64,2666.37 1787.85,2663.23 1779.32,2660.03 1771.05,2656.77 1763.07,2653.46 1755.37,2650.1 1747.95,2646.68 1740.82,2643.23 1734,2639.73 1727.47,2636.19 1721.25,2632.63 1715.34,2629.04 1709.75,2625.42 1704.49,2621.78 1699.55,2618.12 1694.95,2614.45 559.065,1478.57 563.669,1482.24 568.607,1485.9 573.873,1489.54 579.462,1493.15 585.369,1496.75 591.589,1500.31 598.114,1503.85 604.943,1507.34 612.069,1510.8 619.485,1514.21 627.188,1517.58 635.174,1520.89 643.434,1524.15 651.965,1527.35 660.762,1530.49 669.82,1533.55 679.133,1536.55 688.695,1539.47 698.503,1542.32 "/>
     <polygon id="_307100008" class="fil1" points="1516.31,1434.97 2652.19,2570.85 2651.99,2574.37 2651.39,2577.92 2650.41,2581.51 2649.03,2585.11 2647.28,2588.74 2645.16,2592.39 2642.66,2596.06 2639.8,2599.73 2636.58,2603.41 2633.01,2607.1 2629.08,2610.78 2624.82,2614.45 2620.21,2618.12 2615.27,2621.78 2610.01,2625.42 2604.42,2629.04 2598.51,2632.63 2592.29,2636.2 2585.77,2639.73 2578.94,2643.23 2571.81,2646.68 2564.4,2650.1 2556.69,2653.46 2548.71,2656.77 2540.45,2660.03 2531.92,2663.23 2523.12,2666.37 2514.06,2669.44 2504.75,2672.43 2495.19,2675.36 2485.38,2678.2 2475.33,2680.96 1339.45,1545.08 1349.5,1542.32 1359.3,1539.47 1368.87,1536.55 1378.18,1533.55 1387.24,1530.49 1396.03,1527.35 1404.57,1524.15 1412.83,1520.89 1420.81,1517.58 1428.51,1514.21 1435.93,1510.8 1443.06,1507.34 1449.89,1503.85 1456.41,1500.31 1462.63,1496.75 1468.54,1493.15 1474.13,1489.54 1479.39,1485.9 1484.33,1482.24 1488.94,1478.57 1493.2,1474.9 1497.13,1471.21 1500.7,1467.53 1503.92,1463.85 1506.78,1460.18 1509.28,1456.51 1511.4,1452.86 1513.15,1449.23 1514.52,1445.62 1515.51,1442.04 1516.11,1438.49 "/>
     <polygon id="_307100032" class="fil1" points="1339.45,1545.08 2475.33,2680.96 2467.35,2683.06 2459.22,2685.11 2450.94,2687.13 2442.51,2689.11 2433.95,2691.04 2425.24,2692.93 2416.41,2694.77 2407.43,2696.56 2398.33,2698.3 2389.1,2699.98 2379.75,2701.61 2370.28,2703.19 2360.69,2704.7 2350.98,2706.16 2341.16,2707.55 2331.23,2708.88 2321.2,2710.14 2311.06,2711.34 2300.82,2712.46 2290.49,2713.51 2280.05,2714.49 2269.53,2715.4 2258.92,2716.23 2248.22,2716.97 2237.44,2717.64 2226.58,2718.22 2215.64,2718.72 2204.62,2719.14 2193.54,2719.46 2182.38,2719.69 2171.16,2719.84 2159.88,2719.88 1024,1584 1035.28,1583.95 1046.5,1583.81 1057.66,1583.58 1068.74,1583.25 1079.76,1582.84 1090.7,1582.34 1101.56,1581.76 1112.34,1581.09 1123.04,1580.34 1133.65,1579.52 1144.17,1578.61 1154.6,1577.63 1164.94,1576.58 1175.18,1575.45 1185.32,1574.26 1195.35,1573 1205.28,1571.67 1215.1,1570.27 1224.81,1568.82 1234.4,1567.3 1243.87,1565.73 1253.22,1564.1 1262.45,1562.41 1271.55,1560.67 1280.53,1558.88 1289.36,1557.04 1298.07,1555.16 1306.63,1553.23 1315.06,1551.25 1323.34,1549.23 1331.47,1547.17 "/>
     <polygon id="_307099576" class="fil1" points="1466.01,623.743 2601.89,1759.63 2607.13,1766.06 2612.11,1772.59 2616.81,1779.21 2621.24,1785.92 2625.39,1792.7 2629.26,1799.57 2632.84,1806.52 2636.13,1813.55 2639.13,1820.65 2641.83,1827.82 2644.22,1835.06 2646.31,1842.37 2648.09,1849.75 2649.55,1857.19 2650.7,1864.69 2651.52,1872.25 2652.02,1879.86 2652.19,1887.53 1516.31,751.651 1516.14,743.98 1515.64,736.364 1514.82,728.804 1513.67,721.303 1512.21,713.865 1510.43,706.489 1508.34,699.178 1505.94,691.935 1503.25,684.764 1500.25,677.664 1496.96,670.639 1493.38,663.69 1489.51,656.821 1485.36,650.033 1480.93,643.329 1476.23,636.712 1471.25,630.182 "/>
     <polygon id="_307099744" class="fil1" points="1516.31,751.651 2652.19,1887.53 2652.02,1895.2 2651.52,1902.82 2650.7,1910.38 2649.55,1917.88 2648.09,1925.32 2646.31,1932.69 2644.22,1940.01 2641.83,1947.25 2639.13,1954.42 2636.13,1961.52 2632.84,1968.54 2629.26,1975.49 2625.39,1982.36 2621.24,1989.15 2616.81,1995.85 2612.11,2002.47 2607.13,2009 2601.89,2015.44 2596.39,2021.79 2590.63,2028.04 2584.61,2034.19 2578.35,2040.25 2571.83,2046.2 2565.08,2052.05 2558.09,2057.79 2550.86,2063.43 2543.4,2068.95 2535.72,2074.36 2527.81,2079.65 2519.69,2084.83 2511.35,2089.89 2502.8,2094.82 1366.92,958.941 1375.47,954.005 1383.81,948.948 1391.93,943.771 1399.84,938.476 1407.52,933.066 1414.98,927.543 1422.21,921.909 1429.2,916.166 1435.95,910.318 1442.47,904.365 1448.73,898.311 1454.75,892.156 1460.51,885.904 1466.01,879.558 1471.25,873.119 1476.22,866.59 1480.93,859.972 1485.36,853.268 1489.51,846.48 1493.38,839.611 1496.96,832.662 1500.25,825.637 1503.25,818.538 1505.94,811.366 1508.34,804.123 1510.43,796.812 1512.21,789.436 1513.67,781.998 1514.82,774.497 1515.64,766.938 1516.14,759.321 "/>
     <polygon id="_307100944" class="fil1" points="1516.31,1172.38 2652.19,2308.27 2652.19,2570.85 1516.31,1434.97 "/>
     <polygon id="_307100560" class="fil1" points="1488.78,1110.11 2624.66,2245.99 2628.63,2250.44 2632.31,2254.96 2635.69,2259.53 2638.77,2264.16 2641.54,2268.85 2644,2273.59 2646.15,2278.39 2647.98,2283.25 2649.48,2288.15 2650.66,2293.11 2651.5,2298.11 2652.02,2303.17 2652.19,2308.27 1516.31,1172.38 1516.13,1167.28 1515.62,1162.23 1514.78,1157.23 1513.6,1152.27 1512.1,1147.37 1510.27,1142.51 1508.12,1137.71 1505.66,1132.97 1502.89,1128.28 1499.81,1123.64 1496.43,1119.07 1492.75,1114.56 "/>
    </g>
    <path id="_300482456" class="fil1" d="M1516.31 1172.38l0 262.584c0,37.3418 -68.426,81.1146 -176.855,110.11 -84.3331,22.552 -194.778,38.9233 -315.449,38.9233 -120.671,0 -231.117,-16.3713 -315.451,-38.9233 -108.428,-28.9949 -176.854,-72.7678 -176.855,-110.111l0 -262.584c0,-54.6355 58.6465,-101.581 153.463,-133.312 35.0918,-11.7437 75.4713,-21.6839 119.792,-29.3693 -45.9083,-13.1847 -87.6804,-30.3768 -123.869,-50.7603 -92.2973,-51.9851 -149.386,-125.19 -149.386,-207.291 0,-82.1009 57.0874,-155.306 149.386,-207.291 88.1505,-49.6512 209.424,-80.3611 342.92,-80.3611 133.495,0 254.769,30.7099 342.919,80.3611 92.2985,51.9851 149.386,125.19 149.386,207.291 0,82.1009 -57.0898,155.306 -149.386,207.291 -36.189,20.3835 -77.9611,37.5756 -123.869,50.7603 44.3209,7.68544 84.7005,17.6256 119.792,29.3693 94.8166,31.7315 153.462,78.6768 153.462,133.313z"/>
   </g>
  </g>
  <path class="fil2" d="M1024 -0.0011811c565.539,0 1024,458.462 1024,1024 0,565.539 -458.462,1024 -1024,1024 -565.539,0 -1024,-458.462 -1024,-1024 0,-565.539 458.462,-1024 1024,-1024z"/>
  <path class="fil3" d="M1516.31 1172.38l0 262.584c0,37.3418 -68.426,81.1146 -176.855,110.11 -84.3331,22.552 -194.778,38.9233 -315.449,38.9233 -120.671,0 -231.117,-16.3713 -315.451,-38.9233 -108.428,-28.9949 -176.854,-72.7678 -176.855,-110.111l0 -262.584c0,-54.6355 58.6465,-101.581 153.463,-133.312 87.1914,-29.178 207.03,-47.2252 338.843,-47.2252 131.813,0 251.651,18.0473 338.842,47.2252 94.8166,31.7315 153.462,78.6768 153.462,133.313z"/>
  <path class="fil4" d="M1347.83 1083.93c-82.3985,-27.574 -196.852,-44.6292 -323.825,-44.6292 -126.975,0 -241.428,17.0551 -323.827,44.6292 -74.7721,25.0229 -121.023,56.4851 -121.023,88.4505 0,31.9666 46.2508,63.4288 121.023,88.4505 82.3985,27.5752 196.852,44.6303 323.827,44.6303 126.973,0 241.427,-17.0551 323.825,-44.6303 74.7721,-25.0217 121.023,-56.4839 121.023,-88.4505 0,-31.9654 -46.2508,-63.4276 -121.023,-88.4505z"/>
  <path class="fil5" d="M838.348 1412.58c-12.848,-2.30433 -25.1327,6.24449 -27.437,19.0925 -2.30315,12.848 6.24567,25.1327 19.0937,27.4358 62.2099,11.185 123.737,15.998 184.461,15.6095 60.802,-0.389764 120.638,-5.94922 179.432,-15.5173 12.8988,-2.09764 21.6555,-14.2571 19.5579,-27.1559 -2.09882,-12.9012 -14.2583,-21.6567 -27.1583,-19.5579 -56.7083,9.22796 -114.102,14.589 -172.017,14.9599 -57.9898,0.370866 -116.678,-4.21418 -175.932,-14.8665z"/>
  <path class="fil6" d="M1366.92 958.941c-88.1505,49.6512 -209.424,80.3611 -342.919,80.3611 -133.497,0 -254.77,-30.7099 -342.92,-80.3611 -92.2973,-51.9851 -149.386,-125.19 -149.386,-207.291 0,-82.1009 57.0874,-155.306 149.386,-207.291 88.1505,-49.6512 209.424,-80.3611 342.92,-80.3611 133.495,0 254.769,30.7099 342.919,80.3611 92.2985,51.9851 149.386,125.19 149.386,207.291 0,82.1009 -57.0898,155.306 -149.386,207.291z"/>
 </g>
</svg>
