<?xml version="1.0" encoding="UTF-8"?>
<!DOCTYPE svg PUBLIC "-//W3C//DTD SVG 1.1//EN" "http://www.w3.org/Graphics/SVG/1.1/DTD/svg11.dtd">
<!-- Creator: CorelDRAW -->
<svg xmlns="http://www.w3.org/2000/svg" xml:space="preserve" width="2048px" height="2048px" style="shape-rendering:geometricPrecision; text-rendering:geometricPrecision; image-rendering:optimizeQuality; fill-rule:evenodd; clip-rule:evenodd"
viewBox="0 0 2048 2048"
 xmlns:xlink="http://www.w3.org/1999/xlink">
 <defs>
  <style type="text/css">
   <![CDATA[
    .fil2 {fill:none}
    .fil3 {fill:#2B7AE7}
    .fil1 {fill:#4DD0E1}
    .fil5 {fill:#72767A}
    .fil0 {fill:#B2EBF2}
    .fil8 {fill:#E64A19}
    .fil6 {fill:#F4511E}
    .fil7 {fill:#FF7043}
    .fil9 {fill:white}
    .fil4 {fill:#5A5F67;fill-rule:nonzero}
   ]]>
  </style>
   <clipPath id="id0">
    <path d="M1024 -0.0011811c565.539,0 1024,458.462 1024,1024 0,565.539 -458.462,1024 -1024,1024 -565.539,0 -1024,-458.462 -1024,-1024 0,-565.539 458.462,-1024 1024,-1024z"/>
   </clipPath>
 </defs>
 <g id="Layer_x0020_1">
  <metadata id="CorelCorpID_0Corel-Layer"/>
  <path class="fil0" d="M1024 -0.0011811c565.539,0 1024,458.462 1024,1024 0,565.539 -458.462,1024 -1024,1024 -565.539,0 -1024,-458.462 -1024,-1024 0,-565.539 458.462,-1024 1024,-1024z"/>
  <g style="clip-path:url(#id0)">
   <g id="_300480992">
    <g>
     <polygon id="_3070980401" class="fil1" points="1530.32,617.671 2666.2,1753.55 2674.59,1765.07 2677.46,1777.42 1541.58,641.533 1538.7,629.188 "/>
     <polygon id="_307098304" class="fil1" points="1541.58,641.533 2677.46,1777.42 2677.46,1947.05 1541.58,811.166 "/>
     <polygon id="_307099360" class="fil1" points="1541.58,811.166 2677.46,1947.05 2677.36,1949.48 2677.04,1951.88 2676.51,1954.25 2675.77,1956.59 2674.83,1958.9 2673.69,1961.18 2672.35,1963.42 2670.81,1965.64 2669.08,1967.83 2667.16,1969.98 2665.05,1972.11 2662.75,1974.2 2660.27,1976.27 2657.6,1978.3 2654.76,1980.31 2651.74,1982.28 1515.86,846.396 1518.88,844.423 1521.72,842.42 1524.39,840.385 1526.87,838.32 1529.17,836.226 1531.28,834.1 1533.2,831.944 1534.93,829.758 1536.47,827.541 1537.81,825.294 1538.95,823.016 1539.89,820.707 1540.63,818.368 1541.16,815.998 1541.48,813.597 "/>
     <polygon id="_307099072" class="fil1" points="1515.86,846.396 2651.74,1982.28 2651.74,2749.11 1515.86,1613.22 "/>
     <polygon id="_307098712" class="fil1" points="564.141,844.893 1700.02,1980.78 1697,1978.87 1694.16,1976.93 1691.5,1974.97 1689.01,1972.98 1686.72,1970.96 550.835,835.079 553.133,837.095 555.616,839.084 558.28,841.047 561.122,842.983 "/>
     <polygon id="_307098976" class="fil1" points="1515.86,1613.22 2651.74,2749.11 2622.35,2754.23 2593.05,2759.12 2563.82,2763.76 2534.65,2768.14 2505.54,2772.26 2476.48,2776.1 2447.44,2779.65 2418.43,2782.91 2389.43,2785.87 2360.43,2788.51 2331.41,2790.83 2302.37,2792.82 2273.3,2794.47 2244.18,2795.77 2215.01,2796.71 2185.78,2797.28 2156.46,2797.48 2127.06,2797.28 2097.56,2796.7 2067.94,2795.7 2038.21,2794.3 2008.35,2792.46 1978.34,2790.2 1948.17,2787.5 1917.85,2784.34 1887.35,2780.72 1856.66,2776.64 1825.77,2772.07 1794.67,2767.02 1763.36,2761.47 1731.81,2755.41 1700.02,2748.83 564.141,1612.95 595.928,1619.53 627.474,1625.58 658.79,1631.13 689.886,1636.19 720.774,1640.75 751.464,1644.84 781.966,1648.46 812.293,1651.61 842.456,1654.32 872.464,1656.58 902.33,1658.41 932.063,1659.82 961.676,1660.81 991.178,1661.4 1020.58,1661.59 1049.9,1661.4 1079.13,1660.83 1108.3,1659.89 1137.42,1658.59 1166.49,1656.94 1195.53,1654.95 1224.54,1652.63 1253.55,1649.99 1282.55,1647.03 1311.56,1643.77 1340.6,1640.22 1369.66,1636.38 1398.77,1632.26 1427.94,1627.88 1457.16,1623.24 1486.47,1618.35 "/>
    </g>
    <path id="_300481064" class="fil1" d="M538.419 641.533c0,-130.367 1003.16,-136.108 1003.16,0l0 169.634c0,13.0488 -9.15709,24.7855 -25.7221,35.2299l0 766.827c-314.007,55.9359 -611.325,72.6249 -951.719,-0.270473l0 -768.06c-16.565,-10.1138 -25.7221,-21.3626 -25.7221,-33.7264l0 -169.634z"/>
   </g>
  </g>
  <path class="fil2" d="M1024 -0.0011811c565.539,0 1024,458.462 1024,1024 0,565.539 -458.462,1024 -1024,1024 -565.539,0 -1024,-458.462 -1024,-1024 0,-565.539 458.462,-1024 1024,-1024z"/>
  <path class="fil3" d="M1515.86 828.129l0 785.094c-314.007,55.9359 -611.325,72.6249 -951.719,-0.270473l0 -784.823c167.648,82.9241 764.651,92.53 951.719,0z"/>
  <path class="fil4" d="M1541.58 641.533l0 169.634c0,136.578 -1003.16,129.411 -1003.16,0l0 -169.634c0,-130.367 1003.16,-136.108 1003.16,0z"/>
  <ellipse class="fil5" cx="1047.79" cy="653.39" rx="442.349" ry="77.1664"/>
  <path class="fil6" d="M923.704 1155.03c-17.276,4.33229 -33.9614,10.3122 -49.115,18.2043 -25.0795,13.063 -52.9276,35.6988 -52.9276,66.6615 0,30.9626 27.8469,53.5996 52.9276,66.6615 15.3083,7.97363 32.1815,13.9961 49.6465,18.339 7.62402,-27.7181 11.6126,-56.1414 11.4768,-84.9662 -0.134646,-28.7776 -4.37481,-57.2056 -12.0083,-84.9001z"/>
  <path class="fil7" d="M1258.34 1343.31l-0.0531496 -0.67441c-1.49055,-18.9851 -2.64803,-41.7744 -11.3268,-59.041 -7.74095,-15.4004 -21.1843,-26.4744 -35.1059,-36.1146l-10.4197 -7.21418 10.3417 -7.32402c13.4776,-9.5445 26.3965,-20.4484 33.7607,-35.5571 8.27127,-16.9665 9.30946,-39.6603 10.7681,-58.2343l0.0531496 -0.67441 -0.67441 0.0661418c-2.3374,0.23504 -4.67481,0.467717 -7.01221,0.699213 -13.3299,1.32165 -27.0012,2.51103 -40.1847,4.86851 -9.36024,1.67244 -18.6614,4.05 -27.1453,8.45198 -11.6102,6.02481 -20.3421,15.2528 -28.1055,25.6122l-4.93701 6.58819 -6.93898 -4.42914c-17.2843,-11.0327 -37.2532,-18.8067 -56.9941,-24.1264 -26.7284,-7.20119 -54.8741,-10.4315 -82.5272,-10.4315 -22.6465,0 -54.8245,4.14331 -78.1335,9.25985l0.531496 169.866c23.1355,5.03032 55.1351,9.1252 77.602,9.1252 27.763,0 56.0304,-3.25512 82.8544,-10.5213 19.7351,-5.34567 39.6945,-13.1575 56.9528,-24.2339l7.07599 -4.54134 4.91693 6.82205c7.76575,10.7752 16.5697,20.4378 28.3855,26.8134 8.94686,4.82835 18.8386,7.4067 28.7847,9.21615 14.1638,2.57717 28.8921,3.86221 43.2189,5.29607l4.31221 0.432284z"/>
  <path class="fil8" d="M1021.1 1190.13c-2.08229,-4.77874 -7.64528,-6.96378 -12.424,-4.88032 -4.77874,2.08229 -6.96378,7.64528 -4.8815,12.424 6.66142,15.163 9.47127,28.813 9.21615,41.2583 -0.251575,12.1913 -3.49134,23.4236 -8.95749,33.939 -2.40945,4.63583 -0.604725,10.3476 4.03111,12.7571 4.63583,2.40945 10.3476,0.604725 12.7571,-4.03111 6.72284,-12.9331 10.7114,-26.9126 11.028,-42.2953 0.311811,-15.1311 -2.97284,-31.4233 -10.7693,-49.1717z"/>
  <path class="fil8" d="M1081.17 1190.13c-2.08347,-4.77874 -7.64646,-6.96378 -12.4252,-4.88032 -4.77874,2.08229 -6.96378,7.64528 -4.88032,12.424 6.66024,15.163 9.47127,28.813 9.21497,41.2583 -0.250394,12.1913 -3.49016,23.4236 -8.95631,33.939 -2.40945,4.63583 -0.605906,10.3476 4.02992,12.7571 4.63583,2.40945 10.3488,0.604725 12.7583,-4.03111 6.72166,-12.9331 10.7114,-26.9126 11.0268,-42.2953 0.311811,-15.1311 -2.97166,-31.4233 -10.7681,-49.1717z"/>
  <path class="fil9" d="M875.852 1212.49c6.99567,0 12.6662,5.67048 12.6662,12.6662 0,6.99567 -5.67048,12.6662 -12.6662,12.6662 -6.99449,0 -12.6662,-5.67048 -12.6662,-12.6662 0,-6.99567 5.67166,-12.6662 12.6662,-12.6662z"/>
 </g>
</svg>
