<svg xmlns="http://www.w3.org/2000/svg" viewBox="0 0 512 512"><defs><style>.cls-1{fill:#313d74;}.cls-2{fill:#f1ce34;}.cls-3{fill:#ccaf2f;}.cls-4{fill:#eaac2e;}.cls-5{fill:#d49a2b;}.cls-6{fill:#f0c788;}.cls-7{fill:#dbb682;}.cls-8{fill:#b6966e;}.cls-9{fill:#cea978;}.cls-10{fill:#fff;}.cls-11{fill:#dc7da7;}.cls-12{fill:#c27135;}.cls-13{fill:#76c27d;}.cls-14{fill:#9b112e;}</style></defs><title>Food</title><g id="BULINE"><circle class="cls-1" cx="256" cy="256" r="256"/></g><g id="Icons"><path class="cls-2" d="M337.06,88.74,321.56,137l-34,105.81a10.54,10.54,0,0,1-8.7,7.23,10.38,10.38,0,0,1-2.67,0h0a9.35,9.35,0,0,1-.92-.18,4.47,4.47,0,0,1-.63-.16l-.32-.08-8.17-2.63-3.71-1.19h0l-.84-.27a2,2,0,0,1-.34-.12,3.61,3.61,0,0,1-.46-.17,10.28,10.28,0,0,1-3.46-2.32,10.55,10.55,0,0,1-2.52-10.63l1.18-3.64,3.25-10.14,14-43.63L285.41,137l18.88-58.75A10.53,10.53,0,0,1,315.58,71a1.55,1.55,0,0,1,.31,0l.55.1a10.54,10.54,0,0,1,1.07.28l.47.15,12.28,3.94a3.2,3.2,0,0,1,.43.17,4.13,4.13,0,0,1,.45.17l.44.2a4.51,4.51,0,0,1,.44.22A10.52,10.52,0,0,1,337.06,88.74Z"/><path class="cls-3" d="M332,76.25a10.53,10.53,0,0,0-11.37,7.22L303.46,137l-26.82,83.45-5.5,17.09a10.53,10.53,0,0,0,5,12.49h0a9.35,9.35,0,0,1-.92-.18,4.47,4.47,0,0,1-.63-.16l-.32-.08-8.17-2.63-3.71-1.2-.84-.27a2,2,0,0,1-.34-.12h0a2.51,2.51,0,0,1-.46-.16,10.28,10.28,0,0,1-3.46-2.32,10.52,10.52,0,0,1-2.55-10.63l1.18-3.68,3.28-10.18,14-43.62L285.37,137l18.9-58.76A10.5,10.5,0,0,1,315.58,71a1.55,1.55,0,0,1,.31,0l.55.1a10.54,10.54,0,0,1,1.07.28l.47.15,12.25,3.94c.16.06.31.1.46.17a4.13,4.13,0,0,1,.45.17l.44.2A4.51,4.51,0,0,1,332,76.25Z"/><path class="cls-2" d="M263,269.79c-.21.15-.43.29-.65.42s-.56.32-.85.46a7.77,7.77,0,0,1-.88.38l-12.5,4.69h0a11.44,11.44,0,0,1-1.81.51h-.06a10.54,10.54,0,0,1-11.66-6.68L184.74,137l-2.81-7.49-4.25-11.32a10.53,10.53,0,0,1,4.64-12.86c.26-.15.53-.28.8-.41l.68-.28h0l12.49-4.7.47-.16.57-.17A10.53,10.53,0,0,1,209.89,106L221.51,137l17.91,47.66,0,.11,16.47,43.82,0,0,5,13.33,1.43,3.82h0l4.41,11.73A10.53,10.53,0,0,1,263,269.79Z"/><path class="cls-3" d="M262.39,270.21c-.27.16-.56.32-.85.46s-.61.26-.91.38l-12.47,4.69h0a11.44,11.44,0,0,1-1.81.51h-.06a10.53,10.53,0,0,1-11.69-6.67L184.71,137l-2.79-7.44-4.27-11.37a10.5,10.5,0,0,1,4.67-12.86c.26-.15.53-.28.8-.41l.68-.28h0l12.47-4.7c.16,0,.33-.12.49-.16l.57-.17a8,8,0,0,1,.82-.17,10.5,10.5,0,0,0-4.42,12.71L203.11,137,244,245.7l0,.11,6.67,17.74A10.54,10.54,0,0,0,262.39,270.21Z"/><path class="cls-2" d="M272.59,295a9.27,9.27,0,0,1-.94.12h0l-13.33,1a10,10,0,0,1-2.75-.16,10.52,10.52,0,0,1-8.49-9.55l-.76-10.13h0L244,245.81l-4.56-61.08L235.9,137l-.88-11.9a10.51,10.51,0,0,1,5-9.76,9.91,9.91,0,0,1,1.79-.88l.88-.29a11.34,11.34,0,0,1,1.52-.3l.55-.06,11.15-.83,2.14-.16h.38c.32,0,.64,0,1,0l.33,0,.28,0h0a10.5,10.5,0,0,1,9.39,9.66L270.41,137l2.82,37.79v.07l3.41,45.59L278.85,250l2.52,33.83A10.53,10.53,0,0,1,272.59,295Z"/><path class="cls-3" d="M273.54,294.8c-.31.08-.63.15-1,.2a9.27,9.27,0,0,1-.94.12h0l-13.33,1a10,10,0,0,1-2.75-.16A10.5,10.5,0,0,1,247,286.4l-.76-10.13L244,245.7l-4.56-61.08L235.87,137l-.89-11.9a10.52,10.52,0,0,1,5-9.76,9.91,9.91,0,0,1,1.79-.88l.88-.29a11.34,11.34,0,0,1,1.52-.3l.52,0,11.18-.84,2.14-.16h.38a8.06,8.06,0,0,1,1.56,0,10.52,10.52,0,0,0-7.81,11l1,13.19,6.08,81.41v.08L261,241.92l.25,3.42h0L263,269.79l1.15,15.33A10.51,10.51,0,0,0,273.54,294.8Z"/><rect class="cls-2" x="417.68" y="133.07" width="34.42" height="182.84" rx="10.53" transform="matrix(0.92, 0.39, -0.39, 0.92, 123.55, -153.12)"/><path class="cls-3" d="M406.84,311.74a10.36,10.36,0,0,1-1.84-.59l-12.29-5.27a10.53,10.53,0,0,1-5.53-13.82L450.9,143.34a10.53,10.53,0,0,1,13.82-5.53L477,143.08a10.39,10.39,0,0,1,1.71.92,10.53,10.53,0,0,0-12,6.12L403,298.84A10.52,10.52,0,0,0,406.84,311.74Z"/><path class="cls-4" d="M419.36,157.32a47.14,47.14,0,0,1-4.14,19.3l-11.44,25.53c-.41.9-.83,1.79-1.3,2.65a46.63,46.63,0,0,1-6.37,9.28v0a47.71,47.71,0,0,1-20.54,13.57h0a47.14,47.14,0,0,1-34.21-1.74L343,222.3l13.86-30.91v0h0l9-20.05,9-20.1h0L381.2,137h0l8.57-19.14,1.64-3.65a47,47,0,0,1,21.92,20h0c.51.9,1,1.8,1.4,2.73A47.19,47.19,0,0,1,419.36,157.32Z"/><path class="cls-5" d="M397.85,168.83l-6.47,14.46-5,11.08a46.94,46.94,0,0,1-17.51,20.39h0A47.27,47.27,0,0,1,343,222.3l13.86-30.91v0h0l9-20.05h0l9-20.09h0L381.2,137h0l8.57-19.14a47.09,47.09,0,0,1,9.12,14.86c.54,1.4,1,2.84,1.4,4.28A47.08,47.08,0,0,1,397.85,168.83Z"/><path class="cls-5" d="M397.85,168.83l-6.47,14.46-5,11.08a46.94,46.94,0,0,1-17.51,20.39h0A47.27,47.27,0,0,1,343,222.3l13.86-30.91v0h0l9-20.05h0l9-20.09h0L381.2,137h0l8.57-19.14a47.09,47.09,0,0,1,9.12,14.86c.54,1.4,1,2.84,1.4,4.28A47.08,47.08,0,0,1,397.85,168.83Z"/><path class="cls-4" d="M454.08,164.43a47.1,47.1,0,0,1-1.08,10l-5.9,27.36A47.18,47.18,0,0,1,390.93,238l2.74-12.72,2.43-11.2,3.29-15.28L412.75,137l.59-2.73h0l2.6-12h0l.84-3.91a47.3,47.3,0,0,1,37.29,46.15Z"/><path class="cls-5" d="M434.41,170.44l-5.91,27.35a47.2,47.2,0,0,1-31.07,34.79,44.84,44.84,0,0,1-5.65,1.54l1.9-8.81,2.42-11.21v0l3.28-15.26L412.75,137l.59-2.73h0l2.6-12h0a47.13,47.13,0,0,1,12,12.66c.44.69.87,1.39,1.28,2.11A47.09,47.09,0,0,1,434.41,170.44Z"/><path class="cls-5" d="M434.41,170.44l-5.91,27.35a47.2,47.2,0,0,1-31.07,34.79,44.84,44.84,0,0,1-5.65,1.54l1.9-8.81,2.42-11.21v0l3.28-15.26L412.75,137l.59-2.73h0l2.6-12h0a47.13,47.13,0,0,1,12,12.66c.44.69.87,1.39,1.28,2.11A47.09,47.09,0,0,1,434.41,170.44Z"/><path class="cls-4" d="M317.23,191a46.79,46.79,0,0,1-3.57,8.46c-.28.55-.58,1.09-.9,1.61a47.21,47.21,0,0,1-54.68,21L234,214.58h0l-2.61-.8a47.22,47.22,0,0,1-31.09-59.16l3.81,1.18,79.54,24.73,13.83,4.3h0l16,5Z"/><path class="cls-5" d="M313.41,189.79a45.36,45.36,0,0,1-5.87,5.65,44.66,44.66,0,0,1-7.8,5.16l-.86.44a45.29,45.29,0,0,1-6.57,2.69,46.86,46.86,0,0,1-28.59.17L254.53,201l-9.16-2.85-8.37-2.6A47.06,47.06,0,0,1,207.15,168a46.53,46.53,0,0,1-3.08-12.19l79.54,24.73,13.83,4.3h0Z"/><path class="cls-5" d="M313.41,189.79a45.36,45.36,0,0,1-5.87,5.65,44.66,44.66,0,0,1-7.8,5.16l-.86.44a45.29,45.29,0,0,1-6.57,2.69,46.86,46.86,0,0,1-28.59.17L254.53,201l-9.16-2.85-8.37-2.6A47.06,47.06,0,0,1,207.15,168a46.53,46.53,0,0,1-3.08-12.19l79.54,24.73,13.83,4.3h0Z"/><path class="cls-4" d="M402.52,198.45c-.27.88-.57,1.74-.91,2.59a47.19,47.19,0,0,1-58.25,28.51l-26.73-8.31a47.15,47.15,0,0,1-24.32-17.51c-.63-.88-1.23-1.77-1.8-2.69a47.25,47.25,0,0,1-5-39l3.81,1.19,109.34,34Z"/><path class="cls-5" d="M398.69,197.26A41.21,41.21,0,0,1,395,201a47.15,47.15,0,0,1-46,10.35l-26.72-8.32a46.57,46.57,0,0,1-5.36-2c-1.12-.49-2.2-1-3.26-1.61a45,45,0,0,1-6.12-4,46.2,46.2,0,0,1-10.09-10.62h0a47.21,47.21,0,0,1-8.09-21.55Z"/><path class="cls-5" d="M398.69,197.26A41.21,41.21,0,0,1,395,201a47.15,47.15,0,0,1-46,10.35l-26.72-8.32a46.57,46.57,0,0,1-5.36-2c-1.12-.49-2.2-1-3.26-1.61a45,45,0,0,1-6.12-4,46.2,46.2,0,0,1-10.09-10.62h0a47.21,47.21,0,0,1-8.09-21.55Z"/><path class="cls-4" d="M248.38,214.46l-4,0-10.42.09-108.08.93v-.42a47.21,47.21,0,0,1,46.84-47.24l25.4-.23,2.59,0a47.25,47.25,0,0,1,44.65,30.59c.34.94.67,1.89,1,2.85A47.52,47.52,0,0,1,248.38,214.46Z"/><path class="cls-5" d="M172.9,186.87l28-.24a47.24,47.24,0,0,1,43.5,27.86l-114.5,1a47.28,47.28,0,0,1,43-28.6Z"/><path class="cls-5" d="M172.9,186.87l28-.24a47.24,47.24,0,0,1,43.5,27.86l-114.5,1a47.28,47.28,0,0,1,43-28.6Z"/><path class="cls-4" d="M154,228a47,47,0,0,1-20.88,4.89c-.85,0-1.7,0-2.54-.07a47,47,0,0,1-16.75-4h0a47.07,47.07,0,0,1-23.08-22.22l-12.39-25.1a47.25,47.25,0,0,1,21.46-63.3l1.77,3.59,7.5,15.2,17.14,34.71,3.61,7.32h0l0,0,7.54,15.29h0l3.38,6.86h0l11,22.2.52,1.05Z"/><path class="cls-5" d="M152.27,224.44l-.88,0A47,47,0,0,1,135,222l-.81-.28A47.25,47.25,0,0,1,119,212.75l0,0a47.13,47.13,0,0,1-11.18-14.59L95.41,173a47.25,47.25,0,0,1,6.17-51.28l7.5,15.2,17.14,34.71,3.61,7.32h0l0,0,7.54,15.29h0l3.38,6.86h0l11,22.19h0Z"/><path class="cls-5" d="M152.27,224.44l-.88,0A47,47,0,0,1,135,222l-.81-.28A47.25,47.25,0,0,1,119,212.75l0,0a47.13,47.13,0,0,1-11.18-14.59L95.41,173a47.25,47.25,0,0,1,6.17-51.28l7.5,15.2,17.14,34.71,3.61,7.32h0l0,0,7.54,15.29h0l3.38,6.86h0l11,22.19h0Z"/><path class="cls-4" d="M176.69,209.91c-1.38.11-2.75.17-4.12.17a47.23,47.23,0,0,1-30.92-11.58,49.32,49.32,0,0,1-4.25-4.18h0a47,47,0,0,1-8.26-13s0,0,0-.05a46.4,46.4,0,0,1-2.89-9.58,44.7,44.7,0,0,1-.67-4.8L123.15,139c-.05-.67-.1-1.35-.13-2a47.25,47.25,0,0,1,43.15-49.1l.35,4,.6,7h0L168.51,115h0l1.9,22,1.93,22.38,4,46.58Z"/><path class="cls-5" d="M176.34,205.92a47.24,47.24,0,0,1-15.18-8.57c-.28-.23-.54-.47-.81-.72a47.13,47.13,0,0,1-15.85-31.38l-2.15-25.08v-.07l-.24-2.74,0-.4a47.22,47.22,0,0,1,24.45-45.12l.6,7h0L168.51,115h0l1.9,22,1.93,22.38Z"/><path class="cls-5" d="M176.34,205.92a47.24,47.24,0,0,1-15.18-8.57c-.28-.23-.54-.47-.81-.72a47.13,47.13,0,0,1-15.85-31.38l-2.15-25.08v-.07l-.24-2.74,0-.4a47.22,47.22,0,0,1,24.45-45.12l.6,7h0L168.51,115h0l1.9,22,1.93,22.38Z"/><path class="cls-2" d="M429.82,276.59h0l-.05.05a2.85,2.85,0,0,1-.49.34,2.63,2.63,0,0,1-.41.27,5.15,5.15,0,0,1-.61.36l-.06,0-11.87,6.13-.55.26a10.52,10.52,0,0,1-13.61-4.81l-26.6-51.55-6.66-12.91-12.08-23.39h0L328.74,137l-.77-1.51A10.52,10.52,0,0,1,330.08,123q.45-.42,1-.81a9.88,9.88,0,0,1,1.43-.9l11.87-6.12a9.43,9.43,0,0,1,1.47-.63l.34-.1h0a10.53,10.53,0,0,1,12.4,5.25L367.47,137l7.35,14.24h0l16.56,32.08,8,15.53,3.09,6,10,19.39,6,11.53,14.3,27.72A10.52,10.52,0,0,1,429.82,276.59Z"/><path class="cls-3" d="M429.81,276.59l-.05.05a3.54,3.54,0,0,1-.49.34,2.63,2.63,0,0,1-.41.27,5.15,5.15,0,0,1-.61.36l-.06,0-11.87,6.13-.55.26a10.52,10.52,0,0,1-13.63-4.8l-26.61-51.55-6.65-12.91-12.07-23.38L328.72,137l-.78-1.51A10.5,10.5,0,0,1,330.08,123q.45-.42,1-.81a9.88,9.88,0,0,1,1.43-.9l11.87-6.12a9.43,9.43,0,0,1,1.47-.63l.34-.1a10.52,10.52,0,0,0-2.91,13.15l4.85,9.39,17.72,34.34h0l16,31.07,8.76,17,3.06,5.93h0l3.75,7.27,3.36,6.52,16.65,32.25A10.49,10.49,0,0,0,429.81,276.59Z"/><rect class="cls-2" x="64.74" y="120.49" width="34.42" height="182.84" rx="10.53" transform="translate(-122.01 111.81) rotate(-42.72)"/><path class="cls-3" d="M150.16,273.13a10.38,10.38,0,0,1-1.3,1.44L139,283.64a10.53,10.53,0,0,1-14.87-.6L14.41,164.17A10.53,10.53,0,0,1,15,149.3l9.82-9.07a10.85,10.85,0,0,1,1.54-1.18,10.53,10.53,0,0,0,.7,13.44L136.81,271.37A10.53,10.53,0,0,0,150.16,273.13Z"/><path class="cls-2" d="M186.24,116.07l-4.31,13.4v.05L179.53,137l-7.19,22.38-12,37.29-3.46,10.75-5.14,16h0l-.36,1.07-1.74,5.46-12.92,40.17a10.51,10.51,0,0,1-11.38,7.21h0l-.47-.06-.48-.1-.39-.09c-.19-.05-.37-.1-.56-.17l-12.7-4.08a12.27,12.27,0,0,1-1.55-.63l-.06,0a11.1,11.1,0,0,1-1.41-.87,5.78,5.78,0,0,1-.67-.53,10.55,10.55,0,0,1-3.1-11.17l9.89-30.76L119,212.75l10.11-31.45.72-2.27,12.5-38.86,1-3.21,10.1-31.42a10.55,10.55,0,0,1,10.84-7.28c.26,0,.51,0,.77.08s.53.1.8.16.56.14.84.23l.4.13L179,102.67l.44.14h0c.31.1.6.22.89.34s.59.27.87.42a9.82,9.82,0,0,1,1.92,1.3A10.55,10.55,0,0,1,186.24,116.07Z"/><path class="cls-3" d="M181.2,103.58a10.5,10.5,0,0,0-11.35,7.21L168.51,115h0l-7.08,22-13.56,42.19-6.22,19.35-.87,2.68h0l-6.59,20.51-3.58,11.14-10.28,32a10.51,10.51,0,0,0,5,12.48l-.47-.06-.48-.1-.39-.09c-.19-.05-.37-.1-.56-.17l-12.7-4.08h0a10.91,10.91,0,0,1-1.53-.63l-.06,0a8.09,8.09,0,0,1-1.41-.87,5.78,5.78,0,0,1-.67-.53,10.56,10.56,0,0,1-3.14-11.18l9.89-30.76L119,212.73l10.13-31.48.72-2.25h0l12.51-38.89,1-3.14,10.1-31.43a10.51,10.51,0,0,1,10.86-7.27c.26,0,.51,0,.77.08s.53.1.8.16.54.14.81.23l.43.14,11.85,3.8.44.14h0c.31.1.6.22.89.34S180.92,103.43,181.2,103.58Z"/><path class="cls-6" d="M407.35,388.47h-303a37.77,37.77,0,0,1-37.42-32.56L47,213.23H464.65L444.77,355.91A37.78,37.78,0,0,1,407.35,388.47Z"/><path class="cls-7" d="M174.07,388.47H104.31A37.79,37.79,0,0,1,66.89,355.9L47,213.23h69.77L136.65,355.9A37.78,37.78,0,0,0,174.07,388.47Z"/><path class="cls-8" d="M47,213.23,6.23,256.63A6.49,6.49,0,0,0,11,267.57H54.58Z"/><path class="cls-6" d="M464.45,213.23l40.78,43.4a6.5,6.5,0,0,1-4.73,10.94H456.88Z"/><path class="cls-9" d="M47,213.23,29.17,273.92a13.62,13.62,0,0,0,13.07,17.47H469.77a13.64,13.64,0,0,0,13.06-17.55l-18.18-60.61Z"/><ellipse class="cls-10" cx="254.33" cy="335.08" rx="73.76" ry="39.35"/><ellipse class="cls-11" cx="254.33" cy="335.08" rx="51.12" ry="27.27"/><path class="cls-12" d="M402.52,198.45l-3.83-1.19-109.34-34-3.81-1.19a47.12,47.12,0,0,0-1.93,18.44l-79.54-24.73-3.81-1.18a46.88,46.88,0,0,0-2.13,13l-25.4.23A47.27,47.27,0,0,0,128,201v17.37a9.65,9.65,0,0,0,8.8,9.73,9.43,9.43,0,0,0,10.05-9.41V213.5A12.45,12.45,0,0,1,159.32,201h0a12.46,12.46,0,0,1,12.46,12.46v4.16a9.42,9.42,0,0,0,9.42,9.42h0a9.43,9.43,0,0,0,9.43-9.42v-8.74A7.87,7.87,0,0,1,198.5,201h13.3a7.88,7.88,0,0,1,7.88,7.88h0a9.64,9.64,0,0,0,8.79,9.73,9.43,9.43,0,0,0,10.05-9.41h0a8.2,8.2,0,0,1,8.2-8.2h9.2a8.2,8.2,0,0,1,8.19,8.2v15.6a9.43,9.43,0,0,0,9.43,9.42h0a9.42,9.42,0,0,0,9.42-9.42V214.25A13.21,13.21,0,0,1,296.17,201h1.14a13.22,13.22,0,0,1,13.21,13.21h0a9.65,9.65,0,0,0,8.79,9.73,9.43,9.43,0,0,0,10.06-9.4h0A13.53,13.53,0,0,1,342.9,201h25.92a13.54,13.54,0,0,1,13.53,13.54v13a9.65,9.65,0,0,0,8.8,9.73,9.43,9.43,0,0,0,10.05-9.41V201h.41C402,200.19,402.25,199.33,402.52,198.45Z"/><path class="cls-12" d="M101.58,121.76l7.5,15.2H79.77a47.18,47.18,0,0,1,20-18.79Z"/><path class="cls-12" d="M209.89,106,221.51,137H123a47.25,47.25,0,0,1,43.15-49.1l.35,4,.6,7L179,102.67l.44.14h0c.31.1.6.22.89.34s.59.27.87.42a9.82,9.82,0,0,1,1.92,1.3l.68-.28h0l12.47-4.7c.16,0,.33-.12.49-.16l.57-.17A10.53,10.53,0,0,1,209.89,106Z"/><path class="cls-12" d="M269.33,122.49,270.41,137H235.87l-.89-11.9a10.52,10.52,0,0,1,5-9.76,9.91,9.91,0,0,1,1.79-.88l.88-.29a11.34,11.34,0,0,1,1.52-.3l.55-.06,11.15-.83,2.14-.16h.38c.32,0,.64,0,1,0l.33,0,.28,0h0A10.5,10.5,0,0,1,269.33,122.49Z"/><path class="cls-12" d="M337.06,88.74,321.56,137H285.37l18.9-58.76A10.5,10.5,0,0,1,315.58,71a1.55,1.55,0,0,1,.31,0l.55.1a10.54,10.54,0,0,1,1.07.28l.47.15,12.28,3.94a3.2,3.2,0,0,1,.43.17,4.13,4.13,0,0,1,.45.17l.44.2a4.51,4.51,0,0,1,.44.22A10.52,10.52,0,0,1,337.06,88.74Z"/><path class="cls-12" d="M358.55,119.67,367.47,137H328.72l-.78-1.51A10.5,10.5,0,0,1,330.08,123q.45-.42,1-.81a9.88,9.88,0,0,1,1.43-.9l11.87-6.12a9.43,9.43,0,0,1,1.47-.63l.34-.1h0A10.53,10.53,0,0,1,358.55,119.67Z"/><path class="cls-12" d="M445.23,137h-64l8.57-19.14,1.64-3.65a47,47,0,0,1,21.92,20l2.6-12h0l.84-3.91A47,47,0,0,1,445.23,137Z"/><path class="cls-13" d="M225.11,151.3h1.14a12,12,0,0,1,12,12v0a12,12,0,0,1-12,12h-1.14a0,0,0,0,1,0,0V151.3A0,0,0,0,1,225.11,151.3Z" transform="matrix(0.82, 0.57, -0.57, 0.82, 135.25, -103.25)"/><path class="cls-13" d="M338.74,169.07h1.14a12,12,0,0,1,12,12v0a12,12,0,0,1-12,12h-1.14a0,0,0,0,1,0,0V169.07a0,0,0,0,1,0,0Z" transform="translate(165.91 -165.12) rotate(34.94)"/><path class="cls-13" d="M154.93,174.71h1.14a12,12,0,0,1,12,12v0a12,12,0,0,1-12,12h-1.14a0,0,0,0,1,0,0V174.71a0,0,0,0,1,0,0Z" transform="translate(407.45 166.06) rotate(126.07)"/><path class="cls-13" d="M413.57,178.8h1.14a12,12,0,0,1,12,12v0a12,12,0,0,1-12,12h-1.14a0,0,0,0,1,0,0V178.8A0,0,0,0,1,413.57,178.8Z" transform="matrix(-0.59, 0.81, -0.81, -0.59, 821.68, -36.52)"/><path class="cls-13" d="M81.59,177h1.14a12,12,0,0,1,12,12v0a12,12,0,0,1-12,12H81.59a0,0,0,0,1,0,0V177a0,0,0,0,1,0,0Z" transform="matrix(0.3, 0.95, -0.95, 0.3, 242.29, 48.54)"/><path class="cls-13" d="M268.49,187.91h1.14a12,12,0,0,1,12,12v0a12,12,0,0,1-12,12h-1.14a0,0,0,0,1,0,0V187.91A0,0,0,0,1,268.49,187.91Z" transform="translate(383.88 -122.24) rotate(72.66)"/><path class="cls-14" d="M475.1,388.47a256.07,256.07,0,0,1-438.2,0Z"/></g></svg>