<svg xmlns="http://www.w3.org/2000/svg" viewBox="0 0 512 512"><defs><style>.cls-1{fill:#313d74;}.cls-2{fill:#dc7da7;}.cls-3{fill:#aadee6;}.cls-4{fill:#fff;}.cls-5{fill:#d4d6d6;}.cls-6{fill:#98c4c7;}.cls-7{fill:#c27135;}.cls-8{fill:#db3a46;}.cls-9{fill:#d28950;}.cls-10{fill:#8ed685;}.cls-11{fill:#f0c788;}.cls-12{fill:#d3ae7f;}</style></defs><title>Food</title><g id="BULINE"><circle class="cls-1" cx="256" cy="256" r="256"/></g><g id="Icons"><path class="cls-2" d="M483.46,373.55a256.07,256.07,0,0,1-454.92,0Z"/><path class="cls-3" d="M422.18,257.22c.06-.06.11-.13.16-.19s.26-.33.37-.49l.15-.21.3-.48.12-.22c.08-.16.16-.32.23-.48a1.89,1.89,0,0,0,.09-.21c.07-.18.13-.35.18-.52l.06-.18c.05-.2.09-.4.13-.61,0,0,0-.06,0-.09,0-.24,1.16-.48,1.16-.72,0-15.74-70.87-28.5-156.92-28.5-80.67,0-147,11.22-155,25.59a6,6,0,0,0-.81,2.91,5.49,5.49,0,0,0,0,.7,1.89,1.89,0,0,0,.05.23,3.89,3.89,0,0,0,.09.47l.09.27c0,.14.09.28.14.42s.08.19.13.29l.19.4.16.29c.08.13.16.26.25.39s.13.2.2.29.2.27.3.4l.23.28.37.41.24.26.52.49.18.17.78.66.23.17.64.48.35.24.6.41.41.26c.2.13.41.26.63.38l.44.26.68.39.46.25.76.39.46.23.24.12c22.14-10.81,79.13-18.5,145.94-18.5s123.8,7.69,146,18.5l.29-.14.31-.16.91-.47.34-.19.82-.46.32-.18.77-.48.28-.17.76-.52.2-.14a17.92,17.92,0,0,0,2.4-2l.13-.15C421.87,257.58,422,257.4,422.18,257.22Z"/><path class="cls-4" d="M301.44,176.57,336.93,41a18,18,0,0,0-13.36-22.08h0a18,18,0,0,0-21.67,14L274.61,170.09a33.8,33.8,0,0,0-26.76,25.65l-7.2,31.3A33.8,33.8,0,0,0,266,267.56h0a33.8,33.8,0,0,0,40.53-25.36l7.2-31.29A33.79,33.79,0,0,0,301.44,176.57Z"/><path class="cls-5" d="M276,268.34a33.35,33.35,0,0,1-10-.78A33.79,33.79,0,0,1,240.65,227l7.2-31.3a33.8,33.8,0,0,1,26.76-25.65L301.89,32.94c0-.18.08-.36.12-.53A18,18,0,0,1,332.55,24a18,18,0,0,0-11.23,12.79c0,.19-.08.36-.11.55l-27.3,137.15a33.83,33.83,0,0,0-26.75,25.66L260,231.49A33.81,33.81,0,0,0,276,268.34Z"/><path class="cls-3" d="M425.14,252.82a155.81,155.81,0,0,1-311.62,0Z"/><path class="cls-6" d="M314.72,401.57A155.92,155.92,0,0,1,112.41,252.82h93A155.86,155.86,0,0,0,314.72,401.57Z"/><path class="cls-7" d="M114.9,257.92l-.24-.26Z"/><path class="cls-7" d="M115.6,258.58l-.18-.17Z"/><path class="cls-7" d="M116.61,259.41l-.23-.17Z"/><path class="cls-7" d="M113.31,255.89l-.16-.29Z"/><path class="cls-7" d="M114.29,257.25l-.23-.28Z"/><path class="cls-7" d="M113,255.2c0-.1-.09-.2-.13-.29C112.87,255,112.91,255.1,113,255.2Z"/><path class="cls-7" d="M117.6,260.13l-.35-.24Z"/><path class="cls-7" d="M113.76,256.57c-.07-.09-.13-.19-.2-.29C113.63,256.38,113.69,256.48,113.76,256.57Z"/><path class="cls-7" d="M120.82,262.08l-.46-.25Z"/><path class="cls-7" d="M418.21,260.57l-.28.17Z"/><path class="cls-7" d="M416,261.86l-.34.19Z"/><path class="cls-7" d="M417.16,261.22l-.32.18Z"/><path class="cls-7" d="M419.17,259.91l-.2.14Z"/><path class="cls-7" d="M414.77,262.52l-.31.16Z"/><path class="cls-7" d="M118.61,260.8l-.41-.26Z"/><path class="cls-7" d="M119.68,261.44l-.44-.26Z"/><path class="cls-7" d="M112.69,254.49l-.09-.27Z"/><path class="cls-7" d="M122,262.7l-.46-.23Z"/><path class="cls-7" d="M423.28,255.63l-.12.22Z"/><path class="cls-7" d="M424,253.54s0,.06,0,.09S424,253.57,424,253.54Z"/><path class="cls-7" d="M122.28,262.82c22.14,10.81,79.12,18.5,145.94,18.5s123.81-7.69,146-18.5C392,252,335,244.32,268.22,244.32S144.42,252,122.28,262.82Z"/><path class="cls-7" d="M422.34,257c0,.06-.1.13-.16.19S422.29,257.09,422.34,257Z"/><path class="cls-7" d="M423.6,254.94a1.89,1.89,0,0,1-.09.21A1.89,1.89,0,0,0,423.6,254.94Z"/><path class="cls-7" d="M423.84,254.24l-.06.18Z"/><path class="cls-7" d="M112.51,253.75a1.89,1.89,0,0,1-.05-.23A1.89,1.89,0,0,0,112.51,253.75Z"/><path class="cls-7" d="M422.86,256.33l-.15.21Z"/><path class="cls-7" d="M421.7,257.75l-.13.15Z"/><path class="cls-3" d="M112.6,254.22a3.89,3.89,0,0,1-.09-.47A3.89,3.89,0,0,0,112.6,254.22Z"/><path class="cls-3" d="M422.18,257.22c-.15.18-.31.36-.48.53C421.87,257.58,422,257.4,422.18,257.22Z"/><path class="cls-3" d="M120.36,261.83l-.68-.39Z"/><path class="cls-3" d="M414.17,262.82l.29-.14-.29.14Z"/><path class="cls-3" d="M422.71,256.54c-.11.16-.24.33-.37.49C422.47,256.87,422.6,256.7,422.71,256.54Z"/><path class="cls-3" d="M121.58,262.47l-.76-.39Z"/><path class="cls-3" d="M417.93,260.74l-.77.48Z"/><path class="cls-3" d="M424,252.82a5.81,5.81,0,0,1,0,.72,5.81,5.81,0,0,0,0-.72c0-15.74-69.76-28.5-155.81-28.5h0C354.27,224.32,424,237.08,424,252.82Z"/><path class="cls-3" d="M421.57,257.9a17.92,17.92,0,0,1-2.4,2A17.92,17.92,0,0,0,421.57,257.9Z"/><path class="cls-3" d="M419,260.05l-.76.52Z"/><path class="cls-3" d="M415.68,262.05l-.91.47Z"/><path class="cls-3" d="M416.84,261.4l-.82.46Z"/><path class="cls-3" d="M122.27,262.82h0l-.24-.12Z"/><path class="cls-3" d="M114.66,257.66l-.37-.41Z"/><path class="cls-3" d="M424,253.63c0,.21-.08.41-.13.61C423.89,254,423.93,253.84,424,253.63Z"/><path class="cls-3" d="M119.24,261.18c-.22-.12-.43-.25-.63-.38C118.81,260.93,119,261.06,119.24,261.18Z"/><path class="cls-3" d="M113.56,256.28c-.09-.13-.17-.26-.25-.39C113.39,256,113.47,256.15,113.56,256.28Z"/><path class="cls-3" d="M113.15,255.6l-.19-.4Z"/><path class="cls-3" d="M112.83,254.91c0-.14-.1-.28-.14-.42C112.73,254.63,112.78,254.77,112.83,254.91Z"/><path class="cls-3" d="M112.46,253.52a5.49,5.49,0,0,1,0-.7A5.49,5.49,0,0,0,112.46,253.52Z"/><path class="cls-3" d="M114.06,257c-.1-.13-.21-.26-.3-.4C113.85,256.71,114,256.84,114.06,257Z"/><path class="cls-3" d="M117.25,259.89l-.64-.48Z"/><path class="cls-3" d="M423.16,255.85l-.3.48Z"/><path class="cls-3" d="M118.2,260.54l-.6-.41Z"/><path class="cls-3" d="M423.51,255.15c-.07.16-.15.32-.23.48C423.36,255.47,423.44,255.31,423.51,255.15Z"/><path class="cls-3" d="M116.38,259.24l-.78-.66Z"/><path class="cls-3" d="M115.42,258.41l-.52-.49Z"/><path class="cls-3" d="M423.78,254.42c0,.17-.11.34-.18.52C423.67,254.76,423.73,254.59,423.78,254.42Z"/><path class="cls-4" d="M422.32,282.45a154.81,154.81,0,0,1-19.7,51.1L183.8,383.07A156.32,156.32,0,0,1,144,345.43Z"/><path class="cls-5" d="M255.13,366.93,183.8,383.07A156.32,156.32,0,0,1,144,345.43l80.28-18.17A156.19,156.19,0,0,0,255.13,366.93Z"/><path class="cls-8" d="M221.51,252.82a14,14,0,1,0-28,0Z"/><path class="cls-8" d="M297.16,270.82a14,14,0,1,0-28,0Z"/><path class="cls-9" d="M351.51,252.82a14,14,0,1,0-28,0Z"/><path class="cls-9" d="M231.51,269.82a14,14,0,1,0-28,0Z"/><path class="cls-10" d="M395.48,214.08h0a0,0,0,0,1,0,0v12A37.51,37.51,0,0,1,358,263.58h0a0,0,0,0,1,0,0v-12A37.51,37.51,0,0,1,395.48,214.08Z"/><path class="cls-10" d="M182.21,224.32h0a0,0,0,0,1,0,0v9.32A29.17,29.17,0,0,1,153,262.82h0a0,0,0,0,1,0,0v-9.32A29.17,29.17,0,0,1,182.21,224.32Z" transform="translate(-117.24 322.82) rotate(-71.01)"/><rect class="cls-11" x="133.52" y="362.56" width="46" height="47" rx="10.5"/><path class="cls-12" d="M179.52,372.56H157a10.5,10.5,0,0,0-10.5,10.5v26c0,.17,0,.33,0,.5H144a10.5,10.5,0,0,1-10.5-10.5v-26a10.5,10.5,0,0,1,10.5-10.5h25A10.5,10.5,0,0,1,179.52,372.56Z"/><circle class="cls-12" cx="158.85" cy="386.06" r="5"/><rect class="cls-11" x="363.52" y="363.04" width="46" height="47" rx="10.5"/><path class="cls-12" d="M409.52,373H387a10.5,10.5,0,0,0-10.5,10.5v26c0,.17,0,.33,0,.5H374a10.5,10.5,0,0,1-10.5-10.5v-26A10.5,10.5,0,0,1,374,363h25A10.5,10.5,0,0,1,409.52,373Z"/><circle class="cls-12" cx="388.85" cy="386.54" r="5"/><rect class="cls-11" x="87.52" y="362.56" width="46" height="47" rx="10.5"/><path class="cls-12" d="M133.52,372.56H111a10.5,10.5,0,0,0-10.5,10.5v26c0,.17,0,.33,0,.5H98a10.5,10.5,0,0,1-10.5-10.5v-26A10.5,10.5,0,0,1,98,362.56h25A10.5,10.5,0,0,1,133.52,372.56Z"/><circle class="cls-12" cx="112.85" cy="386.06" r="5"/><rect class="cls-11" x="110.34" y="321.54" width="46" height="47" rx="10.5" transform="translate(-192.74 170.4) rotate(-40.7)"/><path class="cls-12" d="M142,319.81l-17,14.67a10.48,10.48,0,0,0-1.11,14.8L140.76,369l.33.38-1.9,1.63a10.49,10.49,0,0,1-14.81-1.11l-16.95-19.71a10.51,10.51,0,0,1,1.11-14.81l19-16.3A10.5,10.5,0,0,1,142,319.81Z"/><circle class="cls-12" cx="135.11" cy="343.52" r="5"/></g></svg>