<?xml version="1.0" encoding="UTF-8"?>
<!DOCTYPE svg PUBLIC "-//W3C//DTD SVG 1.1//EN" "http://www.w3.org/Graphics/SVG/1.1/DTD/svg11.dtd">
<!-- Creator: CorelDRAW -->
<svg xmlns="http://www.w3.org/2000/svg" xml:space="preserve" width="2048px" height="2048px" style="shape-rendering:geometricPrecision; text-rendering:geometricPrecision; image-rendering:optimizeQuality; fill-rule:evenodd; clip-rule:evenodd"
viewBox="0 0 2048 2048"
 xmlns:xlink="http://www.w3.org/1999/xlink">
 <defs>
  <style type="text/css">
   <![CDATA[
    .fil2 {fill:none}
    .fil1 {fill:#512DA8}
    .fil11 {fill:#6EA53B}
    .fil12 {fill:#7AB242}
    .fil9 {fill:#7CB342}
    .fil0 {fill:#7E57C2}
    .fil10 {fill:#8BC34A}
    .fil5 {fill:#CA2B03}
    .fil6 {fill:#DD2C00}
    .fil8 {fill:#8BC34A;fill-rule:nonzero}
    .fil7 {fill:#CFCFCF;fill-rule:nonzero}
    .fil4 {fill:#E6E6E5;fill-rule:nonzero}
    .fil3 {fill:#FFFFFE;fill-rule:nonzero}
   ]]>
  </style>
   <clipPath id="id0">
    <path d="M1024 -0.0011811c565.541,0 1024,458.461 1024,1024 0,565.541 -458.461,1024 -1024,1024 -565.541,0 -1024,-458.461 -1024,-1024 0,-565.541 458.461,-1024 1024,-1024z"/>
   </clipPath>
 </defs>
 <g id="Layer_x0020_1">
  <metadata id="CorelCorpID_0Corel-Layer"/>
  <path class="fil0" d="M1024 -0.0011811c565.541,0 1024,458.461 1024,1024 0,565.541 -458.461,1024 -1024,1024 -565.541,0 -1024,-458.461 -1024,-1024 0,-565.541 458.461,-1024 1024,-1024z"/>
  <g style="clip-path:url(#id0)">
   <g id="_517129624">
    <g>
     <path id="_4980812001" class="fil1" d="M1620.81 1609.5l0 0zm-1135.88 -1135.88l0 0z"/>
     <polygon id="_498081776" class="fil1" points="1235.52,558.308 2371.4,1694.19 2372.55,1696.08 2373.25,1698.35 2373.56,1700.97 2373.51,1703.94 2373.15,1707.25 2372.51,1710.89 2371.63,1714.85 2370.56,1719.12 2369.34,1723.7 2368,1728.57 2366.59,1733.73 2365.15,1739.16 2363.71,1744.86 2362.33,1750.82 2361.03,1757.02 2359.86,1763.47 2358.86,1770.14 2358.07,1777.04 2357.53,1784.15 2357.28,1791.46 2357.37,1798.96 2357.82,1806.65 2358.69,1814.52 2360.01,1822.55 2361.83,1830.74 2364.17,1839.07 2367.09,1847.55 2370.63,1856.15 2374.82,1864.88 2379.71,1873.71 2385.33,1882.65 1249.45,746.768 1243.82,737.829 1238.94,728.993 1234.75,720.269 1231.21,711.664 1228.29,703.19 1225.94,694.854 1224.13,686.666 1222.81,678.635 1221.94,670.771 1221.49,663.081 1221.4,655.576 1221.65,648.265 1222.19,641.157 1222.98,634.261 1223.98,627.585 1225.15,621.14 1226.45,614.934 1227.83,608.977 1229.27,603.278 1230.71,597.845 1232.12,592.688 1233.46,587.816 1234.68,583.238 1235.75,578.965 1236.62,575.004 1237.26,571.363 1237.63,568.054 1237.68,565.085 1237.37,562.464 1236.66,560.202 "/>
     <polygon id="_498081752" class="fil1" points="1125.84,671.086 2261.72,1806.97 2262.57,1807.91 2263.35,1809.11 2264.06,1810.54 2264.69,1812.18 2265.26,1814.03 2265.76,1816.07 2266.21,1818.28 2266.6,1820.64 2266.94,1823.15 2267.24,1825.77 2267.49,1828.51 2267.71,1831.33 2267.9,1834.24 2268.05,1837.2 2268.18,1840.21 2268.29,1843.25 2268.38,1846.3 2268.45,1849.35 2268.52,1852.39 2268.58,1855.38 2268.65,1858.33 2268.71,1861.22 2268.78,1864.02 2268.87,1866.72 2268.97,1869.31 2269.09,1871.78 2269.23,1874.1 2269.4,1876.26 2269.6,1878.24 2269.84,1880.03 2270.12,1881.62 1134.24,745.737 1133.96,744.152 1133.72,742.359 1133.52,740.376 1133.35,738.216 1133.2,735.896 1133.09,733.432 1132.99,730.84 1132.9,728.135 1132.83,725.333 1132.77,722.45 1132.7,719.501 1132.64,716.503 1132.57,713.471 1132.49,710.422 1132.4,707.369 1132.3,704.33 1132.17,701.32 1132.01,698.356 1131.83,695.453 1131.61,692.625 1131.36,689.89 1131.06,687.263 1130.72,684.76 1130.33,682.397 1129.88,680.189 1129.37,678.152 1128.81,676.302 1128.17,674.654 1127.47,673.225 1126.69,672.031 "/>
     <polygon id="_498081152" class="fil1" points="712.39,770.365 1848.27,1906.25 1847.18,1907.13 711.302,771.245 "/>
     <polygon id="_498081248" class="fil1" points="1272.79,1526.63 2408.67,2662.52 2408.67,2662.54 1272.79,1526.66 "/>
     <polygon id="_498082016" class="fil1" points="1272.79,1526.66 2408.67,2662.54 2408.67,2695.4 1272.79,1559.52 "/>
     <polygon id="_498082280" class="fil1" points="1272.79,1559.52 2408.67,2695.4 2408.54,2697.9 2408.17,2700.33 2407.57,2702.68 2406.75,2704.93 2405.71,2707.07 2404.49,2709.09 2403.08,2710.97 2401.5,2712.71 2399.76,2714.29 2397.87,2715.7 2395.85,2716.93 2393.71,2717.96 2391.47,2718.78 2389.12,2719.39 2386.69,2719.76 2384.18,2719.88 1248.3,1584 1250.81,1583.87 1253.24,1583.5 1255.58,1582.9 1257.83,1582.08 1259.97,1581.04 1261.99,1579.82 1263.88,1578.41 1265.62,1576.83 1267.2,1575.09 1268.61,1573.2 1269.83,1571.19 1270.86,1569.05 1271.69,1566.8 1272.29,1564.45 1272.66,1562.02 "/>
     <polygon id="_498081824" class="fil1" points="1248.3,1584 2384.18,2719.88 2163.83,2719.88 1027.94,1584 "/>
     <polygon id="_498082136" class="fil1" points="783.102,1526.63 1918.98,2662.52 1910.6,2658.26 1902.31,2653.87 1894.1,2649.34 1885.97,2644.68 1877.94,2639.88 1869.99,2634.95 1862.13,2629.9 1854.36,2624.71 1846.69,2619.4 1839.12,2613.96 1831.64,2608.39 1824.25,2602.71 1816.97,2596.9 1809.79,2590.97 1802.71,2584.92 666.831,1449.04 673.909,1455.09 681.09,1461.01 688.373,1466.82 695.755,1472.51 703.235,1478.07 710.812,1483.51 718.483,1488.83 726.249,1494.01 734.106,1499.07 742.055,1504 750.093,1508.8 758.218,1513.46 766.429,1517.99 774.723,1522.38 "/>
     <polygon id="_498081944" class="fil1" points="807.586,1584 1943.47,2719.88 1940.96,2719.76 1938.53,2719.39 1936.19,2718.78 1933.94,2717.96 1931.8,2716.93 1929.78,2715.7 1927.89,2714.29 792.012,1578.41 793.897,1579.82 795.916,1581.04 798.056,1582.08 800.305,1582.9 802.652,1583.5 805.083,1583.87 "/>
     <polygon id="_498082064" class="fil1" points="1027.94,1584 2163.83,2719.88 1943.47,2719.88 807.586,1584 "/>
     <polygon id="_498082112" class="fil1" points="711.302,771.245 1847.18,1907.13 1844.15,1904.34 1841.24,1901.85 1838.43,1899.64 1835.72,1897.67 1833.09,1895.93 1830.53,1894.39 1828.04,1893.02 1825.59,1891.79 1823.19,1890.69 1820.81,1889.69 1818.46,1888.76 1816.11,1887.87 1813.76,1887.01 1811.4,1886.14 1809.01,1885.24 1806.58,1884.29 1804.12,1883.26 1801.59,1882.12 1799,1880.85 1796.33,1879.42 1793.57,1877.81 1790.71,1875.99 1787.75,1873.94 1784.66,1871.63 1781.44,1869.04 1778.08,1866.14 1774.56,1862.91 1770.88,1859.32 634.999,723.434 638.678,727.027 642.194,730.261 645.557,733.16 648.776,735.752 651.865,738.058 654.833,740.109 657.691,741.925 660.449,743.535 663.119,744.963 665.711,746.234 668.236,747.374 670.704,748.407 673.127,749.362 675.514,750.259 677.879,751.129 680.229,751.992 682.576,752.878 684.932,753.808 687.306,754.811 689.711,755.912 692.156,757.133 694.652,758.503 697.21,760.047 699.839,761.788 702.553,763.753 705.361,765.968 708.273,768.456 "/>
     <polygon id="_498082400" class="fil1" points="544.369,476.548 1680.25,1612.43 1681.8,1614.03 1683.26,1615.73 547.383,479.849 545.915,478.151 "/>
     <polygon id="_498082088" class="fil1" points="547.383,479.849 1683.26,1615.73 1823.05,1786.55 687.169,650.669 "/>
     <polygon id="_498082520" class="fil1" points="687.169,650.669 1823.05,1786.55 1827.58,1792.19 1831.67,1797.49 1835.34,1802.47 1838.62,1807.15 1841.53,1811.54 1844.09,1815.66 1846.34,1819.53 1848.29,1823.18 1849.96,1826.61 1851.39,1829.84 1852.6,1832.9 1853.61,1835.81 1854.45,1838.57 1855.13,1841.22 1855.69,1843.76 1856.15,1846.21 1856.53,1848.6 1856.86,1850.94 1857.17,1853.26 1857.47,1855.56 1857.79,1857.86 1858.15,1860.2 1858.59,1862.57 1859.12,1865.01 1859.77,1867.53 1860.56,1870.15 1861.52,1872.88 1862.67,1875.75 1864.03,1878.77 1865.64,1881.96 1867.51,1885.34 1869.67,1888.93 733.792,753.049 731.632,749.46 729.76,746.078 728.154,742.886 726.787,739.864 725.638,736.997 724.679,734.264 723.888,731.647 723.239,729.129 722.709,726.692 722.273,724.315 721.907,721.982 721.587,719.675 721.287,717.374 720.983,715.061 720.653,712.719 720.27,710.33 719.81,707.873 719.251,705.334 718.564,702.69 717.729,699.925 716.721,697.022 715.514,693.962 714.083,690.725 712.406,687.295 710.457,683.651 708.213,679.777 705.649,675.655 702.739,671.265 699.461,666.59 695.79,661.61 691.7,656.31 "/>
     <polygon id="_498082568" class="fil1" points="733.792,753.049 1869.67,1888.93 1868.48,1889.9 732.597,754.016 "/>
     <polygon id="_498083312" class="fil1" points="732.597,754.016 1868.48,1889.9 1869.31,1891.02 1870.18,1892.16 1871.06,1893.32 1871.98,1894.5 1872.92,1895.7 1873.89,1896.92 1874.89,1898.16 1875.91,1899.42 740.032,763.541 739.006,762.279 738.009,761.039 737.039,759.819 736.097,758.62 735.182,757.44 734.294,756.279 733.433,755.138 "/>
     <polygon id="_498083000" class="fil1" points="740.032,763.541 1875.91,1899.42 1940,1977.3 804.122,841.416 "/>
     <polygon id="_498082616" class="fil1" points="977.12,878.904 2113,2014.79 2115.77,2017.62 2118.51,2020.53 2121.2,2023.51 2123.84,2026.55 2126.44,2029.67 990.561,893.783 987.961,890.669 985.315,887.624 982.626,884.648 979.893,881.741 "/>
     <polygon id="_498082712" class="fil1" points="990.561,893.783 2126.44,2029.67 2128.98,2032.83 2131.44,2036.03 2133.83,2039.25 2136.14,2042.5 2138.37,2045.78 2140.52,2049.09 2142.6,2052.42 2144.6,2055.77 2146.53,2059.14 2148.38,2062.53 2150.15,2065.93 2151.84,2069.35 2153.46,2072.79 2155,2076.24 2156.47,2079.7 2157.85,2083.16 2159.16,2086.64 2160.4,2090.12 2161.55,2093.61 2162.63,2097.09 2163.63,2100.59 2164.55,2104.08 2165.4,2107.56 2166.16,2111.05 2166.86,2114.53 2167.47,2118 2168,2121.47 2168.46,2124.92 2168.84,2128.37 2169.14,2131.8 2169.37,2135.22 2169.51,2138.62 1033.63,1002.74 1033.48,999.335 1033.26,995.918 1032.96,992.486 1032.58,989.042 1032.12,985.586 1031.59,982.12 1030.97,978.647 1030.28,975.166 1029.52,971.682 1028.67,968.193 1027.75,964.703 1026.75,961.213 1025.67,957.724 1024.51,954.238 1023.28,950.756 1021.97,947.281 1020.59,943.814 1019.12,940.355 1017.58,936.907 1015.96,933.472 1014.27,930.05 1012.5,926.644 1010.65,923.255 1008.72,919.886 1006.72,916.535 1004.64,913.207 1002.49,909.902 1000.26,906.622 997.946,903.369 995.56,900.144 993.099,896.948 "/>
     <polygon id="_498082808" class="fil1" points="1033.63,1002.74 2169.51,2138.62 2169.53,2139.36 2169.55,2140.09 2169.57,2140.83 2169.58,2141.57 2169.58,2142.3 2169.59,2143.04 2169.59,2143.77 2169.58,2144.5 1033.7,1008.62 1033.7,1007.89 1033.7,1007.15 1033.7,1006.42 1033.69,1005.68 1033.68,1004.95 1033.67,1004.21 1033.65,1003.47 "/>
     <polygon id="_498083168" class="fil1" points="1492.22,1329.65 2628.1,2465.53 2623,2473.36 2617.77,2481.09 2612.41,2488.72 2606.93,2496.27 2601.32,2503.71 2595.59,2511.06 2589.74,2518.3 2583.78,2525.45 2577.69,2532.49 2571.49,2539.42 2565.17,2546.25 2558.74,2552.98 2552.2,2559.59 2545.55,2566.09 2538.78,2572.48 2531.92,2578.76 2524.94,2584.92 2517.86,2590.97 2510.68,2596.9 2503.4,2602.71 2496.02,2608.39 2488.54,2613.96 2480.96,2619.4 2473.29,2624.71 2465.52,2629.9 2457.67,2634.95 2449.72,2639.88 2441.68,2644.68 2433.55,2649.34 2425.34,2653.87 2417.05,2658.26 2408.67,2662.52 1272.79,1526.63 1281.17,1522.38 1289.46,1517.99 1297.67,1513.46 1305.8,1508.8 1313.84,1504 1321.78,1499.07 1329.64,1494.01 1337.41,1488.83 1345.08,1483.51 1352.66,1478.07 1360.14,1472.51 1367.52,1466.82 1374.8,1461.01 1381.98,1455.09 1389.06,1449.04 1396.03,1442.88 1402.9,1436.6 1409.66,1430.21 1416.32,1423.71 1422.86,1417.09 1429.29,1410.37 1435.61,1403.54 1441.81,1396.6 1447.9,1389.56 1453.86,1382.42 1459.71,1375.17 1465.44,1367.83 1471.05,1360.38 1476.53,1352.84 1481.89,1345.2 1487.12,1337.47 "/>
     <polygon id="_498082976" class="fil1" points="1167.91,813.125 2303.79,1949.01 2304.27,1953.34 2304.48,1957.8 2304.43,1962.39 2304.14,1967.08 2303.62,1971.84 2302.89,1976.67 2301.95,1981.53 2300.81,1986.41 2299.5,1991.29 2298.02,1996.14 2296.39,2000.96 2294.61,2005.71 2292.7,2010.37 2290.68,2014.94 2288.55,2019.38 2286.33,2023.67 2284.03,2027.8 2281.66,2031.75 2279.24,2035.49 2276.77,2039.01 2274.28,2042.28 2271.77,2045.28 2269.25,2048 2266.74,2050.42 2264.25,2052.51 2261.8,2054.25 2259.39,2055.62 2257.03,2056.61 2254.75,2057.19 2252.55,2057.34 2250.45,2057.04 2248.45,2056.28 1112.57,920.397 1114.57,921.161 1116.67,921.458 1118.87,921.305 1121.15,920.726 1123.5,919.739 1125.92,918.364 1128.37,916.624 1130.86,914.537 1133.37,912.122 1135.88,909.402 1138.4,906.396 1140.89,903.125 1143.36,899.609 1145.78,895.867 1148.15,891.92 1150.45,887.788 1152.67,883.494 1154.8,879.054 1156.82,874.491 1158.73,869.824 1160.51,865.074 1162.14,860.261 1163.62,855.406 1164.93,850.528 1166.07,845.648 1167.01,840.785 1167.74,835.961 1168.26,831.196 1168.55,826.509 1168.59,821.921 1168.38,817.453 "/>
     <polygon id="_498083024" class="fil1" points="1134.24,745.737 2270.12,1881.62 2270.35,1882.66 2270.62,1883.69 2270.94,1884.71 2271.29,1885.72 2271.67,1886.71 2272.09,1887.69 2272.54,1888.65 2273.02,1889.6 2273.53,1890.54 2274.06,1891.46 2274.62,1892.36 2275.21,1893.25 2275.81,1894.13 2276.43,1894.99 2277.08,1895.83 2277.74,1896.65 1141.86,760.771 1141.2,759.947 1140.55,759.105 1139.93,758.246 1139.32,757.372 1138.74,756.481 1138.18,755.575 1137.64,754.655 1137.14,753.72 1136.66,752.769 1136.21,751.805 1135.79,750.826 1135.4,749.834 1135.05,748.829 1134.74,747.811 1134.47,746.78 "/>
     <polygon id="_498083144" class="fil1" points="1141.86,760.771 2277.74,1896.65 2279.13,1898.37 2280.47,1900.06 2281.78,1901.74 2283.05,1903.4 2284.29,1905.04 2285.48,1906.67 2286.64,1908.28 2287.75,1909.89 2288.83,1911.48 2289.88,1913.07 2290.88,1914.65 2291.85,1916.22 2292.78,1917.79 2293.67,1919.36 2294.53,1920.93 2295.35,1922.5 2296.14,1924.07 2296.89,1925.65 2297.6,1927.23 2298.28,1928.82 2298.93,1930.42 2299.54,1932.03 2300.11,1933.65 2300.66,1935.28 2301.16,1936.93 2301.64,1938.59 2302.08,1940.28 2302.49,1941.98 2302.86,1943.7 2303.2,1945.44 2303.51,1947.21 2303.79,1949.01 1167.91,813.125 1167.63,811.331 1167.32,809.561 1166.98,807.817 1166.61,806.095 1166.2,804.393 1165.76,802.711 1165.28,801.047 1164.77,799.398 1164.23,797.766 1163.66,796.145 1163.05,794.538 1162.4,792.94 1161.72,791.35 1161.01,789.767 1160.26,788.192 1159.47,786.618 1158.65,785.049 1157.79,783.48 1156.9,781.91 1155.97,780.34 1155,778.765 1153.99,777.185 1152.95,775.599 1151.87,774.004 1150.75,772.399 1149.6,770.784 1148.41,769.156 1147.17,767.514 1145.9,765.856 1144.59,764.18 1143.24,762.486 "/>
     <polygon id="_498083480" class="fil1" points="1379.86,595.406 2515.74,1731.29 2516.6,1733.02 2516.98,1735.1 2516.93,1737.53 2516.48,1740.29 2515.68,1743.38 2514.56,1746.77 2513.17,1750.46 2511.56,1754.45 2509.76,1758.7 2507.81,1763.23 2505.76,1768 2503.64,1773.02 2501.51,1778.27 2499.39,1783.74 2497.34,1789.42 2495.39,1795.29 2493.59,1801.35 2491.98,1807.58 2490.59,1813.98 2489.48,1820.53 2488.68,1827.22 2488.23,1834.03 2488.18,1840.97 2488.56,1848.01 2489.43,1855.14 2490.82,1862.36 2492.76,1869.65 2495.32,1877 2498.51,1884.4 2502.4,1891.83 2507.01,1899.3 1371.13,763.414 1366.52,755.951 1362.63,748.514 1359.43,741.115 1356.88,733.765 1354.93,726.475 1353.55,719.258 1352.68,712.124 1352.3,705.083 1352.35,698.15 1352.8,691.333 1353.6,684.645 1354.71,678.097 1356.1,671.701 1357.71,665.468 1359.51,659.408 1361.46,653.534 1363.51,647.856 1365.62,642.388 1367.76,637.138 1369.87,632.119 1371.93,627.343 1373.87,622.821 1375.68,618.563 1377.29,614.581 1378.68,610.888 1379.8,607.493 1380.6,604.41 1381.05,601.648 1381.1,599.219 1380.72,597.134 "/>
     <polygon id="_498083864" class="fil1" points="1249.45,746.768 2385.33,1882.65 2386.76,1884.83 2388.18,1887.04 2389.58,1889.27 2390.95,1891.54 2392.3,1893.83 2393.62,1896.15 2394.92,1898.5 2396.2,1900.88 2397.44,1903.29 2398.66,1905.72 2399.85,1908.19 2401.01,1910.68 2402.14,1913.2 2403.24,1915.75 2404.3,1918.33 2405.33,1920.94 2406.33,1923.57 2407.28,1926.23 2408.2,1928.92 2409.09,1931.64 2409.93,1934.39 2410.73,1937.17 2411.5,1939.97 2412.21,1942.8 2412.89,1945.66 2413.52,1948.55 2414.11,1951.46 2414.65,1954.4 2415.15,1957.38 2415.59,1960.37 2415.99,1963.4 2416.33,1966.45 1280.45,830.571 1280.11,827.518 1279.71,824.492 1279.26,821.493 1278.77,818.522 1278.23,815.58 1277.64,812.665 1277.01,809.777 1276.33,806.919 1275.61,804.088 1274.85,801.284 1274.05,798.508 1273.21,795.761 1272.32,793.042 1271.4,790.352 1270.44,787.688 1269.45,785.055 1268.42,782.448 1267.36,779.869 1266.26,777.319 1265.13,774.799 1263.97,772.306 1262.78,769.841 1261.56,767.405 1260.32,764.997 1259.04,762.618 1257.74,760.268 1256.42,757.946 1255.07,755.653 1253.69,753.388 1252.3,751.153 1250.88,748.946 "/>
     <polygon id="_498084008" class="fil1" points="1112.57,920.397 2248.45,2056.28 2247.6,2055.85 1111.72,919.97 "/>
     <polygon id="_498083840" class="fil1" points="1280.45,830.571 2416.33,1966.45 2416.55,1970.08 2416.49,1974.01 2416.17,1978.22 2415.6,1982.67 2414.8,1987.33 2413.78,1992.19 2412.56,1997.21 2411.16,2002.35 2409.59,2007.6 2407.87,2012.92 2406.01,2018.29 2404.02,2023.67 2401.93,2029.04 2399.75,2034.36 2397.49,2039.62 2395.17,2044.78 2392.81,2049.81 2390.42,2054.68 2388.02,2059.37 2385.62,2063.84 2383.23,2068.07 2380.88,2072.03 2378.58,2075.69 2376.35,2079.02 2374.19,2081.99 2372.13,2084.57 2370.18,2086.74 2368.36,2088.47 2366.68,2089.72 2365.16,2090.47 2363.81,2090.69 2362.65,2090.36 1226.77,954.474 1227.93,954.812 1229.28,954.591 1230.8,953.84 1232.48,952.587 1234.3,950.861 1236.25,948.692 1238.31,946.106 1240.46,943.135 1242.7,939.806 1245,936.147 1247.35,932.188 1249.73,927.959 1252.14,923.485 1254.54,918.798 1256.93,913.925 1259.29,908.896 1261.61,903.738 1263.87,898.482 1266.05,893.155 1268.14,887.786 1270.12,882.405 1271.99,877.039 1273.71,871.717 1275.28,866.469 1276.68,861.323 1277.9,856.308 1278.92,851.451 1279.72,846.785 1280.29,842.333 1280.61,838.129 1280.67,834.198 "/>
     <polygon id="_498083720" class="fil1" points="1343.46,930.304 2479.34,2066.19 2478.91,2065.72 1343.03,929.842 "/>
     <polygon id="_498083696" class="fil1" points="1371.13,763.414 2507.01,1899.3 2512.06,1907.44 2516.35,1915.55 2519.91,1923.62 2522.79,1931.63 2525.02,1939.57 2526.64,1947.41 2527.68,1955.15 2528.19,1962.76 2528.2,1970.22 2527.76,1977.54 2526.89,1984.68 2525.65,1991.63 2524.06,1998.37 2522.16,2004.9 2520,2011.19 2517.61,2017.22 2515.02,2022.99 2512.29,2028.47 2509.44,2033.64 2506.51,2038.51 2503.55,2043.03 2500.59,2047.21 2497.66,2051.02 2494.81,2054.45 2492.08,2057.48 2489.49,2060.09 2487.1,2062.28 2484.94,2064.02 2483.04,2065.29 2481.45,2066.09 2480.21,2066.39 2479.34,2066.19 1343.46,930.304 1344.32,930.512 1345.57,930.21 1347.16,929.413 1349.06,928.136 1351.22,926.397 1353.61,924.212 1356.19,921.596 1358.93,918.565 1361.78,915.137 1364.71,911.326 1367.67,907.149 1370.63,902.623 1373.56,897.763 1376.41,892.583 1379.14,887.104 1381.73,881.339 1384.12,875.304 1386.28,869.017 1388.18,862.491 1389.77,855.745 1391.01,848.794 1391.88,841.654 1392.32,834.342 1392.31,826.873 1391.8,819.263 1390.75,811.529 1389.14,803.686 1386.91,795.752 1384.03,787.742 1380.47,779.671 1376.18,771.557 "/>
     <polygon id="_498084056" class="fil1" points="1578.84,1033.1 2714.72,2168.99 2714.63,2179.19 2714.35,2189.35 2713.89,2199.47 2713.25,2209.54 2712.43,2219.56 2711.43,2229.53 2710.25,2239.44 2708.9,2249.3 2707.37,2259.11 2705.68,2268.86 2703.81,2278.55 2701.77,2288.17 2699.57,2297.74 2697.2,2307.24 2694.67,2316.68 2691.97,2326.05 2689.12,2335.35 2686.1,2344.58 2682.93,2353.74 2679.6,2362.82 2676.12,2371.83 2672.49,2380.77 2668.7,2389.62 2664.77,2398.4 2660.68,2407.09 2656.45,2415.7 2652.08,2424.23 2647.56,2432.67 2642.91,2441.02 2638.11,2449.28 2633.17,2457.45 2628.1,2465.53 1492.22,1329.65 1497.29,1321.57 1502.23,1313.4 1507.02,1305.14 1511.68,1296.79 1516.2,1288.35 1520.57,1279.82 1524.8,1271.21 1528.89,1262.51 1532.82,1253.74 1536.61,1244.88 1540.24,1235.95 1543.72,1226.94 1547.05,1217.85 1550.22,1208.7 1553.24,1199.46 1556.09,1190.16 1558.79,1180.8 1561.32,1171.36 1563.69,1161.86 1565.89,1152.29 1567.93,1142.66 1569.79,1132.97 1571.49,1123.23 1573.02,1113.42 1574.37,1103.56 1575.55,1093.64 1576.55,1083.68 1577.37,1073.66 1578.01,1063.59 1578.47,1053.47 1578.75,1043.31 "/>
     <polygon id="_498083336" class="fil1" points="1573.25,1017.53 2709.13,2153.41 2710.54,2155.3 2711.77,2157.31 2712.8,2159.45 2713.62,2161.7 2714.23,2164.05 2714.6,2166.48 2714.72,2168.99 1578.84,1033.1 1578.72,1030.6 1578.34,1028.17 1577.74,1025.82 1576.92,1023.57 1575.89,1021.43 1574.66,1019.41 "/>
    </g>
    <path id="_517129240" class="fil1" d="M484.93 473.621l0 0zm906.062 534.996l163.365 0c13.5213,0 24.4843,10.9642 24.4843,24.4855 0,109.109 -31.7906,210.873 -86.6257,296.547 -53.7237,83.9398 -129.619,152.346 -219.428,196.983l0 0.0259843 0 32.8571c0,13.5213 -10.963,24.4843 -24.4855,24.4843l-220.358 0 -220.358 0c-13.5225,0 -24.4843,-10.963 -24.4843,-24.4843l0 -32.8571 0 -0.0259843c-89.8087,-44.6374 -165.704,-113.043 -219.428,-196.983 -54.8351,-85.6737 -86.6257,-187.438 -86.6257,-296.547 0,-13.5213 10.963,-24.4855 24.4843,-24.4855l267.515 0c-9.74646,-21.5256 -14.9823,-43.7528 -15.6508,-64.9548 -1.04882,-33.2374 9.05316,-64.0323 30.4996,-86.1509l-66.2575 -80.9694c-1.81063,-2.21339 -3.55866,-4.26733 -5.25,-6.17717l-1.0878 0.879922c-32.9551,-31.4351 -44.3469,-7.3689 -92.8749,-66.2859l-139.336 -168.83c-7.8626,-9.56812 -10.9807,-21.5634 -9.62835,-33.0603 0.948426,-11.1106 6.19134,-21.8575 15.4689,-29.4496 9.09922,-7.44449 20.4036,-10.4929 31.2862,-9.40631 0.297638,0.0295276 0.595276,0.0625985 0.891733,0.0980316 11.5453,0.93189 22.6571,6.2315 30.274,15.5386l139.786 170.819c50.7768,62.0516 21.9496,62.9174 46.6229,102.38l-1.19528 0.967324c2.19449,2.96811 4.66063,6.13347 7.43505,9.52442l64.0902 77.8749c25.5106,-15.4181 56.7473,-18.7854 88.1611,-11.4071 35.2512,8.27953 70.7953,30.1925 98.2772,63.7749 27.4819,33.5823 41.928,72.7607 43.0701,108.953 0.0625985,1.9689 0.0850394,3.92953 0.068504,5.88071l132.751 0 119.156 0 105.386 0zm-157.088 -451.828c19.963,14.152 -48.4937,94.1233 15.5421,189.978 15.4205,23.0788 27.587,51.0839 31.0051,83.8028 3.86221,36.9733 -42.3945,130.591 -53.6788,123.904 -7.74331,-5.48977 11.674,-78.117 7.63819,-116.752 -2.15551,-20.6504 -10.3524,-39.1004 -20.8134,-54.7559 -26.0811,-39.039 -39.4406,-68.1201 -40.989,-101.949 -1.39488,-30.4536 42.1772,-131.565 61.2957,-124.227zm70.1847 164.303c-2.02087,-44.113 59.4709,-131.958 74.3882,-127.049 17.6634,12.5221 -60.5977,89.6599 -7.34646,169.37 58.0902,86.9398 -20.6126,171.895 -27.6721,166.89 -5.15906,-3.0567 8.47205,-66.7583 5.52993,-94.9406 -1.39252,-13.3299 -6.79607,-25.4103 -13.7067,-35.7508 -19.8166,-29.6634 -29.9776,-51.9957 -31.1929,-78.5197zm-136.181 92.0316c6.55394,45.3544 -34.6677,117.992 -55.3371,107.273 -10.0299,-1.87559 10.4291,-91.3631 9.60119,-97.0914 -0.638977,-4.42441 -4.57323,-10.2933 -12.1453,-19.5685 -9.24804,-11.3268 -17.1106,-25.7445 -20.7484,-43.6937 -5.32678,-26.289 26.0421,-91.4316 35.6185,-89.6363 10.4728,5.76851 6.14764,59.5831 9.33898,75.3296 1.13268,5.59607 4.063,10.6795 7.6193,15.0343 15.0248,18.4028 23.2666,33.0733 26.0528,52.3536z"/>
   </g>
  </g>
  <path class="fil2" d="M1024 -0.0011811c565.541,0 1024,458.461 1024,1024 0,565.541 -458.461,1024 -1024,1024 -565.541,0 -1024,-458.461 -1024,-1024 0,-565.541 458.461,-1024 1024,-1024z"/>
  <path class="fil3" d="M807.187 845.14c4.47048,5.4626 3.25158,13.4752 -2.21103,17.9457 -5.46378,4.47048 -13.5177,3.66614 -17.9882,-1.79646l-69.3485 -84.7465c-43.467,-53.1166 -50.5878,-14.7555 -103.776,-79.3312l-134.936 -163.5 0 0c-7.44568,-9.09922 -10.4941,-20.4036 -9.40749,-31.2851 1.0878,-10.8827 6.313,-21.3603 15.411,-28.8047l0 -0.0011811 0.0011811 0c9.09922,-7.44568 20.4036,-10.4941 31.2851,-9.40749 10.8827,1.0878 21.4016,5.89843 28.8473,14.9965l135.371 165.425c56.4591,68.9941 11.2961,59.8796 59.5973,118.906l67.1552 81.5989z"/>
  <path class="fil3" d="M994.599 1096.73c27.2929,-22.3335 40.2107,-56.6174 39.0319,-93.9898 -1.14095,-36.1937 -15.5894,-75.3709 -43.0689,-108.953l-0.0011811 0c-27.4807,-33.5823 -63.026,-55.4953 -98.2772,-63.7749 -36.3992,-8.55001 -72.5611,-2.67166 -99.8528,19.663l-0.0011811 0c-27.2929,22.3347 -40.2107,56.6185 -39.0319,93.991 1.14213,36.1925 15.5894,75.3697 43.0701,108.952 27.4807,33.5823 63.0249,55.4953 98.2772,63.7749 36.4004,8.55001 72.5611,2.67166 99.854,-19.663z"/>
  <path class="fil4" d="M990.152 1091.29c21.6638,-17.7284 31.917,-44.9422 30.9815,-74.6068 -0.905906,-28.7292 -12.3744,-59.8276 -34.187,-86.4827l-0.0011811 -0.0011811c-21.8138,-26.6563 -50.0268,-44.0504 -78.0083,-50.6221 -28.8933,-6.78662 -57.5977,-2.12008 -79.2615,15.6071l0 0.0011811c-21.665,17.7284 -31.9181,44.941 -30.9827,74.6068 0.905906,28.7292 12.3744,59.8264 34.187,86.4827 21.8138,26.6563 50.028,44.0504 78.0095,50.6233 28.8945,6.78662 57.5977,2.12008 79.2627,-15.6083z"/>
  <path class="fil5" d="M722.125 762.488l-10.8224 8.7567c-32.9563,-31.4351 -44.3469,-7.36772 -92.8761,-66.2859l-139.336 -168.83c-15.3614,-18.6933 -12.613,-46.6559 6.20079,-62.0516 0.164173,-0.133465 0.330709,-0.264567 0.496063,-0.39567l236.338 288.807z"/>
  <path class="fil6" d="M733.791 753.049l-11.4319 9.2504 -0.233858 0.188977 -236.338 -288.807 0.0366142 -0.0283465c18.7311,-14.8453 46.7516,-11.8996 61.5591,6.19725l139.786 170.818c50.778,62.0516 21.9496,62.9174 46.6217,102.38z"/>
  <path class="fil7" d="M971.357 1074.69c-1.2437,1.01693 -3.07677,0.833859 -4.0937,-0.409843 -1.01693,-1.24252 -0.833859,-3.07559 0.408662,-4.09252 8.46497,-6.92717 14.7473,-15.6791 18.8634,-25.5921 4.30866,-10.3772 6.26103,-22.024 5.87717,-34.187 -0.37441,-11.8488 -2.9752,-24.215 -7.77757,-36.3674 -4.62992,-11.7118 -11.3173,-23.2252 -20.0398,-33.8847 -1.01693,-1.24252 -0.833859,-3.07559 0.408662,-4.09252 1.24252,-1.01811 3.07677,-0.833859 4.0937,0.408662 9.09331,11.1118 16.0795,23.1543 20.9351,35.4355 5.04685,12.7689 7.78111,25.8012 8.1756,38.3256 0.409843,13.0039 -1.68189,25.4669 -6.3,36.5882 -4.47874,10.7858 -11.3221,20.315 -20.5512,27.8681z"/>
  <path class="fil8" d="M1578.84 1033.1c0,109.109 -31.7906,210.873 -86.6257,296.547 -53.7248,83.9398 -129.619,152.346 -219.428,196.983l0 32.8831c0,13.5213 -10.963,24.4843 -24.4855,24.4843l-220.358 0 -220.358 0c-13.5213,0 -24.4843,-10.963 -24.4843,-24.4843l0 -32.8831c-89.8087,-44.6374 -165.704,-113.043 -219.428,-196.983 -54.8351,-85.6737 -86.6268,-187.438 -86.6268,-296.547 0,-13.5225 10.963,-24.4843 24.4855,-24.4843l1052.82 0c13.5213,0 24.4843,10.9618 24.4843,24.4843z"/>
  <path class="fil9" d="M1027.94 1584l0 -494.12 0 -81.2611 -18.7335 0 -507.678 0c-13.5225,0 -24.4855,10.9618 -24.4855,24.4843 0,109.109 31.7918,210.873 86.6268,296.547 53.7237,83.9398 129.619,152.346 219.428,196.983l0 32.8831c0,13.5213 10.963,24.4843 24.4843,24.4843l220.358 0z"/>
  <path class="fil10" d="M1272.79 1526.63c89.8087,-44.6374 165.703,-113.043 219.428,-196.983 54.8351,-85.6737 86.6257,-187.438 86.6257,-296.547 0,-13.5225 -10.963,-24.4843 -24.4843,-24.4843l-163.367 0 -105.385 0 -119.156 0 -138.506 0 0 81.2611 0 494.12 220.358 0c13.5225,0 24.4855,-10.963 24.4855,-24.4843l0 -32.8831z"/>
  <path class="fil11" d="M1027.94 1584l0 -57.3402 -244.843 0 0 32.8559c0,13.5213 10.963,24.4843 24.4843,24.4843l220.358 0z"/>
  <path class="fil12" d="M1027.94 1526.66l0 57.3402 220.358 0c13.5225,0 24.4855,-10.963 24.4855,-24.4843l0 -32.8559 -244.844 0z"/>
  <path class="fil4" d="M1233.9 556.79c-19.1185,-7.33938 -62.6906,93.7737 -61.2957,124.226 1.54843,33.8303 14.9079,62.9115 40.989,101.95 10.461,15.6555 18.6579,34.1055 20.8134,54.7559 4.03583,38.6351 -15.3815,111.262 -7.63819,116.752 11.2843,6.68741 57.541,-86.9304 53.6788,-123.904 -3.41811,-32.7189 -15.5847,-60.7241 -31.0051,-83.8028 -64.0359,-95.8548 4.42087,-175.826 -15.5421,-189.978z"/>
  <path class="fil3" d="M1378.48 594.044c-14.9173,-4.90748 -76.4091,82.9359 -74.3882,127.049 1.21536,26.524 11.3764,48.8563 31.1929,78.5197 6.91064,10.3406 12.3142,22.4209 13.7067,35.7508 2.94213,28.1823 -10.689,91.8839 -5.52993,94.9418 7.05945,5.00433 85.7623,-79.9501 27.6721,-166.891 -53.2512,-79.7103 25.0099,-156.848 7.34646,-169.37z"/>
  <path class="fil3" d="M1112.57 920.397c20.6693,10.7209 61.891,-61.9182 55.3371,-107.274 -2.78622,-19.2791 -11.028,-33.9496 -26.0528,-52.3524 -3.5563,-4.35473 -6.48662,-9.4382 -7.62048,-15.0343 -3.19016,-15.7465 1.13622,-69.5611 -9.3378,-75.3296 -9.57639,-1.79646 -40.9453,63.3473 -35.6185,89.6363 3.6378,17.9492 11.5004,32.3658 20.7484,43.6937 7.57205,9.2752 11.5063,15.1453 12.1453,19.5685 0.827953,5.72835 -19.6311,95.2158 -9.60119,97.0914z"/>
 </g>
</svg>
