<svg xmlns="http://www.w3.org/2000/svg" viewBox="0 0 512 512"><title>Artboard 152</title><g id="Noodle"><polygon points="490.667 106.667 42.667 64 42.667 42.667 490.667 85.333 490.667 106.667" style="fill:#993b17"/><path d="M85.33333,288H64c0-6-2.3125-8.5625-7.54167-13.79167-5.82291-5.8125-13.79166-13.79166-13.79166-28.875s7.96875-23.0625,13.79166-28.875C61.6875,211.22917,64,208.66667,64,202.66667s-2.3125-8.5625-7.54167-13.79167C50.63542,183.0625,42.66667,175.08333,42.66667,160s7.96875-23.0625,13.79166-28.875C61.6875,125.89583,64,123.33333,64,117.33333s-2.3125-8.5625-7.54167-13.79166c-5.82291-5.8125-13.79166-13.79167-13.79166-28.875s7.96875-23.0625,13.79166-28.875C61.6875,40.5625,64,38,64,32V21.33333H85.33333V32c0,15.08333-7.96875,23.0625-13.79166,28.875C66.3125,66.10417,64,68.66667,64,74.66667s2.3125,8.5625,7.54167,13.79166c5.82291,5.8125,13.79166,13.79167,13.79166,28.875s-7.96875,23.0625-13.79166,28.875C66.3125,151.4375,64,154,64,160s2.3125,8.5625,7.54167,13.79167c5.82291,5.8125,13.79166,13.79166,13.79166,28.875s-7.96875,23.0625-13.79166,28.875C66.3125,236.77083,64,239.33333,64,245.33333s2.3125,8.5625,7.54167,13.79167C77.36458,264.9375,85.33333,272.91667,85.33333,288Z" style="fill:#fdcf6d"/><path d="M128,288H106.66667c0-6-2.3125-8.5625-7.54167-13.79167-5.82292-5.8125-13.79167-13.79166-13.79167-28.875s7.96875-23.0625,13.79167-28.875c5.22917-5.22916,7.54167-7.79166,7.54167-13.79166s-2.3125-8.5625-7.54167-13.79167C93.30208,183.0625,85.33333,175.08333,85.33333,160s7.96875-23.0625,13.79167-28.875c5.22917-5.22917,7.54167-7.79167,7.54167-13.79167s-2.3125-8.5625-7.54167-13.79166c-5.82292-5.8125-13.79167-13.79167-13.79167-28.875s7.96875-23.0625,13.79167-28.875C104.35417,40.5625,106.66667,38,106.66667,32V21.33333H128V32c0,15.08333-7.96875,23.0625-13.79167,28.875-5.22916,5.22917-7.54166,7.79167-7.54166,13.79167s2.3125,8.5625,7.54166,13.79166C120.03125,94.27083,128,102.25,128,117.33333s-7.96875,23.0625-13.79167,28.875C108.97917,151.4375,106.66667,154,106.66667,160s2.3125,8.5625,7.54166,13.79167C120.03125,179.60417,128,187.58333,128,202.66667s-7.96875,23.0625-13.79167,28.875c-5.22916,5.22916-7.54166,7.79166-7.54166,13.79166s2.3125,8.5625,7.54166,13.79167C120.03125,264.9375,128,272.91667,128,288Z" style="fill:#fdbc34"/><path d="M213.33333,288H192c0-6-2.3125-8.5625-7.54167-13.79167-5.82291-5.8125-13.79166-13.79166-13.79166-28.875s7.96875-23.0625,13.79166-28.875C189.6875,211.22917,192,208.66667,192,202.66667s-2.3125-8.5625-7.54167-13.79167c-5.82291-5.8125-13.79166-13.79167-13.79166-28.875s7.96875-23.0625,13.79166-28.875C189.6875,125.89583,192,123.33333,192,117.33333s-2.3125-8.5625-7.54167-13.79166c-5.82291-5.8125-13.79166-13.79167-13.79166-28.875s7.96875-23.0625,13.79166-28.875C189.6875,40.5625,192,38,192,32V21.33333h21.33333V32c0,15.08333-7.96875,23.0625-13.79166,28.875C194.3125,66.10417,192,68.66667,192,74.66667s2.3125,8.5625,7.54167,13.79166c5.82291,5.8125,13.79166,13.79167,13.79166,28.875s-7.96875,23.0625-13.79166,28.875C194.3125,151.4375,192,154,192,160s2.3125,8.5625,7.54167,13.79167c5.82291,5.8125,13.79166,13.79166,13.79166,28.875s-7.96875,23.0625-13.79166,28.875C194.3125,236.77083,192,239.33333,192,245.33333s2.3125,8.5625,7.54167,13.79167C205.36458,264.9375,213.33333,272.91667,213.33333,288Z" style="fill:#fdbc34"/><path d="M170.66667,288H149.33333c0-6-2.3125-8.5625-7.54166-13.79167C135.96875,268.39583,128,260.41667,128,245.33333s7.96875-23.0625,13.79167-28.875c5.22916-5.22916,7.54166-7.79166,7.54166-13.79166s-2.3125-8.5625-7.54166-13.79167C135.96875,183.0625,128,175.08333,128,160s7.96875-23.0625,13.79167-28.875c5.22916-5.22917,7.54166-7.79167,7.54166-13.79167s-2.3125-8.5625-7.54166-13.79166C135.96875,97.72917,128,89.75,128,74.66667s7.96875-23.0625,13.79167-28.875C147.02083,40.5625,149.33333,38,149.33333,32V21.33333h21.33334V32c0,15.08333-7.96875,23.0625-13.79167,28.875-5.22917,5.22917-7.54167,7.79167-7.54167,13.79167s2.3125,8.5625,7.54167,13.79166c5.82292,5.8125,13.79167,13.79167,13.79167,28.875s-7.96875,23.0625-13.79167,28.875C151.64583,151.4375,149.33333,154,149.33333,160s2.3125,8.5625,7.54167,13.79167c5.82292,5.8125,13.79167,13.79166,13.79167,28.875s-7.96875,23.0625-13.79167,28.875c-5.22917,5.22916-7.54167,7.79166-7.54167,13.79166s2.3125,8.5625,7.54167,13.79167C162.69792,264.9375,170.66667,272.91667,170.66667,288Z" style="fill:#fdcf6d"/><path d="M256,288H234.66667c0-6-2.3125-8.5625-7.54167-13.79167-5.82292-5.8125-13.79167-13.79166-13.79167-28.875s7.96875-23.0625,13.79167-28.875c5.22917-5.22916,7.54167-7.79166,7.54167-13.79166s-2.3125-8.5625-7.54167-13.79167c-5.82292-5.8125-13.79167-13.79167-13.79167-28.875s7.96875-23.0625,13.79167-28.875c5.22917-5.22917,7.54167-7.79167,7.54167-13.79167s-2.3125-8.5625-7.54167-13.79166c-5.82292-5.8125-13.79167-13.79167-13.79167-28.875s7.96875-23.0625,13.79167-28.875C232.35417,40.5625,234.66667,38,234.66667,32V21.33333H256V32c0,15.08333-7.96875,23.0625-13.79167,28.875-5.22916,5.22917-7.54166,7.79167-7.54166,13.79167s2.3125,8.5625,7.54166,13.79166C248.03125,94.27083,256,102.25,256,117.33333s-7.96875,23.0625-13.79167,28.875C236.97917,151.4375,234.66667,154,234.66667,160s2.3125,8.5625,7.54166,13.79167C248.03125,179.60417,256,187.58333,256,202.66667s-7.96875,23.0625-13.79167,28.875c-5.22916,5.22916-7.54166,7.79166-7.54166,13.79166s2.3125,8.5625,7.54166,13.79167C248.03125,264.9375,256,272.91667,256,288Z" style="fill:#fdcf6d"/><path d="M298.66667,288H277.33333c0-6-2.3125-8.5625-7.54166-13.79167C263.96875,268.39583,256,260.41667,256,245.33333s7.96875-23.0625,13.79167-28.875c5.22916-5.22916,7.54166-7.79166,7.54166-13.79166s-2.3125-8.5625-7.54166-13.79167C263.96875,183.0625,256,175.08333,256,160s7.96875-23.0625,13.79167-28.875c5.22916-5.22917,7.54166-7.79167,7.54166-13.79167s-2.3125-8.5625-7.54166-13.79166C263.96875,97.72917,256,89.75,256,74.66667s7.96875-23.0625,13.79167-28.875C275.02083,40.5625,277.33333,38,277.33333,32V21.33333h21.33334V32c0,15.08333-7.96875,23.0625-13.79167,28.875-5.22917,5.22917-7.54167,7.79167-7.54167,13.79167s2.3125,8.5625,7.54167,13.79166c5.82292,5.8125,13.79167,13.79167,13.79167,28.875s-7.96875,23.0625-13.79167,28.875C279.64583,151.4375,277.33333,154,277.33333,160s2.3125,8.5625,7.54167,13.79167c5.82292,5.8125,13.79167,13.79166,13.79167,28.875s-7.96875,23.0625-13.79167,28.875c-5.22917,5.22916-7.54167,7.79166-7.54167,13.79166s2.3125,8.5625,7.54167,13.79167C290.69792,264.9375,298.66667,272.91667,298.66667,288Z" style="fill:#fdbc34"/><path d="M462.61719,170.91146A31.79259,31.79259,0,0,0,444.6849,173.931,31.67256,31.67256,0,0,0,448,160a32,32,0,1,0-54.6276,22.6276l-94.70573,94.70573L341.33333,320l94.80078-94.80078a31.94421,31.94421,0,1,0,26.48308-54.28776Z" style="fill:#fdcf6d"/><path d="M348.875,312.45833,333.79167,297.375,436.125,195.04167,451.20833,210.125a10.4468,10.4468,0,0,0,6.15625,3.125h.20834c6.58333,0,11.02083-3.97917,11.67708-9.25a10.61862,10.61862,0,0,0-2.16667-7.89583,10.45676,10.45676,0,0,0-7.10416-4.02084l2.64583-21.16666a31.986,31.986,0,0,1,27.79167,35.72916c-2.13542,17.25-18.14584,29.66667-35.60417,27.79167a32.03215,32.03215,0,0,1-18.67708-9.20833l-.01042-.02084Z" style="fill:#fdbc34"/><path d="M444.6875,173.9375,425.5,164.60417a10.46679,10.46679,0,0,0-9.5-15.27084V128a32.035,32.035,0,0,1,32,32A31.68867,31.68867,0,0,1,444.6875,173.9375Z" style="fill:#fdbc34"/><path d="M362.66667,192l-6.24841,6.2484A51.50316,51.50316,0,0,1,320,213.33333h-.00011a85.33324,85.33324,0,0,0-85.33324,85.33325v.00017A85.33324,85.33324,0,0,0,319.99991,384h.00018a85.33324,85.33324,0,0,0,85.33324-85.33325v-.0001a51.50319,51.50319,0,0,1,15.08493-36.41825l6.27357-6.27357v-.00006A63.99994,63.99994,0,0,0,362.69189,192Z" style="fill:#a34e2d"/><path d="M366.91667,202.83333a53.43449,53.43449,0,0,1,48.9375,48.89584l-2.97917,2.97916a61.82042,61.82042,0,0,0-18.20833,43.95834A74.75724,74.75724,0,0,1,320,373.33333" style="fill:#a34e2d"/><path d="M320,384V362.66667a64.07,64.07,0,0,0,64-64,72.427,72.427,0,0,1,20.58333-50.75,43.05384,43.05384,0,0,0-38.51041-34.45834l1.6875-21.25A64.47451,64.47451,0,0,1,426.48958,250.875l.38542,4.91667L420.41667,262.25a51.16923,51.16923,0,0,0-15.08334,36.41667A85.42441,85.42441,0,0,1,320,384Z" style="fill:#993b17"/><path d="M341.33333,288H320c0-6-2.3125-8.5625-7.54167-13.79167-5.82291-5.8125-13.79166-13.79166-13.79166-28.875s7.96875-23.0625,13.79166-28.875C317.6875,211.22917,320,208.66667,320,202.66667s-2.3125-8.5625-7.54167-13.79167c-5.82291-5.8125-13.79166-13.79167-13.79166-28.875s7.96875-23.0625,13.79166-28.875C317.6875,125.89583,320,123.33333,320,117.33333s-2.3125-8.5625-7.54167-13.79166c-5.82291-5.8125-13.79166-13.79167-13.79166-28.875s7.96875-23.0625,13.79166-28.875C317.6875,40.5625,320,38,320,32V21.33333h21.33333V32c0,15.08333-7.96875,23.0625-13.79166,28.875C322.3125,66.10417,320,68.66667,320,74.66667s2.3125,8.5625,7.54167,13.79166c5.82291,5.8125,13.79166,13.79167,13.79166,28.875s-7.96875,23.0625-13.79166,28.875C322.3125,151.4375,320,154,320,160s2.3125,8.5625,7.54167,13.79167c5.82291,5.8125,13.79166,13.79166,13.79166,28.875s-7.96875,23.0625-13.79166,28.875C322.3125,236.77083,320,239.33333,320,245.33333s2.3125,8.5625,7.54167,13.79167C333.36458,264.9375,341.33333,272.91667,341.33333,288Z" style="fill:#fdcf6d"/><polygon points="490.667 42.667 42.667 64 42.667 42.667 490.667 21.333 490.667 42.667" style="fill:#ad6143"/><path d="M256,256H21.33333c0,170.66667,128,192,128,192,0,21.33333,21.33334,42.66667,42.66667,42.66667H320c21.33333,0,42.66667-21.33334,42.66667-42.66667,0,0,128-21.33333,128-192Z" style="fill:#c11107"/><path d="M320,490.66667H256V469.33333h64c9.57292,0,21.33333-11.76041,21.33333-21.33333l.0625-17.97917,17.66667-3.05208c4.20833-.71875,100.07292-18.64583,109.52083-149.63542H448V256h42.85417l-.375,11.02083C485.20833,425.22917,367.6875,447.13542,362.6875,447.98958l-.02083.05209C362.66667,469.53125,341.53125,490.66667,320,490.66667Z" style="fill:#af0a00"/><path d="M256,448s128-21.33333,128-192H21.33333c0,170.66667,128,192,128,192,0,21.33333,21.33334,42.66667,42.66667,42.66667h21.33333C234.66667,490.66667,256,469.33333,256,448Z" style="fill:#c82e25"/><path d="M152.63542,426.92708C143.02083,425.125,58.27083,406.01042,44.54167,289.25l21.1875-2.5c11.94791,101.60417,82.78125,117.69792,90.82291,119.19792Z" style="fill:#d96c66"/><rect x="170.66667" y="447.99999" width="85.33333" height="21.33333" style="fill:#c11107"/><circle cx="384" cy="234.66667" r="21.33333" style="fill:#993b17"/><circle cx="288" cy="245.33333" r="10.66667" style="fill:#993b17"/></g></svg>