<?xml version="1.0" encoding="UTF-8"?>
<!DOCTYPE svg PUBLIC "-//W3C//DTD SVG 1.1//EN" "http://www.w3.org/Graphics/SVG/1.1/DTD/svg11.dtd">
<!-- Creator: CorelDRAW -->
<svg xmlns="http://www.w3.org/2000/svg" xml:space="preserve" width="2048px" height="2048px" style="shape-rendering:geometricPrecision; text-rendering:geometricPrecision; image-rendering:optimizeQuality; fill-rule:evenodd; clip-rule:evenodd"
viewBox="0 0 2048 2048"
 xmlns:xlink="http://www.w3.org/1999/xlink">
 <defs>
  <style type="text/css">
   <![CDATA[
    .fil2 {fill:none}
    .fil1 {fill:#26A69A}
    .fil0 {fill:#80CBC4}
    .fil9 {fill:#B62703}
    .fil10 {fill:#C72800}
    .fil6 {fill:#CA2B03}
    .fil7 {fill:#DD2C00}
    .fil3 {fill:#263238;fill-rule:nonzero}
    .fil5 {fill:#424242;fill-rule:nonzero}
    .fil4 {fill:#455A64;fill-rule:nonzero}
    .fil8 {fill:#560502;fill-rule:nonzero}
   ]]>
  </style>
   <clipPath id="id0">
    <path d="M1024 -0.0011811c565.541,0 1024,458.461 1024,1024 0,565.541 -458.461,1024 -1024,1024 -565.541,0 -1024,-458.461 -1024,-1024 0,-565.541 458.461,-1024 1024,-1024z"/>
   </clipPath>
 </defs>
 <g id="Layer_x0020_1">
  <metadata id="CorelCorpID_0Corel-Layer"/>
  <path class="fil0" d="M1024 -0.0011811c565.541,0 1024,458.461 1024,1024 0,565.541 -458.461,1024 -1024,1024 -565.541,0 -1024,-458.461 -1024,-1024 0,-565.541 458.461,-1024 1024,-1024z"/>
  <g style="clip-path:url(#id0)">
   <g id="_517157992">
    <g>
     <polygon id="_2603225121" class="fil1" points="1074.16,674.259 2210.04,1810.14 2211.46,1811.94 2212.83,1813.8 2214.15,1815.7 2215.43,1817.65 2216.66,1819.65 2217.85,1821.69 2218.98,1823.78 2220.06,1825.91 2221.09,1828.08 2222.07,1830.3 2222.99,1832.55 2223.86,1834.84 2224.67,1837.17 2225.42,1839.53 2226.12,1841.92 2226.75,1844.35 1090.87,708.471 1090.24,706.042 1089.54,703.647 1088.79,701.285 1087.97,698.958 1087.11,696.668 1086.18,694.415 1085.21,692.202 1084.18,690.029 1083.1,687.898 1081.96,685.81 1080.78,683.765 1079.55,681.767 1078.27,679.817 1076.95,677.914 1075.58,676.061 "/>
     <polygon id="_260322920" class="fil1" points="1352.18,717.143 2488.06,1853.03 2489.43,1854.86 2490.62,1856.82 2491.62,1858.91 2492.43,1861.1 2493.01,1863.38 2493.38,1865.75 2493.5,1868.18 1357.62,732.301 1357.49,729.864 1357.13,727.498 1356.55,725.215 1355.74,723.025 1354.74,720.942 1353.55,718.978 "/>
     <polygon id="_260323784" class="fil1" points="1357.62,732.301 2493.5,1868.18 2493.38,1870.62 2493.01,1872.99 2492.43,1875.27 2491.62,1877.46 2490.62,1879.54 2489.43,1881.51 2488.06,1883.34 2486.52,1885.03 2484.83,1886.57 2482.99,1887.94 2481.03,1889.14 2478.94,1890.14 2476.75,1890.94 2474.47,1891.53 2472.1,1891.89 2469.67,1892.01 1333.79,756.131 1336.22,756.008 1338.59,755.646 1340.87,755.059 1343.06,754.257 1345.15,753.255 1347.11,752.06 1348.95,750.689 1350.64,749.151 1352.18,747.459 1353.55,745.625 1354.74,743.659 1355.74,741.576 1356.55,739.387 1357.13,737.103 1357.49,734.737 "/>
     <polygon id="_260323664" class="fil1" points="1333.79,756.131 2469.67,1892.01 2445.84,1892.01 1309.96,756.131 "/>
     <polygon id="_260324048" class="fil1" points="1309.96,756.131 2445.84,1892.01 2445.84,1920.56 1309.96,784.68 "/>
     <polygon id="_260324432" class="fil1" points="1422.35,872.551 2558.23,2008.43 2561.83,2012.51 2565.35,2016.64 2568.8,2020.8 2572.17,2024.99 2575.46,2029.23 2578.67,2033.5 2581.8,2037.81 1445.92,901.928 1442.79,897.62 1439.57,893.348 1436.28,889.112 1432.91,884.914 1429.47,880.755 1425.95,876.633 "/>
     <polygon id="_260324480" class="fil1" points="1445.92,901.928 2581.8,2037.81 2583.99,2040.91 2586.14,2044.03 2588.25,2047.17 2590.32,2050.33 2592.35,2053.5 2594.33,2056.69 2596.28,2059.89 2598.17,2063.12 2600.03,2066.36 2601.85,2069.61 2603.62,2072.89 2605.35,2076.17 2607.03,2079.48 2608.67,2082.8 2610.27,2086.13 2611.82,2089.48 2613.32,2092.85 2614.79,2096.23 2616.2,2099.62 2617.57,2103.03 2618.9,2106.46 2620.18,2109.89 2621.41,2113.35 2622.6,2116.81 2623.74,2120.29 2624.83,2123.78 2625.88,2127.29 2626.88,2130.81 2627.83,2134.34 2628.73,2137.89 2629.58,2141.44 2630.39,2145.01 1494.51,1009.13 1493.7,1005.56 1492.85,1002 1491.94,998.459 1490.99,994.927 1490,991.407 1488.95,987.902 1487.86,984.409 1486.72,980.93 1485.53,977.465 1484.3,974.012 1483.02,970.574 1481.69,967.15 1480.32,963.741 1478.9,960.346 1477.44,956.965 1475.94,953.6 1474.38,950.25 1472.79,946.915 1471.15,943.595 1469.46,940.292 1467.74,937.003 1465.97,933.731 1464.15,930.474 1462.29,927.235 1460.39,924.013 1458.45,920.806 1456.47,917.616 1454.44,914.443 1452.37,911.288 1450.26,908.15 1448.11,905.031 "/>
     <polygon id="_260324360" class="fil1" points="1578.54,978.818 2714.42,2114.7 2715.88,2116.66 1580,980.778 "/>
     <polygon id="_260324000" class="fil1" points="1580,980.778 2715.88,2116.66 2717.13,2118.76 2718.14,2120.92 2718.92,2123.15 2719.46,2125.42 2719.78,2127.71 2719.88,2130 2719.76,2132.29 2719.42,2134.55 2718.86,2136.77 2718.1,2138.93 2717.12,2141.01 2715.95,2143 2714.57,2144.88 2713,2146.64 2711.23,2148.25 2709.27,2149.7 1573.39,1013.82 1575.35,1012.37 1577.11,1010.76 1578.69,1009 1580.07,1007.12 1581.24,1005.13 1582.21,1003.05 1582.98,1000.89 1583.53,998.668 1583.88,996.407 1584,994.119 1583.9,991.823 1583.58,989.533 1583.04,987.268 1582.26,985.041 1581.24,982.873 "/>
     <polygon id="_260324456" class="fil1" points="1573.39,1013.82 2709.27,2149.7 2637.78,2197.36 1501.9,1061.48 "/>
     <polygon id="_260324240" class="fil1" points="1501.9,1061.48 2637.78,2197.36 2637.62,2197.47 2637.45,2197.58 2637.29,2197.68 2637.12,2197.79 2636.96,2197.89 2636.79,2197.99 2636.62,2198.09 2636.46,2198.18 1500.58,1062.3 1500.74,1062.2 1500.91,1062.1 1501.07,1062 1501.24,1061.9 1501.41,1061.8 1501.57,1061.69 1501.73,1061.59 "/>
     <polygon id="_260323880" class="fil1" points="1500.58,1062.3 2636.46,2198.18 2636.46,2198.58 2636.47,2198.98 2636.47,2199.38 2636.47,2199.77 2636.47,2200.17 2636.48,2200.57 2636.48,2200.97 2636.48,2201.37 1500.6,1065.49 1500.6,1065.09 1500.59,1064.69 1500.59,1064.29 1500.59,1063.89 1500.59,1063.49 1500.58,1063.1 1500.58,1062.7 "/>
     <polygon id="_260324312" class="fil1" points="1070.46,670.013 2206.35,1805.9 2207.61,1807.27 2208.84,1808.69 2210.04,1810.14 1074.16,674.259 1072.96,672.807 1071.72,671.392 "/>
     <polygon id="_260323928" class="fil1" points="738.043,756.131 1873.92,1892.01 1850.09,1892.01 714.213,756.131 "/>
     <polygon id="_260324648" class="fil1" points="714.213,756.131 1850.09,1892.01 1847.66,1891.89 1845.29,1891.53 1843.01,1890.94 1840.82,1890.14 1838.74,1889.14 1836.77,1887.94 1834.94,1886.57 1833.24,1885.03 697.362,749.151 699.055,750.689 700.889,752.06 702.854,753.255 704.938,754.257 707.127,755.059 709.411,755.646 711.777,756.008 "/>
     <polygon id="_260324960" class="fil1" points="1309.96,1375.27 2445.84,2511.15 2445.72,2513.59 2445.35,2515.96 2444.77,2518.24 2443.96,2520.43 2442.96,2522.51 2441.77,2524.48 2440.4,2526.31 2438.86,2528 2437.17,2529.54 2435.33,2530.91 2433.37,2532.11 2431.28,2533.11 2429.09,2533.91 2426.81,2534.5 2424.44,2534.86 2422.01,2534.98 1286.13,1399.1 1288.56,1398.98 1290.93,1398.62 1293.21,1398.03 1295.4,1397.23 1297.49,1396.23 1299.45,1395.03 1301.29,1393.66 1302.98,1392.12 1304.52,1390.43 1305.89,1388.59 1307.08,1386.63 1308.08,1384.55 1308.89,1382.36 1309.47,1380.07 1309.83,1377.71 "/>
     <polygon id="_260325008" class="fil1" points="1286.13,1399.1 2422.01,2534.98 2159.88,2534.98 1024,1399.1 "/>
     <polygon id="_260324888" class="fil1" points="738.043,1346.29 1873.92,2482.17 1868.67,2479.23 1863.48,2476.24 1858.34,2473.2 1853.26,2470.11 1848.25,2466.96 1843.29,2463.77 1838.39,2460.53 1833.56,2457.24 1828.79,2453.9 1824.08,2450.51 1819.43,2447.07 1814.85,2443.59 1810.34,2440.06 1805.89,2436.49 1801.51,2432.87 1797.2,2429.21 1792.95,2425.5 657.069,1289.61 661.315,1293.32 665.628,1296.99 670.01,1300.61 674.458,1304.18 678.974,1307.71 683.553,1311.19 688.198,1314.63 692.906,1318.01 697.679,1321.35 702.513,1324.65 707.409,1327.89 712.366,1331.08 717.383,1334.23 722.461,1337.32 727.597,1340.36 732.792,1343.35 "/>
     <polygon id="_260324816" class="fil1" points="761.873,1399.1 1897.75,2534.98 1895.32,2534.86 1892.95,2534.5 1890.67,2533.91 1888.48,2533.11 1886.4,2532.11 1884.43,2530.91 1882.6,2529.54 746.716,1393.66 748.55,1395.03 750.514,1396.23 752.598,1397.23 754.788,1398.03 757.071,1398.62 759.436,1398.98 "/>
     <polygon id="_260325152" class="fil1" points="547.425,1062.3 1683.31,2198.18 1683.14,2198.09 1682.97,2197.99 1682.81,2197.89 1682.64,2197.79 1682.48,2197.68 1682.31,2197.58 1682.15,2197.47 1681.98,2197.36 546.103,1061.48 546.266,1061.59 546.43,1061.69 546.595,1061.8 546.76,1061.9 546.925,1062 547.091,1062.1 547.257,1062.2 "/>
     <polygon id="_260324672" class="fil1" points="546.103,1061.48 1681.98,2197.36 1610.49,2149.7 474.613,1013.82 "/>
     <polygon id="_260325296" class="fil1" points="474.613,1013.82 1610.49,2149.7 1608.54,2148.25 472.654,1012.37 "/>
     <polygon id="_260325224" class="fil1" points="1024,1399.1 2159.88,2534.98 1897.75,2534.98 761.873,1399.1 "/>
     <polygon id="_260324600" class="fil1" points="1445.92,1229.04 2581.8,2364.92 2578.67,2369.23 2575.46,2373.5 2572.17,2377.74 2568.8,2381.94 2565.35,2386.1 2561.83,2390.22 2558.23,2394.3 2554.56,2398.34 2550.81,2402.35 2546.99,2406.31 2543.1,2410.23 2539.13,2414.11 2535.1,2417.95 2530.99,2421.74 2526.81,2425.5 2522.57,2429.21 2518.25,2432.87 2513.87,2436.49 2509.42,2440.06 2504.91,2443.59 2500.33,2447.07 2495.68,2450.51 2490.98,2453.9 2486.2,2457.24 2481.37,2460.53 2476.47,2463.77 2471.52,2466.96 2466.5,2470.11 2461.42,2473.2 2456.28,2476.24 2451.09,2479.23 2445.84,2482.17 1309.96,1346.29 1315.21,1343.35 1320.4,1340.36 1325.54,1337.32 1330.62,1334.23 1335.63,1331.08 1340.59,1327.89 1345.49,1324.65 1350.32,1321.35 1355.09,1318.01 1359.8,1314.63 1364.45,1311.19 1369.03,1307.71 1373.54,1304.18 1377.99,1300.61 1382.37,1296.99 1386.69,1293.32 1390.93,1289.61 1395.11,1285.86 1399.22,1282.07 1403.25,1278.23 1407.22,1274.35 1411.11,1270.43 1414.93,1266.47 1418.68,1262.46 1422.35,1258.42 1425.95,1254.34 1429.47,1250.22 1432.91,1246.06 1436.28,1241.86 1439.57,1237.62 1442.79,1233.35 "/>
     <polygon id="_260324744" class="fil1" points="1309.96,1346.29 2445.84,2482.17 2445.84,2511.15 1309.96,1375.27 "/>
     <polygon id="_260325560" class="fil1" points="1500.6,1065.49 2636.48,2201.37 2636.42,2206.9 2636.25,2212.4 2635.96,2217.89 2635.56,2223.36 2635.05,2228.8 2634.42,2234.22 2633.69,2239.61 2632.85,2244.98 2631.89,2250.33 2630.83,2255.64 2629.67,2260.94 2628.39,2266.2 2627.01,2271.44 2625.52,2276.65 2623.93,2281.83 2622.24,2286.98 2620.45,2292.1 2618.55,2297.19 2616.55,2302.25 2614.46,2307.28 2612.26,2312.28 2609.97,2317.24 2607.57,2322.17 2605.09,2327.06 2602.5,2331.92 2599.82,2336.75 2597.05,2341.54 2594.18,2346.29 2591.22,2351.01 2588.17,2355.68 2585.03,2360.32 2581.8,2364.92 1445.92,1229.04 1449.15,1224.44 1452.29,1219.8 1455.34,1215.12 1458.3,1210.41 1461.17,1205.66 1463.94,1200.87 1466.62,1196.04 1469.2,1191.18 1471.69,1186.29 1474.08,1181.36 1476.38,1176.39 1478.57,1171.4 1480.67,1166.37 1482.67,1161.31 1484.57,1156.22 1486.36,1151.1 1488.05,1145.95 1489.64,1140.77 1491.13,1135.56 1492.51,1130.32 1493.78,1125.05 1494.95,1119.76 1496.01,1114.44 1496.97,1109.1 1497.81,1103.73 1498.54,1098.33 1499.17,1092.92 1499.68,1087.47 1500.08,1082.01 1500.36,1076.52 1500.54,1071.01 "/>
    </g>
    <path id="_517157944" class="fil1" d="M1074.16 674.259c7.66418,9.47245 13.4776,21.1772 16.7114,34.2118l242.915 0c13.161,0 23.8299,10.6701 23.8299,23.8299 0,13.161 -10.6689,23.8299 -23.8299,23.8299l-23.8299 0 0 28.5496c56.3233,31.0642 102.966,71.0989 135.964,117.248 23.5925,32.9953 40.2532,69.0627 48.5859,107.202l52.4445 -34.963c10.95,-7.29922 25.7457,-4.34055 33.0449,6.61064 7.29922,10.9488 4.34055,25.7445 -6.60945,33.0449l-71.4898 47.6575c-0.434646,0.28937 -0.875198,0.563386 -1.32047,0.820867 0.0129921,1.06063 0.0188977,2.12126 0.0188977,3.18425 0,59.0906 -19.7351,114.692 -54.6745,163.557 -32.9977,46.1492 -79.6406,86.1839 -135.964,117.248l0 28.9807c0,13.161 -10.6689,23.8311 -23.8299,23.8311l-262.127 0 -262.127 0c-13.1599,0 -23.8299,-10.6701 -23.8299,-23.8311l0 -28.9807c-56.3221,-31.0642 -102.965,-71.0977 -135.964,-117.248 -34.9394,-48.8634 -54.6745,-104.466 -54.6745,-163.557 0,-1.06299 0.00590552,-2.12362 0.0200788,-3.18425 -0.446457,-0.257481 -0.887009,-0.531496 -1.32165,-0.820867l-71.4898 -47.6575c-10.95,-7.3004 -13.9087,-22.0961 -6.60945,-33.0449 7.29922,-10.9512 22.0949,-13.9099 33.0449,-6.61064l52.4457 34.9618c8.3315,-38.1378 24.9921,-74.2052 48.5847,-107.2 32.9988,-46.1516 79.6406,-86.1839 135.964,-117.248l0 -28.5496 -23.8299 0c-13.161,0 -23.8299,-10.6689 -23.8299,-23.8299 0,-13.1599 10.6689,-23.8299 23.8299,-23.8299l242.915 0c3.23386,-13.0347 9.04725,-24.7394 16.7114,-34.2118 12.6756,-15.6673 30.3992,-25.3606 50.1603,-25.3606 19.761,0 37.4847,9.69331 50.1603,25.3606z"/>
   </g>
  </g>
  <path class="fil2" d="M1024 -0.0011811c565.541,0 1024,458.461 1024,1024 0,565.541 -458.461,1024 -1024,1024 -565.541,0 -1024,-458.461 -1024,-1024 0,-565.541 458.461,-1024 1024,-1024z"/>
  <path class="fil3" d="M1024 744.218l-57.8398 0c-6.57993,0 -11.915,-5.33504 -11.915,-11.915 0,-22.5484 7.48819,-43.0807 19.5945,-58.043 12.6756,-15.6673 30.3992,-25.3618 50.1603,-25.3618 19.761,0 37.4847,9.6945 50.1603,25.3618 12.1063,14.9622 19.5945,35.4945 19.5945,58.043 0,6.57993 -5.33504,11.915 -11.915,11.915l-57.8398 0z"/>
  <path class="fil4" d="M501.049 974.167c-10.95,-7.29922 -25.7457,-4.34055 -33.0449,6.60945 -7.29922,10.9512 -4.34055,25.7469 6.60945,33.0461l71.4898 47.6587c10.95,7.29922 25.7457,4.34055 33.0449,-6.61064 7.29922,-10.95 4.34055,-25.7457 -6.60945,-33.0449l-71.4898 -47.6587z"/>
  <path class="fil4" d="M1573.39 1013.82c10.95,-7.29922 13.9087,-22.0949 6.60945,-33.0461 -7.29922,-10.95 -22.0949,-13.9087 -33.0449,-6.60945l-71.4898 47.6587c-10.95,7.29922 -13.9087,22.0949 -6.60945,33.0449 7.29922,10.9512 22.0949,13.9099 33.0449,6.61064l71.4898 -47.6587z"/>
  <path class="fil5" d="M1309.96 784.68c56.3233,31.0654 102.966,71.0989 135.965,117.248 34.9382,48.8646 54.6721,104.466 54.6721,163.557 0,59.0918 -19.7339,114.692 -54.6721,163.557 -32.9988,46.1492 -79.6418,86.1839 -135.965,117.248l0 28.9807c0,13.161 -10.6689,23.8311 -23.8299,23.8311l-524.253 0c-13.161,0 -23.8311,-10.6701 -23.8311,-23.8311l0 -28.9807c-56.3233,-31.063 -102.966,-71.0977 -135.965,-117.248 -34.9382,-48.8634 -54.6721,-104.465 -54.6721,-163.557 0,-59.0906 19.7339,-114.692 54.6721,-163.558 32.9988,-46.1492 79.6418,-86.1816 135.965,-117.247l0 -28.9819c0,-13.161 10.6701,-23.8311 23.8311,-23.8311l524.253 0c13.161,0 23.8299,10.6701 23.8299,23.8311l0 28.9819z"/>
  <path class="fil6" d="M1024 1399.1l0 -667.235 -262.126 0c-13.161,0 -23.8311,10.6701 -23.8311,23.8311l0 28.9819c-56.3233,31.0654 -102.966,71.0977 -135.965,117.247 -23.5914,32.9953 -40.252,69.0638 -48.5835,107.203 -3.78544,17.328 -5.85237,35.0823 -6.06969,53.1709 -0.0129921,1.06181 -0.0188977,2.12244 -0.0188977,3.18425 0,59.0918 19.7339,114.693 54.6721,163.557 32.9988,46.1504 79.6418,86.1851 135.965,117.248l0 28.9807c0,13.161 10.6701,23.8311 23.8311,23.8311l262.126 0z"/>
  <path class="fil7" d="M1445.92 1229.04c34.9382,-48.8646 54.6721,-104.465 54.6721,-163.557 0,-1.06181 -0.00590552,-2.12244 -0.0188977,-3.18425 -0.217323,-18.0886 -2.28425,-35.8429 -6.06969,-53.1709 -8.3315,-38.139 -24.9921,-74.2064 -48.5835,-107.202 -32.9988,-46.1492 -79.6418,-86.1827 -135.965,-117.248l0 -28.9819c0,-13.161 -10.6689,-23.8311 -23.8299,-23.8311l-262.127 0 0 667.235 262.127 0c13.161,0 23.8299,-10.6701 23.8299,-23.8311l0 -28.9807c56.3233,-31.0642 102.966,-71.0989 135.965,-117.248z"/>
  <path class="fil8" d="M714.213 708.471c-13.161,0 -23.8299,10.6701 -23.8299,23.8311 0,13.1599 10.6689,23.8299 23.8299,23.8299l619.574 0c13.161,0 23.8299,-10.6701 23.8299,-23.8299 0,-13.161 -10.6689,-23.8311 -23.8299,-23.8311l-619.574 0z"/>
  <path class="fil9" d="M761.873 1399.1l262.127 0 0 -52.8119 -285.957 0 0 28.9807c0,13.161 10.6701,23.8311 23.8299,23.8311z"/>
  <path class="fil10" d="M1024 1399.1l262.127 0c13.161,0 23.8299,-10.6701 23.8299,-23.8311l0 -28.9807 -285.957 0 0 52.8119z"/>
 </g>
</svg>
