<?xml version="1.0" encoding="UTF-8"?>
<!DOCTYPE svg PUBLIC "-//W3C//DTD SVG 1.1//EN" "http://www.w3.org/Graphics/SVG/1.1/DTD/svg11.dtd">
<!-- Creator: CorelDRAW -->
<svg xmlns="http://www.w3.org/2000/svg" xml:space="preserve" width="2048px" height="2048px" style="shape-rendering:geometricPrecision; text-rendering:geometricPrecision; image-rendering:optimizeQuality; fill-rule:evenodd; clip-rule:evenodd"
viewBox="0 0 2048 2048"
 xmlns:xlink="http://www.w3.org/1999/xlink">
 <defs>
  <style type="text/css">
   <![CDATA[
    .fil2 {fill:none}
    .fil3 {fill:#00897B}
    .fil1 {fill:#D32F2F}
    .fil0 {fill:#EF5350}
    .fil4 {fill:#FBC02D}
    .fil5 {fill:#00695C;fill-rule:nonzero}
   ]]>
  </style>
   <clipPath id="id0">
    <path d="M1024 0c565.539,0 1024,458.461 1024,1024 0,565.539 -458.461,1024 -1024,1024 -565.539,0 -1024,-458.461 -1024,-1024 0,-565.539 458.461,-1024 1024,-1024z"/>
   </clipPath>
 </defs>
 <g id="Layer_x0020_1">
  <metadata id="CorelCorpID_0Corel-Layer"/>
  <path class="fil0" d="M1024 0c565.539,0 1024,458.461 1024,1024 0,565.539 -458.461,1024 -1024,1024 -565.539,0 -1024,-458.461 -1024,-1024 0,-565.539 458.461,-1024 1024,-1024z"/>
  <g style="clip-path:url(#id0)">
   <g id="_341191936">
    <g>
     <polygon id="_4558329521" class="fil1" points="1315.1,496.785 2450.98,1632.67 2452.32,1634.29 2453.62,1635.95 2454.87,1637.63 2456.08,1639.34 2457.23,1641.08 2458.34,1642.85 2459.4,1644.64 2460.41,1646.46 2461.37,1648.3 2462.27,1650.17 2463.12,1652.06 2463.92,1653.97 2464.67,1655.91 2465.36,1657.86 2465.99,1659.84 2466.57,1661.84 2467.08,1663.86 2467.55,1665.89 2467.95,1667.95 2468.29,1670.02 2468.57,1672.11 2468.79,1674.22 2468.95,1676.34 2469.05,1678.47 2469.08,1680.62 1333.2,544.743 1333.17,542.592 1333.07,540.455 1332.91,538.334 1332.69,536.228 1332.41,534.139 1332.07,532.066 1331.67,530.012 1331.2,527.976 1330.69,525.957 1330.11,523.96 1329.47,521.982 1328.78,520.024 1328.04,518.09 1327.24,516.176 1326.39,514.287 1325.48,512.419 1324.53,510.577 1323.52,508.759 1322.46,506.967 1321.35,505.2 1320.2,503.462 1318.99,501.749 1317.74,500.065 1316.44,498.41 "/>
     <polygon id="_455833360" class="fil1" points="1333.2,544.743 2469.08,1680.62 2469.08,1735.6 1333.2,599.717 "/>
     <polygon id="_455833936" class="fil1" points="1422.68,608.521 2558.56,1744.4 2559.95,1746.27 2561.16,1748.26 2562.18,1750.37 2563,1752.6 2563.59,1754.92 2563.96,1757.32 2564.08,1759.79 1428.2,623.91 1428.08,621.436 1427.71,619.034 1427.11,616.715 1426.3,614.493 1425.28,612.378 1424.07,610.384 "/>
     <polygon id="_455833600" class="fil1" points="1428.2,623.91 2564.08,1759.79 2563.96,1762.27 2563.59,1764.67 2563,1766.99 2562.18,1769.21 2561.16,1771.33 2559.95,1773.32 2558.56,1775.18 2557,1776.9 2555.28,1778.46 2553.42,1779.86 2551.42,1781.07 2549.31,1782.09 2547.08,1782.9 2544.76,1783.5 2542.36,1783.86 2539.89,1783.99 1404.01,648.104 1406.48,647.979 1408.88,647.613 1411.2,647.017 1413.43,646.203 1415.54,645.185 1417.54,643.973 1419.4,642.579 1421.12,641.018 1422.68,639.3 1424.07,637.438 1425.28,635.443 1426.3,633.328 1427.11,631.105 1427.71,628.786 1428.08,626.384 "/>
     <polygon id="_455833432" class="fil1" points="1404.01,648.104 2539.89,1783.99 2497.48,1783.99 1361.59,648.104 "/>
     <polygon id="_455833984" class="fil1" points="1361.59,648.104 2497.48,1783.99 2496.13,1801.75 1360.25,665.868 "/>
     <polygon id="_455834752" class="fil1" points="1360.25,665.868 2496.13,1801.75 2476.69,2058.31 1340.81,922.43 "/>
     <polygon id="_455834896" class="fil1" points="1340.81,922.43 2476.69,2058.31 2473.03,2106.75 1337.14,970.866 "/>
     <polygon id="_455834824" class="fil1" points="1337.14,970.866 2473.03,2106.75 2456.05,2330.76 1320.17,1194.88 "/>
     <polygon id="_455834584" class="fil1" points="1322.69,1194.88 2458.57,2330.76 2452.55,2377.08 1316.66,1241.2 "/>
     <polygon id="_455834320" class="fil1" points="686.406,648.104 1822.29,1783.99 1779.87,1783.99 643.992,648.104 "/>
     <polygon id="_455834656" class="fil1" points="1292.39,1561.6 2428.27,2697.48 2426.58,2719.88 1290.7,1584 "/>
     <polygon id="_455834344" class="fil1" points="1290.7,1584 2426.58,2719.88 2404.17,2719.88 1268.29,1584 "/>
     <polygon id="_455834848" class="fil1" points="1268.29,1584 2404.17,2719.88 1915.59,2719.88 779.708,1584 "/>
     <polygon id="_455834464" class="fil1" points="779.708,1584 1915.59,2719.88 1893.19,2719.88 757.306,1584 "/>
     <polygon id="_455834680" class="fil1" points="643.992,648.104 1779.87,1783.99 1777.4,1783.86 1775,1783.5 1772.68,1782.9 1770.46,1782.09 1768.34,1781.07 1766.35,1779.86 1764.48,1778.46 1762.77,1776.9 626.885,641.018 628.602,642.579 630.465,643.973 632.46,645.185 634.575,646.203 636.798,647.017 639.116,647.613 641.519,647.979 "/>
     <polygon id="_455835520" class="fil1" points="1316.66,1241.2 2452.55,2377.08 2428.27,2697.48 1292.39,1561.6 "/>
    </g>
    <path id="_341192104" class="fil1" d="M806.852 463.999l434.296 0c24.3945,0 46.8319,8.53465 63.3296,22.2827 17.7225,14.7697 28.7221,35.4449 28.7221,58.4611l0 54.9745 70.8083 0c13.3618,0 24.1937,10.8319 24.1937,24.1925 0,13.363 -10.8319,24.1949 -24.1937,24.1949l-42.4134 0 -1.34528 17.7638 -19.4362 256.562 -3.66851 48.4359 -16.9713 224.014 2.51929 0 -6.02835 46.3205 -24.2729 320.401 -1.69606 22.3996 -22.402 0 -488.586 0 -22.402 0 -1.69606 -22.3996 -25.4374 -335.77 -4.86496 -30.952 2.52047 0 -16.8236 -222.078 -3.81614 -50.3717 -19.4362 -256.562 -1.34528 -17.7638 -42.4146 0c-13.3618,0 -24.1937,-10.8319 -24.1937,-24.1949 0,-13.3606 10.8319,-24.1925 24.1937,-24.1925l70.8083 0 0 -54.9745c0,-23.0173 10.9996,-43.6937 28.7221,-58.4611 16.4965,-13.748 38.9363,-22.2827 63.3296,-22.2827z"/>
   </g>
  </g>
  <path class="fil2" d="M1024 0c565.539,0 1024,458.461 1024,1024 0,565.539 -458.461,1024 -1024,1024 -565.539,0 -1024,-458.461 -1024,-1024 0,-565.539 458.461,-1024 1024,-1024z"/>
  <polygon class="fil3" points="711.851,639.878 1336.15,639.878 1362.22,639.878 1360.25,665.868 1292.39,1561.6 1290.7,1584 1268.29,1584 779.708,1584 757.306,1584 755.608,1561.6 687.752,665.868 685.784,639.878 "/>
  <polygon class="fil4" points="1340.81,922.429 1337.14,970.866 711.004,972.802 707.188,922.429 "/>
  <polygon class="fil4" points="725.307,1194.88 1322.69,1194.88 1316.39,1243.27 733.232,1245.3 "/>
  <path class="fil4" d="M1026.01 1003.36c24.3201,0 46.3394,9.86103 62.2796,25.8012 15.939,15.9378 25.7988,37.9595 25.7988,62.2784 0,24.3177 -9.85985,46.3382 -25.7988,62.2784 -15.9402,15.939 -37.9595,25.8 -62.2796,25.8 -24.3177,0 -46.3382,-9.86103 -62.2784,-25.8 -15.939,-15.9402 -25.7988,-37.9607 -25.7988,-62.2784 0,-24.3189 9.85985,-46.3406 25.7988,-62.2784 15.9402,-15.9402 37.9607,-25.8012 62.2784,-25.8012z"/>
  <path class="fil5" d="M643.992 599.717c-13.3618,0 -24.1937,10.8319 -24.1937,24.1937 0,13.3606 10.8319,24.1937 24.1937,24.1937l760.016 0c13.3618,0 24.1937,-10.8331 24.1937,-24.1937 0,-13.3618 -10.8319,-24.1937 -24.1937,-24.1937l-760.016 0z"/>
  <path class="fil5" d="M806.852 463.999l434.296 0c24.3933,0 46.8319,8.53465 63.3296,22.2827 17.7225,14.7697 28.7221,35.4449 28.7221,58.4611l0 79.1682 -0.0011811 24.1937 -24.1925 0 -570.012 0 -24.1925 0 -0.0011811 -24.1937 0 -79.1682c0,-23.0173 10.9996,-43.6937 28.7221,-58.4611 16.4965,-13.748 38.9363,-22.2827 63.3296,-22.2827z"/>
 </g>
</svg>
